<?xml version="1.0" encoding="utf-8" standalone="no"?>
<!DOCTYPE svg PUBLIC "-//W3C//DTD SVG 1.1//EN"
  "http://www.w3.org/Graphics/SVG/1.1/DTD/svg11.dtd">
<svg xmlns:xlink="http://www.w3.org/1999/xlink" width="864pt" height="648pt" viewBox="0 0 864 648" xmlns="http://www.w3.org/2000/svg" version="1.1">
 <metadata>
  <rdf:RDF xmlns:dc="http://purl.org/dc/elements/1.1/" xmlns:cc="http://creativecommons.org/ns#" xmlns:rdf="http://www.w3.org/1999/02/22-rdf-syntax-ns#">
   <cc:Work>
    <dc:type rdf:resource="http://purl.org/dc/dcmitype/StillImage"/>
    <dc:date>2023-12-07T19:12:54.879735</dc:date>
    <dc:format>image/svg+xml</dc:format>
    <dc:creator>
     <cc:Agent>
      <dc:title>Matplotlib v3.6.2, https://matplotlib.org/</dc:title>
     </cc:Agent>
    </dc:creator>
   </cc:Work>
  </rdf:RDF>
 </metadata>
 <defs>
  <style type="text/css">*{stroke-linejoin: round; stroke-linecap: butt}</style>
 </defs>
 <g id="figure_1">
  <g id="patch_1">
   <path d="M 0 648 
L 864 648 
L 864 0 
L 0 0 
z
" style="fill: #ffffff"/>
  </g>
  <g id="axes_1">
   <g id="patch_2">
    <path d="M 51.365 620.84 
L 853.2 620.84 
L 853.2 25.490625 
L 51.365 25.490625 
z
" style="fill: #eaeaf2"/>
   </g>
   <g id="matplotlib.axis_1">
    <g id="xtick_1">
     <g id="line2d_1">
      <path d="M 120.527786 620.84 
L 120.527786 25.490625 
" clip-path="url(#p1129777af4)" style="fill: none; stroke: #ffffff; stroke-linecap: round"/>
     </g>
     <g id="line2d_2"/>
     <g id="text_1">
      <!-- 2007 -->
      <g style="fill: #262626" transform="translate(109.405911 634.997813) scale(0.1 -0.1)">
       <defs>
        <path id="ArialMT-32" d="M 3222 541 
L 3222 0 
L 194 0 
Q 188 203 259 391 
Q 375 700 629 1000 
Q 884 1300 1366 1694 
Q 2113 2306 2375 2664 
Q 2638 3022 2638 3341 
Q 2638 3675 2398 3904 
Q 2159 4134 1775 4134 
Q 1369 4134 1125 3890 
Q 881 3647 878 3216 
L 300 3275 
Q 359 3922 746 4261 
Q 1134 4600 1788 4600 
Q 2447 4600 2831 4234 
Q 3216 3869 3216 3328 
Q 3216 3053 3103 2787 
Q 2991 2522 2730 2228 
Q 2469 1934 1863 1422 
Q 1356 997 1212 845 
Q 1069 694 975 541 
L 3222 541 
z
" transform="scale(0.015625)"/>
        <path id="ArialMT-30" d="M 266 2259 
Q 266 3072 433 3567 
Q 600 4063 929 4331 
Q 1259 4600 1759 4600 
Q 2128 4600 2406 4451 
Q 2684 4303 2865 4023 
Q 3047 3744 3150 3342 
Q 3253 2941 3253 2259 
Q 3253 1453 3087 958 
Q 2922 463 2592 192 
Q 2263 -78 1759 -78 
Q 1097 -78 719 397 
Q 266 969 266 2259 
z
M 844 2259 
Q 844 1131 1108 757 
Q 1372 384 1759 384 
Q 2147 384 2411 759 
Q 2675 1134 2675 2259 
Q 2675 3391 2411 3762 
Q 2147 4134 1753 4134 
Q 1366 4134 1134 3806 
Q 844 3388 844 2259 
z
" transform="scale(0.015625)"/>
        <path id="ArialMT-37" d="M 303 3981 
L 303 4522 
L 3269 4522 
L 3269 4084 
Q 2831 3619 2401 2847 
Q 1972 2075 1738 1259 
Q 1569 684 1522 0 
L 944 0 
Q 953 541 1156 1306 
Q 1359 2072 1739 2783 
Q 2119 3494 2547 3981 
L 303 3981 
z
" transform="scale(0.015625)"/>
       </defs>
       <use xlink:href="#ArialMT-32"/>
       <use xlink:href="#ArialMT-30" x="55.615234"/>
       <use xlink:href="#ArialMT-30" x="111.230469"/>
       <use xlink:href="#ArialMT-37" x="166.845703"/>
      </g>
     </g>
    </g>
    <g id="xtick_2">
     <g id="line2d_3">
      <path d="M 198.57514 620.84 
L 198.57514 25.490625 
" clip-path="url(#p1129777af4)" style="fill: none; stroke: #ffffff; stroke-linecap: round"/>
     </g>
     <g id="line2d_4"/>
     <g id="text_2">
      <!-- 2008 -->
      <g style="fill: #262626" transform="translate(187.453265 634.997813) scale(0.1 -0.1)">
       <defs>
        <path id="ArialMT-38" d="M 1131 2484 
Q 781 2613 612 2850 
Q 444 3088 444 3419 
Q 444 3919 803 4259 
Q 1163 4600 1759 4600 
Q 2359 4600 2725 4251 
Q 3091 3903 3091 3403 
Q 3091 3084 2923 2848 
Q 2756 2613 2416 2484 
Q 2838 2347 3058 2040 
Q 3278 1734 3278 1309 
Q 3278 722 2862 322 
Q 2447 -78 1769 -78 
Q 1091 -78 675 323 
Q 259 725 259 1325 
Q 259 1772 486 2073 
Q 713 2375 1131 2484 
z
M 1019 3438 
Q 1019 3113 1228 2906 
Q 1438 2700 1772 2700 
Q 2097 2700 2305 2904 
Q 2513 3109 2513 3406 
Q 2513 3716 2298 3927 
Q 2084 4138 1766 4138 
Q 1444 4138 1231 3931 
Q 1019 3725 1019 3438 
z
M 838 1322 
Q 838 1081 952 856 
Q 1066 631 1291 507 
Q 1516 384 1775 384 
Q 2178 384 2440 643 
Q 2703 903 2703 1303 
Q 2703 1709 2433 1975 
Q 2163 2241 1756 2241 
Q 1359 2241 1098 1978 
Q 838 1716 838 1322 
z
" transform="scale(0.015625)"/>
       </defs>
       <use xlink:href="#ArialMT-32"/>
       <use xlink:href="#ArialMT-30" x="55.615234"/>
       <use xlink:href="#ArialMT-30" x="111.230469"/>
       <use xlink:href="#ArialMT-38" x="166.845703"/>
      </g>
     </g>
    </g>
    <g id="xtick_3">
     <g id="line2d_5">
      <path d="M 276.836323 620.84 
L 276.836323 25.490625 
" clip-path="url(#p1129777af4)" style="fill: none; stroke: #ffffff; stroke-linecap: round"/>
     </g>
     <g id="line2d_6"/>
     <g id="text_3">
      <!-- 2009 -->
      <g style="fill: #262626" transform="translate(265.714448 634.997813) scale(0.1 -0.1)">
       <defs>
        <path id="ArialMT-39" d="M 350 1059 
L 891 1109 
Q 959 728 1153 556 
Q 1347 384 1650 384 
Q 1909 384 2104 503 
Q 2300 622 2425 820 
Q 2550 1019 2634 1356 
Q 2719 1694 2719 2044 
Q 2719 2081 2716 2156 
Q 2547 1888 2255 1720 
Q 1963 1553 1622 1553 
Q 1053 1553 659 1965 
Q 266 2378 266 3053 
Q 266 3750 677 4175 
Q 1088 4600 1706 4600 
Q 2153 4600 2523 4359 
Q 2894 4119 3086 3673 
Q 3278 3228 3278 2384 
Q 3278 1506 3087 986 
Q 2897 466 2520 194 
Q 2144 -78 1638 -78 
Q 1100 -78 759 220 
Q 419 519 350 1059 
z
M 2653 3081 
Q 2653 3566 2395 3850 
Q 2138 4134 1775 4134 
Q 1400 4134 1122 3828 
Q 844 3522 844 3034 
Q 844 2597 1108 2323 
Q 1372 2050 1759 2050 
Q 2150 2050 2401 2323 
Q 2653 2597 2653 3081 
z
" transform="scale(0.015625)"/>
       </defs>
       <use xlink:href="#ArialMT-32"/>
       <use xlink:href="#ArialMT-30" x="55.615234"/>
       <use xlink:href="#ArialMT-30" x="111.230469"/>
       <use xlink:href="#ArialMT-39" x="166.845703"/>
      </g>
     </g>
    </g>
    <g id="xtick_4">
     <g id="line2d_7">
      <path d="M 354.883678 620.84 
L 354.883678 25.490625 
" clip-path="url(#p1129777af4)" style="fill: none; stroke: #ffffff; stroke-linecap: round"/>
     </g>
     <g id="line2d_8"/>
     <g id="text_4">
      <!-- 2010 -->
      <g style="fill: #262626" transform="translate(343.761803 634.997813) scale(0.1 -0.1)">
       <defs>
        <path id="ArialMT-31" d="M 2384 0 
L 1822 0 
L 1822 3584 
Q 1619 3391 1289 3197 
Q 959 3003 697 2906 
L 697 3450 
Q 1169 3672 1522 3987 
Q 1875 4303 2022 4600 
L 2384 4600 
L 2384 0 
z
" transform="scale(0.015625)"/>
       </defs>
       <use xlink:href="#ArialMT-32"/>
       <use xlink:href="#ArialMT-30" x="55.615234"/>
       <use xlink:href="#ArialMT-31" x="111.230469"/>
       <use xlink:href="#ArialMT-30" x="166.845703"/>
      </g>
     </g>
    </g>
    <g id="xtick_5">
     <g id="line2d_9">
      <path d="M 432.931033 620.84 
L 432.931033 25.490625 
" clip-path="url(#p1129777af4)" style="fill: none; stroke: #ffffff; stroke-linecap: round"/>
     </g>
     <g id="line2d_10"/>
     <g id="text_5">
      <!-- 2011 -->
      <g style="fill: #262626" transform="translate(422.177908 634.997813) scale(0.1 -0.1)">
       <use xlink:href="#ArialMT-32"/>
       <use xlink:href="#ArialMT-30" x="55.615234"/>
       <use xlink:href="#ArialMT-31" x="111.230469"/>
       <use xlink:href="#ArialMT-31" x="159.470703"/>
      </g>
     </g>
    </g>
    <g id="xtick_6">
     <g id="line2d_11">
      <path d="M 510.978387 620.84 
L 510.978387 25.490625 
" clip-path="url(#p1129777af4)" style="fill: none; stroke: #ffffff; stroke-linecap: round"/>
     </g>
     <g id="line2d_12"/>
     <g id="text_6">
      <!-- 2012 -->
      <g style="fill: #262626" transform="translate(499.856512 634.997813) scale(0.1 -0.1)">
       <use xlink:href="#ArialMT-32"/>
       <use xlink:href="#ArialMT-30" x="55.615234"/>
       <use xlink:href="#ArialMT-31" x="111.230469"/>
       <use xlink:href="#ArialMT-32" x="166.845703"/>
      </g>
     </g>
    </g>
    <g id="xtick_7">
     <g id="line2d_13">
      <path d="M 589.23957 620.84 
L 589.23957 25.490625 
" clip-path="url(#p1129777af4)" style="fill: none; stroke: #ffffff; stroke-linecap: round"/>
     </g>
     <g id="line2d_14"/>
     <g id="text_7">
      <!-- 2013 -->
      <g style="fill: #262626" transform="translate(578.117695 634.997813) scale(0.1 -0.1)">
       <defs>
        <path id="ArialMT-33" d="M 269 1209 
L 831 1284 
Q 928 806 1161 595 
Q 1394 384 1728 384 
Q 2125 384 2398 659 
Q 2672 934 2672 1341 
Q 2672 1728 2419 1979 
Q 2166 2231 1775 2231 
Q 1616 2231 1378 2169 
L 1441 2663 
Q 1497 2656 1531 2656 
Q 1891 2656 2178 2843 
Q 2466 3031 2466 3422 
Q 2466 3731 2256 3934 
Q 2047 4138 1716 4138 
Q 1388 4138 1169 3931 
Q 950 3725 888 3313 
L 325 3413 
Q 428 3978 793 4289 
Q 1159 4600 1703 4600 
Q 2078 4600 2393 4439 
Q 2709 4278 2876 4000 
Q 3044 3722 3044 3409 
Q 3044 3113 2884 2869 
Q 2725 2625 2413 2481 
Q 2819 2388 3044 2092 
Q 3269 1797 3269 1353 
Q 3269 753 2831 336 
Q 2394 -81 1725 -81 
Q 1122 -81 723 278 
Q 325 638 269 1209 
z
" transform="scale(0.015625)"/>
       </defs>
       <use xlink:href="#ArialMT-32"/>
       <use xlink:href="#ArialMT-30" x="55.615234"/>
       <use xlink:href="#ArialMT-31" x="111.230469"/>
       <use xlink:href="#ArialMT-33" x="166.845703"/>
      </g>
     </g>
    </g>
    <g id="xtick_8">
     <g id="line2d_15">
      <path d="M 667.286925 620.84 
L 667.286925 25.490625 
" clip-path="url(#p1129777af4)" style="fill: none; stroke: #ffffff; stroke-linecap: round"/>
     </g>
     <g id="line2d_16"/>
     <g id="text_8">
      <!-- 2014 -->
      <g style="fill: #262626" transform="translate(656.16505 634.997813) scale(0.1 -0.1)">
       <defs>
        <path id="ArialMT-34" d="M 2069 0 
L 2069 1097 
L 81 1097 
L 81 1613 
L 2172 4581 
L 2631 4581 
L 2631 1613 
L 3250 1613 
L 3250 1097 
L 2631 1097 
L 2631 0 
L 2069 0 
z
M 2069 1613 
L 2069 3678 
L 634 1613 
L 2069 1613 
z
" transform="scale(0.015625)"/>
       </defs>
       <use xlink:href="#ArialMT-32"/>
       <use xlink:href="#ArialMT-30" x="55.615234"/>
       <use xlink:href="#ArialMT-31" x="111.230469"/>
       <use xlink:href="#ArialMT-34" x="166.845703"/>
      </g>
     </g>
    </g>
    <g id="xtick_9">
     <g id="line2d_17">
      <path d="M 745.334279 620.84 
L 745.334279 25.490625 
" clip-path="url(#p1129777af4)" style="fill: none; stroke: #ffffff; stroke-linecap: round"/>
     </g>
     <g id="line2d_18"/>
     <g id="text_9">
      <!-- 2015 -->
      <g style="fill: #262626" transform="translate(734.212404 634.997813) scale(0.1 -0.1)">
       <defs>
        <path id="ArialMT-35" d="M 266 1200 
L 856 1250 
Q 922 819 1161 601 
Q 1400 384 1738 384 
Q 2144 384 2425 690 
Q 2706 997 2706 1503 
Q 2706 1984 2436 2262 
Q 2166 2541 1728 2541 
Q 1456 2541 1237 2417 
Q 1019 2294 894 2097 
L 366 2166 
L 809 4519 
L 3088 4519 
L 3088 3981 
L 1259 3981 
L 1013 2750 
Q 1425 3038 1878 3038 
Q 2478 3038 2890 2622 
Q 3303 2206 3303 1553 
Q 3303 931 2941 478 
Q 2500 -78 1738 -78 
Q 1113 -78 717 272 
Q 322 622 266 1200 
z
" transform="scale(0.015625)"/>
       </defs>
       <use xlink:href="#ArialMT-32"/>
       <use xlink:href="#ArialMT-30" x="55.615234"/>
       <use xlink:href="#ArialMT-31" x="111.230469"/>
       <use xlink:href="#ArialMT-35" x="166.845703"/>
      </g>
     </g>
    </g>
    <g id="xtick_10">
     <g id="line2d_19">
      <path d="M 823.381634 620.84 
L 823.381634 25.490625 
" clip-path="url(#p1129777af4)" style="fill: none; stroke: #ffffff; stroke-linecap: round"/>
     </g>
     <g id="line2d_20"/>
     <g id="text_10">
      <!-- 2016 -->
      <g style="fill: #262626" transform="translate(812.259759 634.997813) scale(0.1 -0.1)">
       <defs>
        <path id="ArialMT-36" d="M 3184 3459 
L 2625 3416 
Q 2550 3747 2413 3897 
Q 2184 4138 1850 4138 
Q 1581 4138 1378 3988 
Q 1113 3794 959 3422 
Q 806 3050 800 2363 
Q 1003 2672 1297 2822 
Q 1591 2972 1913 2972 
Q 2475 2972 2870 2558 
Q 3266 2144 3266 1488 
Q 3266 1056 3080 686 
Q 2894 316 2569 119 
Q 2244 -78 1831 -78 
Q 1128 -78 684 439 
Q 241 956 241 2144 
Q 241 3472 731 4075 
Q 1159 4600 1884 4600 
Q 2425 4600 2770 4297 
Q 3116 3994 3184 3459 
z
M 888 1484 
Q 888 1194 1011 928 
Q 1134 663 1356 523 
Q 1578 384 1822 384 
Q 2178 384 2434 671 
Q 2691 959 2691 1453 
Q 2691 1928 2437 2201 
Q 2184 2475 1800 2475 
Q 1419 2475 1153 2201 
Q 888 1928 888 1484 
z
" transform="scale(0.015625)"/>
       </defs>
       <use xlink:href="#ArialMT-32"/>
       <use xlink:href="#ArialMT-30" x="55.615234"/>
       <use xlink:href="#ArialMT-31" x="111.230469"/>
       <use xlink:href="#ArialMT-36" x="166.845703"/>
      </g>
     </g>
    </g>
   </g>
   <g id="matplotlib.axis_2">
    <g id="ytick_1">
     <g id="line2d_21">
      <path d="M 51.365 601.449247 
L 853.2 601.449247 
" clip-path="url(#p1129777af4)" style="fill: none; stroke: #ffffff; stroke-linecap: round"/>
     </g>
     <g id="line2d_22"/>
     <g id="text_11">
      <!-- 1.25 -->
      <g style="fill: #262626" transform="translate(24.904063 605.028153) scale(0.1 -0.1)">
       <defs>
        <path id="ArialMT-2e" d="M 581 0 
L 581 641 
L 1222 641 
L 1222 0 
L 581 0 
z
" transform="scale(0.015625)"/>
       </defs>
       <use xlink:href="#ArialMT-31"/>
       <use xlink:href="#ArialMT-2e" x="55.615234"/>
       <use xlink:href="#ArialMT-32" x="83.398438"/>
       <use xlink:href="#ArialMT-35" x="139.013672"/>
      </g>
     </g>
    </g>
    <g id="ytick_2">
     <g id="line2d_23">
      <path d="M 51.365 533.642394 
L 853.2 533.642394 
" clip-path="url(#p1129777af4)" style="fill: none; stroke: #ffffff; stroke-linecap: round"/>
     </g>
     <g id="line2d_24"/>
     <g id="text_12">
      <!-- 1.50 -->
      <g style="fill: #262626" transform="translate(24.904063 537.221301) scale(0.1 -0.1)">
       <use xlink:href="#ArialMT-31"/>
       <use xlink:href="#ArialMT-2e" x="55.615234"/>
       <use xlink:href="#ArialMT-35" x="83.398438"/>
       <use xlink:href="#ArialMT-30" x="139.013672"/>
      </g>
     </g>
    </g>
    <g id="ytick_3">
     <g id="line2d_25">
      <path d="M 51.365 465.835542 
L 853.2 465.835542 
" clip-path="url(#p1129777af4)" style="fill: none; stroke: #ffffff; stroke-linecap: round"/>
     </g>
     <g id="line2d_26"/>
     <g id="text_13">
      <!-- 1.75 -->
      <g style="fill: #262626" transform="translate(24.904063 469.414448) scale(0.1 -0.1)">
       <use xlink:href="#ArialMT-31"/>
       <use xlink:href="#ArialMT-2e" x="55.615234"/>
       <use xlink:href="#ArialMT-37" x="83.398438"/>
       <use xlink:href="#ArialMT-35" x="139.013672"/>
      </g>
     </g>
    </g>
    <g id="ytick_4">
     <g id="line2d_27">
      <path d="M 51.365 398.028689 
L 853.2 398.028689 
" clip-path="url(#p1129777af4)" style="fill: none; stroke: #ffffff; stroke-linecap: round"/>
     </g>
     <g id="line2d_28"/>
     <g id="text_14">
      <!-- 2.00 -->
      <g style="fill: #262626" transform="translate(24.904063 401.607595) scale(0.1 -0.1)">
       <use xlink:href="#ArialMT-32"/>
       <use xlink:href="#ArialMT-2e" x="55.615234"/>
       <use xlink:href="#ArialMT-30" x="83.398438"/>
       <use xlink:href="#ArialMT-30" x="139.013672"/>
      </g>
     </g>
    </g>
    <g id="ytick_5">
     <g id="line2d_29">
      <path d="M 51.365 330.221836 
L 853.2 330.221836 
" clip-path="url(#p1129777af4)" style="fill: none; stroke: #ffffff; stroke-linecap: round"/>
     </g>
     <g id="line2d_30"/>
     <g id="text_15">
      <!-- 2.25 -->
      <g style="fill: #262626" transform="translate(24.904063 333.800742) scale(0.1 -0.1)">
       <use xlink:href="#ArialMT-32"/>
       <use xlink:href="#ArialMT-2e" x="55.615234"/>
       <use xlink:href="#ArialMT-32" x="83.398438"/>
       <use xlink:href="#ArialMT-35" x="139.013672"/>
      </g>
     </g>
    </g>
    <g id="ytick_6">
     <g id="line2d_31">
      <path d="M 51.365 262.414983 
L 853.2 262.414983 
" clip-path="url(#p1129777af4)" style="fill: none; stroke: #ffffff; stroke-linecap: round"/>
     </g>
     <g id="line2d_32"/>
     <g id="text_16">
      <!-- 2.50 -->
      <g style="fill: #262626" transform="translate(24.904063 265.99389) scale(0.1 -0.1)">
       <use xlink:href="#ArialMT-32"/>
       <use xlink:href="#ArialMT-2e" x="55.615234"/>
       <use xlink:href="#ArialMT-35" x="83.398438"/>
       <use xlink:href="#ArialMT-30" x="139.013672"/>
      </g>
     </g>
    </g>
    <g id="ytick_7">
     <g id="line2d_33">
      <path d="M 51.365 194.60813 
L 853.2 194.60813 
" clip-path="url(#p1129777af4)" style="fill: none; stroke: #ffffff; stroke-linecap: round"/>
     </g>
     <g id="line2d_34"/>
     <g id="text_17">
      <!-- 2.75 -->
      <g style="fill: #262626" transform="translate(24.904063 198.187037) scale(0.1 -0.1)">
       <use xlink:href="#ArialMT-32"/>
       <use xlink:href="#ArialMT-2e" x="55.615234"/>
       <use xlink:href="#ArialMT-37" x="83.398438"/>
       <use xlink:href="#ArialMT-35" x="139.013672"/>
      </g>
     </g>
    </g>
    <g id="ytick_8">
     <g id="line2d_35">
      <path d="M 51.365 126.801278 
L 853.2 126.801278 
" clip-path="url(#p1129777af4)" style="fill: none; stroke: #ffffff; stroke-linecap: round"/>
     </g>
     <g id="line2d_36"/>
     <g id="text_18">
      <!-- 3.00 -->
      <g style="fill: #262626" transform="translate(24.904063 130.380184) scale(0.1 -0.1)">
       <use xlink:href="#ArialMT-33"/>
       <use xlink:href="#ArialMT-2e" x="55.615234"/>
       <use xlink:href="#ArialMT-30" x="83.398438"/>
       <use xlink:href="#ArialMT-30" x="139.013672"/>
      </g>
     </g>
    </g>
    <g id="ytick_9">
     <g id="line2d_37">
      <path d="M 51.365 58.994425 
L 853.2 58.994425 
" clip-path="url(#p1129777af4)" style="fill: none; stroke: #ffffff; stroke-linecap: round"/>
     </g>
     <g id="line2d_38"/>
     <g id="text_19">
      <!-- 3.25 -->
      <g style="fill: #262626" transform="translate(24.904063 62.573331) scale(0.1 -0.1)">
       <use xlink:href="#ArialMT-33"/>
       <use xlink:href="#ArialMT-2e" x="55.615234"/>
       <use xlink:href="#ArialMT-32" x="83.398438"/>
       <use xlink:href="#ArialMT-35" x="139.013672"/>
      </g>
     </g>
    </g>
    <g id="text_20">
     <!-- International Passengers Differenced -->
     <g style="fill: #262626" transform="translate(18.588906 413.560391) rotate(-90) scale(0.11 -0.11)">
      <defs>
       <path id="ArialMT-49" d="M 597 0 
L 597 4581 
L 1203 4581 
L 1203 0 
L 597 0 
z
" transform="scale(0.015625)"/>
       <path id="ArialMT-6e" d="M 422 0 
L 422 3319 
L 928 3319 
L 928 2847 
Q 1294 3394 1984 3394 
Q 2284 3394 2536 3286 
Q 2788 3178 2913 3003 
Q 3038 2828 3088 2588 
Q 3119 2431 3119 2041 
L 3119 0 
L 2556 0 
L 2556 2019 
Q 2556 2363 2490 2533 
Q 2425 2703 2258 2804 
Q 2091 2906 1866 2906 
Q 1506 2906 1245 2678 
Q 984 2450 984 1813 
L 984 0 
L 422 0 
z
" transform="scale(0.015625)"/>
       <path id="ArialMT-74" d="M 1650 503 
L 1731 6 
Q 1494 -44 1306 -44 
Q 1000 -44 831 53 
Q 663 150 594 308 
Q 525 466 525 972 
L 525 2881 
L 113 2881 
L 113 3319 
L 525 3319 
L 525 4141 
L 1084 4478 
L 1084 3319 
L 1650 3319 
L 1650 2881 
L 1084 2881 
L 1084 941 
Q 1084 700 1114 631 
Q 1144 563 1211 522 
Q 1278 481 1403 481 
Q 1497 481 1650 503 
z
" transform="scale(0.015625)"/>
       <path id="ArialMT-65" d="M 2694 1069 
L 3275 997 
Q 3138 488 2766 206 
Q 2394 -75 1816 -75 
Q 1088 -75 661 373 
Q 234 822 234 1631 
Q 234 2469 665 2931 
Q 1097 3394 1784 3394 
Q 2450 3394 2872 2941 
Q 3294 2488 3294 1666 
Q 3294 1616 3291 1516 
L 816 1516 
Q 847 969 1125 678 
Q 1403 388 1819 388 
Q 2128 388 2347 550 
Q 2566 713 2694 1069 
z
M 847 1978 
L 2700 1978 
Q 2663 2397 2488 2606 
Q 2219 2931 1791 2931 
Q 1403 2931 1139 2672 
Q 875 2413 847 1978 
z
" transform="scale(0.015625)"/>
       <path id="ArialMT-72" d="M 416 0 
L 416 3319 
L 922 3319 
L 922 2816 
Q 1116 3169 1280 3281 
Q 1444 3394 1641 3394 
Q 1925 3394 2219 3213 
L 2025 2691 
Q 1819 2813 1613 2813 
Q 1428 2813 1281 2702 
Q 1134 2591 1072 2394 
Q 978 2094 978 1738 
L 978 0 
L 416 0 
z
" transform="scale(0.015625)"/>
       <path id="ArialMT-61" d="M 2588 409 
Q 2275 144 1986 34 
Q 1697 -75 1366 -75 
Q 819 -75 525 192 
Q 231 459 231 875 
Q 231 1119 342 1320 
Q 453 1522 633 1644 
Q 813 1766 1038 1828 
Q 1203 1872 1538 1913 
Q 2219 1994 2541 2106 
Q 2544 2222 2544 2253 
Q 2544 2597 2384 2738 
Q 2169 2928 1744 2928 
Q 1347 2928 1158 2789 
Q 969 2650 878 2297 
L 328 2372 
Q 403 2725 575 2942 
Q 747 3159 1072 3276 
Q 1397 3394 1825 3394 
Q 2250 3394 2515 3294 
Q 2781 3194 2906 3042 
Q 3031 2891 3081 2659 
Q 3109 2516 3109 2141 
L 3109 1391 
Q 3109 606 3145 398 
Q 3181 191 3288 0 
L 2700 0 
Q 2613 175 2588 409 
z
M 2541 1666 
Q 2234 1541 1622 1453 
Q 1275 1403 1131 1340 
Q 988 1278 909 1158 
Q 831 1038 831 891 
Q 831 666 1001 516 
Q 1172 366 1500 366 
Q 1825 366 2078 508 
Q 2331 650 2450 897 
Q 2541 1088 2541 1459 
L 2541 1666 
z
" transform="scale(0.015625)"/>
       <path id="ArialMT-69" d="M 425 3934 
L 425 4581 
L 988 4581 
L 988 3934 
L 425 3934 
z
M 425 0 
L 425 3319 
L 988 3319 
L 988 0 
L 425 0 
z
" transform="scale(0.015625)"/>
       <path id="ArialMT-6f" d="M 213 1659 
Q 213 2581 725 3025 
Q 1153 3394 1769 3394 
Q 2453 3394 2887 2945 
Q 3322 2497 3322 1706 
Q 3322 1066 3130 698 
Q 2938 331 2570 128 
Q 2203 -75 1769 -75 
Q 1072 -75 642 372 
Q 213 819 213 1659 
z
M 791 1659 
Q 791 1022 1069 705 
Q 1347 388 1769 388 
Q 2188 388 2466 706 
Q 2744 1025 2744 1678 
Q 2744 2294 2464 2611 
Q 2184 2928 1769 2928 
Q 1347 2928 1069 2612 
Q 791 2297 791 1659 
z
" transform="scale(0.015625)"/>
       <path id="ArialMT-6c" d="M 409 0 
L 409 4581 
L 972 4581 
L 972 0 
L 409 0 
z
" transform="scale(0.015625)"/>
       <path id="ArialMT-20" transform="scale(0.015625)"/>
       <path id="ArialMT-50" d="M 494 0 
L 494 4581 
L 2222 4581 
Q 2678 4581 2919 4538 
Q 3256 4481 3484 4323 
Q 3713 4166 3852 3881 
Q 3991 3597 3991 3256 
Q 3991 2672 3619 2267 
Q 3247 1863 2275 1863 
L 1100 1863 
L 1100 0 
L 494 0 
z
M 1100 2403 
L 2284 2403 
Q 2872 2403 3119 2622 
Q 3366 2841 3366 3238 
Q 3366 3525 3220 3729 
Q 3075 3934 2838 4000 
Q 2684 4041 2272 4041 
L 1100 4041 
L 1100 2403 
z
" transform="scale(0.015625)"/>
       <path id="ArialMT-73" d="M 197 991 
L 753 1078 
Q 800 744 1014 566 
Q 1228 388 1613 388 
Q 2000 388 2187 545 
Q 2375 703 2375 916 
Q 2375 1106 2209 1216 
Q 2094 1291 1634 1406 
Q 1016 1563 777 1677 
Q 538 1791 414 1992 
Q 291 2194 291 2438 
Q 291 2659 392 2848 
Q 494 3038 669 3163 
Q 800 3259 1026 3326 
Q 1253 3394 1513 3394 
Q 1903 3394 2198 3281 
Q 2494 3169 2634 2976 
Q 2775 2784 2828 2463 
L 2278 2388 
Q 2241 2644 2061 2787 
Q 1881 2931 1553 2931 
Q 1166 2931 1000 2803 
Q 834 2675 834 2503 
Q 834 2394 903 2306 
Q 972 2216 1119 2156 
Q 1203 2125 1616 2013 
Q 2213 1853 2448 1751 
Q 2684 1650 2818 1456 
Q 2953 1263 2953 975 
Q 2953 694 2789 445 
Q 2625 197 2315 61 
Q 2006 -75 1616 -75 
Q 969 -75 630 194 
Q 291 463 197 991 
z
" transform="scale(0.015625)"/>
       <path id="ArialMT-67" d="M 319 -275 
L 866 -356 
Q 900 -609 1056 -725 
Q 1266 -881 1628 -881 
Q 2019 -881 2231 -725 
Q 2444 -569 2519 -288 
Q 2563 -116 2559 434 
Q 2191 0 1641 0 
Q 956 0 581 494 
Q 206 988 206 1678 
Q 206 2153 378 2554 
Q 550 2956 876 3175 
Q 1203 3394 1644 3394 
Q 2231 3394 2613 2919 
L 2613 3319 
L 3131 3319 
L 3131 450 
Q 3131 -325 2973 -648 
Q 2816 -972 2473 -1159 
Q 2131 -1347 1631 -1347 
Q 1038 -1347 672 -1080 
Q 306 -813 319 -275 
z
M 784 1719 
Q 784 1066 1043 766 
Q 1303 466 1694 466 
Q 2081 466 2343 764 
Q 2606 1063 2606 1700 
Q 2606 2309 2336 2618 
Q 2066 2928 1684 2928 
Q 1309 2928 1046 2623 
Q 784 2319 784 1719 
z
" transform="scale(0.015625)"/>
       <path id="ArialMT-44" d="M 494 0 
L 494 4581 
L 2072 4581 
Q 2606 4581 2888 4516 
Q 3281 4425 3559 4188 
Q 3922 3881 4101 3404 
Q 4281 2928 4281 2316 
Q 4281 1794 4159 1391 
Q 4038 988 3847 723 
Q 3656 459 3429 307 
Q 3203 156 2883 78 
Q 2563 0 2147 0 
L 494 0 
z
M 1100 541 
L 2078 541 
Q 2531 541 2789 625 
Q 3047 709 3200 863 
Q 3416 1078 3536 1442 
Q 3656 1806 3656 2325 
Q 3656 3044 3420 3430 
Q 3184 3816 2847 3947 
Q 2603 4041 2063 4041 
L 1100 4041 
L 1100 541 
z
" transform="scale(0.015625)"/>
       <path id="ArialMT-66" d="M 556 0 
L 556 2881 
L 59 2881 
L 59 3319 
L 556 3319 
L 556 3672 
Q 556 4006 616 4169 
Q 697 4388 901 4523 
Q 1106 4659 1475 4659 
Q 1713 4659 2000 4603 
L 1916 4113 
Q 1741 4144 1584 4144 
Q 1328 4144 1222 4034 
Q 1116 3925 1116 3625 
L 1116 3319 
L 1763 3319 
L 1763 2881 
L 1116 2881 
L 1116 0 
L 556 0 
z
" transform="scale(0.015625)"/>
       <path id="ArialMT-63" d="M 2588 1216 
L 3141 1144 
Q 3050 572 2676 248 
Q 2303 -75 1759 -75 
Q 1078 -75 664 370 
Q 250 816 250 1647 
Q 250 2184 428 2587 
Q 606 2991 970 3192 
Q 1334 3394 1763 3394 
Q 2303 3394 2647 3120 
Q 2991 2847 3088 2344 
L 2541 2259 
Q 2463 2594 2264 2762 
Q 2066 2931 1784 2931 
Q 1359 2931 1093 2626 
Q 828 2322 828 1663 
Q 828 994 1084 691 
Q 1341 388 1753 388 
Q 2084 388 2306 591 
Q 2528 794 2588 1216 
z
" transform="scale(0.015625)"/>
       <path id="ArialMT-64" d="M 2575 0 
L 2575 419 
Q 2259 -75 1647 -75 
Q 1250 -75 917 144 
Q 584 363 401 755 
Q 219 1147 219 1656 
Q 219 2153 384 2558 
Q 550 2963 881 3178 
Q 1213 3394 1622 3394 
Q 1922 3394 2156 3267 
Q 2391 3141 2538 2938 
L 2538 4581 
L 3097 4581 
L 3097 0 
L 2575 0 
z
M 797 1656 
Q 797 1019 1065 703 
Q 1334 388 1700 388 
Q 2069 388 2326 689 
Q 2584 991 2584 1609 
Q 2584 2291 2321 2609 
Q 2059 2928 1675 2928 
Q 1300 2928 1048 2622 
Q 797 2316 797 1656 
z
" transform="scale(0.015625)"/>
      </defs>
      <use xlink:href="#ArialMT-49"/>
      <use xlink:href="#ArialMT-6e" x="27.783203"/>
      <use xlink:href="#ArialMT-74" x="83.398438"/>
      <use xlink:href="#ArialMT-65" x="111.181641"/>
      <use xlink:href="#ArialMT-72" x="166.796875"/>
      <use xlink:href="#ArialMT-6e" x="200.097656"/>
      <use xlink:href="#ArialMT-61" x="255.712891"/>
      <use xlink:href="#ArialMT-74" x="311.328125"/>
      <use xlink:href="#ArialMT-69" x="339.111328"/>
      <use xlink:href="#ArialMT-6f" x="361.328125"/>
      <use xlink:href="#ArialMT-6e" x="416.943359"/>
      <use xlink:href="#ArialMT-61" x="472.558594"/>
      <use xlink:href="#ArialMT-6c" x="528.173828"/>
      <use xlink:href="#ArialMT-20" x="550.390625"/>
      <use xlink:href="#ArialMT-50" x="578.173828"/>
      <use xlink:href="#ArialMT-61" x="644.873047"/>
      <use xlink:href="#ArialMT-73" x="700.488281"/>
      <use xlink:href="#ArialMT-73" x="750.488281"/>
      <use xlink:href="#ArialMT-65" x="800.488281"/>
      <use xlink:href="#ArialMT-6e" x="856.103516"/>
      <use xlink:href="#ArialMT-67" x="911.71875"/>
      <use xlink:href="#ArialMT-65" x="967.333984"/>
      <use xlink:href="#ArialMT-72" x="1022.949219"/>
      <use xlink:href="#ArialMT-73" x="1056.25"/>
      <use xlink:href="#ArialMT-20" x="1106.25"/>
      <use xlink:href="#ArialMT-44" x="1134.033203"/>
      <use xlink:href="#ArialMT-69" x="1206.25"/>
      <use xlink:href="#ArialMT-66" x="1228.466797"/>
      <use xlink:href="#ArialMT-66" x="1254.5"/>
      <use xlink:href="#ArialMT-65" x="1282.283203"/>
      <use xlink:href="#ArialMT-72" x="1337.898438"/>
      <use xlink:href="#ArialMT-65" x="1371.199219"/>
      <use xlink:href="#ArialMT-6e" x="1426.814453"/>
      <use xlink:href="#ArialMT-63" x="1482.429688"/>
      <use xlink:href="#ArialMT-65" x="1532.429688"/>
      <use xlink:href="#ArialMT-64" x="1588.044922"/>
     </g>
    </g>
    <g id="text_21">
     <!-- 1e6 -->
     <g style="fill: #262626" transform="translate(51.365 22.490625) scale(0.1 -0.1)">
      <use xlink:href="#ArialMT-31"/>
      <use xlink:href="#ArialMT-65" x="55.615234"/>
      <use xlink:href="#ArialMT-36" x="111.230469"/>
     </g>
    </g>
   </g>
   <g id="line2d_39">
    <path d="M 87.812045 387.965338 
L 94.440725 485.382087 
L 100.855576 511.724507 
L 107.484255 547.179354 
L 113.899106 495.574542 
L 120.527786 518.755535 
L 127.156465 593.778665 
L 133.14366 487.828559 
L 139.772339 466.536664 
L 146.18719 454.254131 
L 152.81587 400.909124 
L 159.230721 337.897301 
L 165.8594 329.210971 
L 172.488079 442.893229 
L 178.902931 468.349548 
L 185.53161 496.930408 
L 191.946461 445.100748 
L 198.57514 482.438456 
L 205.20382 539.357698 
L 211.404843 433.403795 
L 218.033522 455.937097 
L 224.448373 406.426432 
L 231.077053 383.001063 
L 237.491904 312.704614 
L 244.120583 295.035233 
L 250.749262 440.799353 
L 257.164114 446.83579 
L 263.792793 504.505519 
L 270.207644 455.8758 
L 276.836323 508.123692 
L 283.465003 578.342299 
L 289.452197 501.694518 
L 296.080877 459.085234 
L 302.495728 452.299666 
L 309.124407 411.505979 
L 315.539258 329.446126 
L 322.167938 306.546395 
L 328.796617 424.497501 
L 335.211468 436.35719 
L 341.840148 499.588166 
L 348.254999 450.176769 
L 354.883678 498.257795 
L 361.512357 566.607916 
L 367.499552 469.588515 
L 374.128231 468.190067 
L 380.543082 397.696706 
L 387.171762 349.561978 
L 393.586613 274.238057 
L 400.215292 272.321564 
L 406.843972 393.166124 
L 413.258823 405.574507 
L 419.887502 473.079755 
L 426.302353 447.661135 
L 432.931033 478.72915 
L 439.559712 561.778712 
L 445.546906 452.300751 
L 452.175586 396.733849 
L 458.590437 373.200803 
L 465.219116 337.181531 
L 471.633967 256.402956 
L 478.262647 288.93126 
L 484.891326 376.276793 
L 491.306177 398.792736 
L 497.934857 466.804366 
L 504.349708 420.108499 
L 510.978387 466.668481 
L 517.607067 527.998694 
L 523.808089 424.263974 
L 530.436769 377.7124 
L 536.85162 363.416545 
L 543.480299 297.05208 
L 549.89515 227.067 
L 556.52383 212.380307 
L 563.152509 344.017818 
L 569.56736 415.560557 
L 576.19604 442.324193 
L 582.610891 391.169619 
L 589.23957 428.051393 
L 595.86825 521.01052 
L 601.855444 374.823014 
L 608.484123 387.410678 
L 614.898974 326.548332 
L 621.527654 265.143531 
L 627.942505 201.040017 
L 634.571184 175.576374 
L 641.199864 315.032559 
L 647.614715 339.02642 
L 654.243394 424.010376 
L 660.658245 329.432564 
L 667.286925 398.102463 
L 673.915604 495.567219 
L 679.902799 375.332108 
L 686.531478 312.013255 
L 692.946329 264.134023 
L 699.575008 227.464077 
L 705.98986 157.142132 
L 712.618539 108.824325 
L 719.247218 276.796817 
L 725.662069 303.404497 
L 732.290749 400.257093 
L 738.7056 319.149791 
L 745.334279 381.492767 
L 751.962959 474.359134 
L 757.950153 341.604979 
L 764.578833 294.55516 
L 770.993684 233.71614 
L 777.622363 188.337082 
L 784.037214 94.874557 
L 790.665894 52.55196 
L 797.294573 222.373952 
L 803.709424 242.949534 
L 810.338103 342.51332 
L 816.752955 274.145026 
" clip-path="url(#p1129777af4)" style="fill: none; stroke: #0000ff; stroke-width: 1.75; stroke-linecap: round"/>
   </g>
   <g id="line2d_40">
    <path d="M 87.812045 446.743136 
L 94.440725 522.969277 
L 100.855576 411.141493 
L 107.484255 383.626066 
L 113.899106 322.269313 
L 120.527786 292.893983 
L 127.156465 227.333838 
L 133.14366 201.73496 
L 139.772339 328.068687 
L 146.18719 347.110674 
L 152.81587 424.588519 
L 159.230721 379.517192 
L 165.8594 435.600868 
L 172.488079 504.027273 
L 178.902931 392.944294 
L 185.53161 369.551772 
L 191.946461 305.582471 
L 198.57514 280.059734 
L 205.20382 221.105088 
L 211.404843 196.907034 
L 218.033522 314.499447 
L 224.448373 335.371041 
L 231.077053 408.643123 
L 237.491904 369.99656 
L 244.120583 423.997246 
L 250.749262 485.022862 
L 257.164114 375.716434 
L 263.792793 354.855445 
L 270.207644 291.080579 
L 276.836323 267.990445 
L 283.465003 213.847391 
L 289.452197 189.851148 
L 296.080877 301.588531 
L 302.495728 323.828938 
L 309.124407 393.085937 
L 315.539258 359.249912 
L 322.167938 411.56201 
L 328.796617 465.741323 
L 335.211468 358.700266 
L 341.840148 339.752466 
L 348.254999 276.982375 
L 354.883678 255.711111 
L 361.512357 205.542369 
L 367.499552 181.853322 
L 374.128231 288.919671 
L 380.543082 312.002362 
L 387.171762 377.401071 
L 393.586613 347.728425 
L 400.215292 398.398402 
L 406.843972 446.254448 
L 413.258823 341.774004 
L 419.887502 324.359812 
L 426.302353 262.829569 
L 432.931033 243.085722 
L 439.559712 196.374447 
L 445.546906 173.289582 
L 452.175586 276.252522 
L 458.590437 299.760769 
L 465.219116 361.515876 
L 471.633967 335.611581 
L 478.262647 384.55648 
L 484.891326 426.592306 
L 491.306177 324.873166 
L 497.934857 308.694409 
L 504.349708 248.483119 
L 510.978387 230.099258 
L 517.607067 186.455396 
L 523.808089 164.245222 
L 530.436769 263.45035 
L 536.85162 287.072346 
L 543.480299 345.422481 
L 549.89515 322.958857 
L 556.52383 370.072108 
L 563.152509 406.767246 
L 569.56736 307.945455 
L 576.19604 292.750265 
L 582.610891 233.897776 
L 589.23957 216.751919 
L 595.86825 175.85352 
L 601.855444 154.733812 
L 608.484123 250.432535 
L 614.898974 273.931758 
L 621.527654 329.115484 
L 627.942505 309.789486 
L 634.571184 354.978152 
L 641.199864 386.783583 
L 647.614715 290.943909 
L 654.243394 276.518157 
L 660.658245 219.055228 
L 667.286925 203.042189 
L 673.915604 164.6169 
L 679.902799 144.753704 
L 686.531478 237.145594 
L 692.946329 260.339334 
L 699.575008 312.585468 
L 705.98986 296.110383 
L 712.618539 339.304714 
L 719.247218 366.640526 
L 725.662069 273.82611 
L 732.290749 259.989655 
L 738.7056 203.94395 
L 745.334279 188.966379 
L 751.962959 152.782684 
L 757.950153 134.300289 
L 764.578833 223.548954 
L 770.993684 246.295799 
L 777.622363 295.82018 
L 784.037214 281.924776 
L 790.665894 323.078139 
L 797.294573 346.333727 
L 803.709424 256.55399 
L 810.338103 243.157251 
L 816.752955 188.553535 
" clip-path="url(#p1129777af4)" style="fill: none; stroke: #ff0000; stroke-width: 1.75; stroke-linecap: round"/>
   </g>
   <g id="patch_3">
    <path d="M 51.365 620.84 
L 51.365 25.490625 
" style="fill: none"/>
   </g>
   <g id="patch_4">
    <path d="M 853.2 620.84 
L 853.2 25.490625 
" style="fill: none"/>
   </g>
   <g id="patch_5">
    <path d="M 51.365 620.84 
L 853.2 620.84 
" style="fill: none"/>
   </g>
   <g id="patch_6">
    <path d="M 51.365 25.490625 
L 853.2 25.490625 
" style="fill: none"/>
   </g>
   <g id="text_22">
    <g id="patch_7">
     <path d="M 91.45675 163.279437 
L 241.664875 163.279437 
Q 245.264875 163.279437 245.264875 159.679437 
L 245.264875 85.025562 
Q 245.264875 81.425562 241.664875 81.425562 
L 91.45675 81.425562 
Q 87.85675 81.425562 87.85675 85.025562 
L 87.85675 159.679437 
Q 87.85675 163.279437 91.45675 163.279437 
z
" style="fill: #fdf5e6; opacity: 0.5; stroke: #000000; stroke-width: 0.3; stroke-linejoin: miter"/>
    </g>
    <!-- MAE = 524468.798 -->
    <g style="fill: #262626" transform="translate(91.45675 93.614937) scale(0.12 -0.12)">
     <defs>
      <path id="ArialMT-4d" d="M 475 0 
L 475 4581 
L 1388 4581 
L 2472 1338 
Q 2622 884 2691 659 
Q 2769 909 2934 1394 
L 4031 4581 
L 4847 4581 
L 4847 0 
L 4263 0 
L 4263 3834 
L 2931 0 
L 2384 0 
L 1059 3900 
L 1059 0 
L 475 0 
z
" transform="scale(0.015625)"/>
      <path id="ArialMT-41" d="M -9 0 
L 1750 4581 
L 2403 4581 
L 4278 0 
L 3588 0 
L 3053 1388 
L 1138 1388 
L 634 0 
L -9 0 
z
M 1313 1881 
L 2866 1881 
L 2388 3150 
Q 2169 3728 2063 4100 
Q 1975 3659 1816 3225 
L 1313 1881 
z
" transform="scale(0.015625)"/>
      <path id="ArialMT-45" d="M 506 0 
L 506 4581 
L 3819 4581 
L 3819 4041 
L 1113 4041 
L 1113 2638 
L 3647 2638 
L 3647 2100 
L 1113 2100 
L 1113 541 
L 3925 541 
L 3925 0 
L 506 0 
z
" transform="scale(0.015625)"/>
      <path id="ArialMT-3d" d="M 3381 2694 
L 356 2694 
L 356 3219 
L 3381 3219 
L 3381 2694 
z
M 3381 1303 
L 356 1303 
L 356 1828 
L 3381 1828 
L 3381 1303 
z
" transform="scale(0.015625)"/>
     </defs>
     <use xlink:href="#ArialMT-4d"/>
     <use xlink:href="#ArialMT-41" x="83.300781"/>
     <use xlink:href="#ArialMT-45" x="150"/>
     <use xlink:href="#ArialMT-20" x="216.699219"/>
     <use xlink:href="#ArialMT-3d" x="244.482422"/>
     <use xlink:href="#ArialMT-20" x="302.880859"/>
     <use xlink:href="#ArialMT-35" x="330.664062"/>
     <use xlink:href="#ArialMT-32" x="386.279297"/>
     <use xlink:href="#ArialMT-34" x="441.894531"/>
     <use xlink:href="#ArialMT-34" x="497.509766"/>
     <use xlink:href="#ArialMT-36" x="553.125"/>
     <use xlink:href="#ArialMT-38" x="608.740234"/>
     <use xlink:href="#ArialMT-2e" x="664.355469"/>
     <use xlink:href="#ArialMT-37" x="692.138672"/>
     <use xlink:href="#ArialMT-39" x="747.753906"/>
     <use xlink:href="#ArialMT-38" x="803.369141"/>
    </g>
    <!-- MAPE = 28.441 -->
    <g style="fill: #262626" transform="translate(91.45675 106.307187) scale(0.12 -0.12)">
     <use xlink:href="#ArialMT-4d"/>
     <use xlink:href="#ArialMT-41" x="83.300781"/>
     <use xlink:href="#ArialMT-50" x="150"/>
     <use xlink:href="#ArialMT-45" x="216.699219"/>
     <use xlink:href="#ArialMT-20" x="283.398438"/>
     <use xlink:href="#ArialMT-3d" x="311.181641"/>
     <use xlink:href="#ArialMT-20" x="369.580078"/>
     <use xlink:href="#ArialMT-32" x="397.363281"/>
     <use xlink:href="#ArialMT-38" x="452.978516"/>
     <use xlink:href="#ArialMT-2e" x="508.59375"/>
     <use xlink:href="#ArialMT-34" x="536.376953"/>
     <use xlink:href="#ArialMT-34" x="591.992188"/>
     <use xlink:href="#ArialMT-31" x="647.607422"/>
    </g>
    <!-- MSE = 390446663689.763 -->
    <g style="fill: #262626" transform="translate(91.45675 118.999437) scale(0.12 -0.12)">
     <defs>
      <path id="ArialMT-53" d="M 288 1472 
L 859 1522 
Q 900 1178 1048 958 
Q 1197 738 1509 602 
Q 1822 466 2213 466 
Q 2559 466 2825 569 
Q 3091 672 3220 851 
Q 3350 1031 3350 1244 
Q 3350 1459 3225 1620 
Q 3100 1781 2813 1891 
Q 2628 1963 1997 2114 
Q 1366 2266 1113 2400 
Q 784 2572 623 2826 
Q 463 3081 463 3397 
Q 463 3744 659 4045 
Q 856 4347 1234 4503 
Q 1613 4659 2075 4659 
Q 2584 4659 2973 4495 
Q 3363 4331 3572 4012 
Q 3781 3694 3797 3291 
L 3216 3247 
Q 3169 3681 2898 3903 
Q 2628 4125 2100 4125 
Q 1550 4125 1298 3923 
Q 1047 3722 1047 3438 
Q 1047 3191 1225 3031 
Q 1400 2872 2139 2705 
Q 2878 2538 3153 2413 
Q 3553 2228 3743 1945 
Q 3934 1663 3934 1294 
Q 3934 928 3725 604 
Q 3516 281 3123 101 
Q 2731 -78 2241 -78 
Q 1619 -78 1198 103 
Q 778 284 539 648 
Q 300 1013 288 1472 
z
" transform="scale(0.015625)"/>
     </defs>
     <use xlink:href="#ArialMT-4d"/>
     <use xlink:href="#ArialMT-53" x="83.300781"/>
     <use xlink:href="#ArialMT-45" x="150"/>
     <use xlink:href="#ArialMT-20" x="216.699219"/>
     <use xlink:href="#ArialMT-3d" x="244.482422"/>
     <use xlink:href="#ArialMT-20" x="302.880859"/>
     <use xlink:href="#ArialMT-33" x="330.664062"/>
     <use xlink:href="#ArialMT-39" x="386.279297"/>
     <use xlink:href="#ArialMT-30" x="441.894531"/>
     <use xlink:href="#ArialMT-34" x="497.509766"/>
     <use xlink:href="#ArialMT-34" x="553.125"/>
     <use xlink:href="#ArialMT-36" x="608.740234"/>
     <use xlink:href="#ArialMT-36" x="664.355469"/>
     <use xlink:href="#ArialMT-36" x="719.970703"/>
     <use xlink:href="#ArialMT-33" x="775.585938"/>
     <use xlink:href="#ArialMT-36" x="831.201172"/>
     <use xlink:href="#ArialMT-38" x="886.816406"/>
     <use xlink:href="#ArialMT-39" x="942.431641"/>
     <use xlink:href="#ArialMT-2e" x="998.046875"/>
     <use xlink:href="#ArialMT-37" x="1025.830078"/>
     <use xlink:href="#ArialMT-36" x="1081.445312"/>
     <use xlink:href="#ArialMT-33" x="1137.060547"/>
    </g>
    <!-- RMSE = 624857.315 -->
    <g style="fill: #262626" transform="translate(91.45675 131.691687) scale(0.12 -0.12)">
     <defs>
      <path id="ArialMT-52" d="M 503 0 
L 503 4581 
L 2534 4581 
Q 3147 4581 3465 4457 
Q 3784 4334 3975 4021 
Q 4166 3709 4166 3331 
Q 4166 2844 3850 2509 
Q 3534 2175 2875 2084 
Q 3116 1969 3241 1856 
Q 3506 1613 3744 1247 
L 4541 0 
L 3778 0 
L 3172 953 
Q 2906 1366 2734 1584 
Q 2563 1803 2427 1890 
Q 2291 1978 2150 2013 
Q 2047 2034 1813 2034 
L 1109 2034 
L 1109 0 
L 503 0 
z
M 1109 2559 
L 2413 2559 
Q 2828 2559 3062 2645 
Q 3297 2731 3419 2920 
Q 3541 3109 3541 3331 
Q 3541 3656 3305 3865 
Q 3069 4075 2559 4075 
L 1109 4075 
L 1109 2559 
z
" transform="scale(0.015625)"/>
     </defs>
     <use xlink:href="#ArialMT-52"/>
     <use xlink:href="#ArialMT-4d" x="72.216797"/>
     <use xlink:href="#ArialMT-53" x="155.517578"/>
     <use xlink:href="#ArialMT-45" x="222.216797"/>
     <use xlink:href="#ArialMT-20" x="288.916016"/>
     <use xlink:href="#ArialMT-3d" x="316.699219"/>
     <use xlink:href="#ArialMT-20" x="375.097656"/>
     <use xlink:href="#ArialMT-36" x="402.880859"/>
     <use xlink:href="#ArialMT-32" x="458.496094"/>
     <use xlink:href="#ArialMT-34" x="514.111328"/>
     <use xlink:href="#ArialMT-38" x="569.726562"/>
     <use xlink:href="#ArialMT-35" x="625.341797"/>
     <use xlink:href="#ArialMT-37" x="680.957031"/>
     <use xlink:href="#ArialMT-2e" x="736.572266"/>
     <use xlink:href="#ArialMT-33" x="764.355469"/>
     <use xlink:href="#ArialMT-31" x="819.970703"/>
     <use xlink:href="#ArialMT-35" x="875.585938"/>
    </g>
    <!-- Explained Variance = -0.872 -->
    <g style="fill: #262626" transform="translate(91.45675 144.426687) scale(0.12 -0.12)">
     <defs>
      <path id="ArialMT-78" d="M 47 0 
L 1259 1725 
L 138 3319 
L 841 3319 
L 1350 2541 
Q 1494 2319 1581 2169 
Q 1719 2375 1834 2534 
L 2394 3319 
L 3066 3319 
L 1919 1756 
L 3153 0 
L 2463 0 
L 1781 1031 
L 1600 1309 
L 728 0 
L 47 0 
z
" transform="scale(0.015625)"/>
      <path id="ArialMT-70" d="M 422 -1272 
L 422 3319 
L 934 3319 
L 934 2888 
Q 1116 3141 1344 3267 
Q 1572 3394 1897 3394 
Q 2322 3394 2647 3175 
Q 2972 2956 3137 2557 
Q 3303 2159 3303 1684 
Q 3303 1175 3120 767 
Q 2938 359 2589 142 
Q 2241 -75 1856 -75 
Q 1575 -75 1351 44 
Q 1128 163 984 344 
L 984 -1272 
L 422 -1272 
z
M 931 1641 
Q 931 1000 1190 694 
Q 1450 388 1819 388 
Q 2194 388 2461 705 
Q 2728 1022 2728 1688 
Q 2728 2322 2467 2637 
Q 2206 2953 1844 2953 
Q 1484 2953 1207 2617 
Q 931 2281 931 1641 
z
" transform="scale(0.015625)"/>
      <path id="ArialMT-56" d="M 1803 0 
L 28 4581 
L 684 4581 
L 1875 1253 
Q 2019 853 2116 503 
Q 2222 878 2363 1253 
L 3600 4581 
L 4219 4581 
L 2425 0 
L 1803 0 
z
" transform="scale(0.015625)"/>
      <path id="ArialMT-2d" d="M 203 1375 
L 203 1941 
L 1931 1941 
L 1931 1375 
L 203 1375 
z
" transform="scale(0.015625)"/>
     </defs>
     <use xlink:href="#ArialMT-45"/>
     <use xlink:href="#ArialMT-78" x="66.699219"/>
     <use xlink:href="#ArialMT-70" x="116.699219"/>
     <use xlink:href="#ArialMT-6c" x="172.314453"/>
     <use xlink:href="#ArialMT-61" x="194.53125"/>
     <use xlink:href="#ArialMT-69" x="250.146484"/>
     <use xlink:href="#ArialMT-6e" x="272.363281"/>
     <use xlink:href="#ArialMT-65" x="327.978516"/>
     <use xlink:href="#ArialMT-64" x="383.59375"/>
     <use xlink:href="#ArialMT-20" x="439.208984"/>
     <use xlink:href="#ArialMT-56" x="466.992188"/>
     <use xlink:href="#ArialMT-61" x="526.316406"/>
     <use xlink:href="#ArialMT-72" x="581.931641"/>
     <use xlink:href="#ArialMT-69" x="615.232422"/>
     <use xlink:href="#ArialMT-61" x="637.449219"/>
     <use xlink:href="#ArialMT-6e" x="693.064453"/>
     <use xlink:href="#ArialMT-63" x="748.679688"/>
     <use xlink:href="#ArialMT-65" x="798.679688"/>
     <use xlink:href="#ArialMT-20" x="854.294922"/>
     <use xlink:href="#ArialMT-3d" x="882.078125"/>
     <use xlink:href="#ArialMT-20" x="940.476562"/>
     <use xlink:href="#ArialMT-2d" x="968.259766"/>
     <use xlink:href="#ArialMT-30" x="1001.560547"/>
     <use xlink:href="#ArialMT-2e" x="1057.175781"/>
     <use xlink:href="#ArialMT-38" x="1084.958984"/>
     <use xlink:href="#ArialMT-37" x="1140.574219"/>
     <use xlink:href="#ArialMT-32" x="1196.189453"/>
    </g>
    <!-- R Squared = -1.465 -->
    <g style="fill: #262626" transform="translate(91.45675 157.294437) scale(0.12 -0.12)">
     <defs>
      <path id="ArialMT-71" d="M 2538 -1272 
L 2538 353 
Q 2406 169 2170 47 
Q 1934 -75 1669 -75 
Q 1078 -75 651 397 
Q 225 869 225 1691 
Q 225 2191 398 2587 
Q 572 2984 901 3189 
Q 1231 3394 1625 3394 
Q 2241 3394 2594 2875 
L 2594 3319 
L 3100 3319 
L 3100 -1272 
L 2538 -1272 
z
M 803 1669 
Q 803 1028 1072 708 
Q 1341 388 1716 388 
Q 2075 388 2334 692 
Q 2594 997 2594 1619 
Q 2594 2281 2320 2615 
Q 2047 2950 1678 2950 
Q 1313 2950 1058 2639 
Q 803 2328 803 1669 
z
" transform="scale(0.015625)"/>
      <path id="ArialMT-75" d="M 2597 0 
L 2597 488 
Q 2209 -75 1544 -75 
Q 1250 -75 995 37 
Q 741 150 617 320 
Q 494 491 444 738 
Q 409 903 409 1263 
L 409 3319 
L 972 3319 
L 972 1478 
Q 972 1038 1006 884 
Q 1059 663 1231 536 
Q 1403 409 1656 409 
Q 1909 409 2131 539 
Q 2353 669 2445 892 
Q 2538 1116 2538 1541 
L 2538 3319 
L 3100 3319 
L 3100 0 
L 2597 0 
z
" transform="scale(0.015625)"/>
     </defs>
     <use xlink:href="#ArialMT-52"/>
     <use xlink:href="#ArialMT-20" x="72.216797"/>
     <use xlink:href="#ArialMT-53" x="100"/>
     <use xlink:href="#ArialMT-71" x="166.699219"/>
     <use xlink:href="#ArialMT-75" x="222.314453"/>
     <use xlink:href="#ArialMT-61" x="277.929688"/>
     <use xlink:href="#ArialMT-72" x="333.544922"/>
     <use xlink:href="#ArialMT-65" x="366.845703"/>
     <use xlink:href="#ArialMT-64" x="422.460938"/>
     <use xlink:href="#ArialMT-20" x="478.076172"/>
     <use xlink:href="#ArialMT-3d" x="505.859375"/>
     <use xlink:href="#ArialMT-20" x="564.257812"/>
     <use xlink:href="#ArialMT-2d" x="592.041016"/>
     <use xlink:href="#ArialMT-31" x="625.341797"/>
     <use xlink:href="#ArialMT-2e" x="680.957031"/>
     <use xlink:href="#ArialMT-34" x="708.740234"/>
     <use xlink:href="#ArialMT-36" x="764.355469"/>
     <use xlink:href="#ArialMT-35" x="819.970703"/>
    </g>
   </g>
   <g id="text_23">
    <!-- Actual And Predicted International Passengers Differenced For JFK (VAR Model - Differenced) -->
    <g style="fill: #262626" transform="translate(201.830313 19.490625) scale(0.12 -0.12)">
     <defs>
      <path id="ArialMT-46" d="M 525 0 
L 525 4581 
L 3616 4581 
L 3616 4041 
L 1131 4041 
L 1131 2622 
L 3281 2622 
L 3281 2081 
L 1131 2081 
L 1131 0 
L 525 0 
z
" transform="scale(0.015625)"/>
      <path id="ArialMT-4a" d="M 184 1300 
L 731 1375 
Q 753 850 928 656 
Q 1103 463 1413 463 
Q 1641 463 1806 567 
Q 1972 672 2034 851 
Q 2097 1031 2097 1425 
L 2097 4581 
L 2703 4581 
L 2703 1459 
Q 2703 884 2564 568 
Q 2425 253 2123 87 
Q 1822 -78 1416 -78 
Q 813 -78 492 269 
Q 172 616 184 1300 
z
" transform="scale(0.015625)"/>
      <path id="ArialMT-4b" d="M 469 0 
L 469 4581 
L 1075 4581 
L 1075 2309 
L 3350 4581 
L 4172 4581 
L 2250 2725 
L 4256 0 
L 3456 0 
L 1825 2319 
L 1075 1588 
L 1075 0 
L 469 0 
z
" transform="scale(0.015625)"/>
      <path id="ArialMT-28" d="M 1497 -1347 
Q 1031 -759 709 28 
Q 388 816 388 1659 
Q 388 2403 628 3084 
Q 909 3875 1497 4659 
L 1900 4659 
Q 1522 4009 1400 3731 
Q 1209 3300 1100 2831 
Q 966 2247 966 1656 
Q 966 153 1900 -1347 
L 1497 -1347 
z
" transform="scale(0.015625)"/>
      <path id="ArialMT-29" d="M 791 -1347 
L 388 -1347 
Q 1322 153 1322 1656 
Q 1322 2244 1188 2822 
Q 1081 3291 891 3722 
Q 769 4003 388 4659 
L 791 4659 
Q 1378 3875 1659 3084 
Q 1900 2403 1900 1659 
Q 1900 816 1576 28 
Q 1253 -759 791 -1347 
z
" transform="scale(0.015625)"/>
     </defs>
     <use xlink:href="#ArialMT-41"/>
     <use xlink:href="#ArialMT-63" x="66.699219"/>
     <use xlink:href="#ArialMT-74" x="116.699219"/>
     <use xlink:href="#ArialMT-75" x="144.482422"/>
     <use xlink:href="#ArialMT-61" x="200.097656"/>
     <use xlink:href="#ArialMT-6c" x="255.712891"/>
     <use xlink:href="#ArialMT-20" x="277.929688"/>
     <use xlink:href="#ArialMT-41" x="300.212891"/>
     <use xlink:href="#ArialMT-6e" x="366.912109"/>
     <use xlink:href="#ArialMT-64" x="422.527344"/>
     <use xlink:href="#ArialMT-20" x="478.142578"/>
     <use xlink:href="#ArialMT-50" x="505.925781"/>
     <use xlink:href="#ArialMT-72" x="572.625"/>
     <use xlink:href="#ArialMT-65" x="605.925781"/>
     <use xlink:href="#ArialMT-64" x="661.541016"/>
     <use xlink:href="#ArialMT-69" x="717.15625"/>
     <use xlink:href="#ArialMT-63" x="739.373047"/>
     <use xlink:href="#ArialMT-74" x="789.373047"/>
     <use xlink:href="#ArialMT-65" x="817.15625"/>
     <use xlink:href="#ArialMT-64" x="872.771484"/>
     <use xlink:href="#ArialMT-20" x="928.386719"/>
     <use xlink:href="#ArialMT-49" x="956.169922"/>
     <use xlink:href="#ArialMT-6e" x="983.953125"/>
     <use xlink:href="#ArialMT-74" x="1039.568359"/>
     <use xlink:href="#ArialMT-65" x="1067.351562"/>
     <use xlink:href="#ArialMT-72" x="1122.966797"/>
     <use xlink:href="#ArialMT-6e" x="1156.267578"/>
     <use xlink:href="#ArialMT-61" x="1211.882812"/>
     <use xlink:href="#ArialMT-74" x="1267.498047"/>
     <use xlink:href="#ArialMT-69" x="1295.28125"/>
     <use xlink:href="#ArialMT-6f" x="1317.498047"/>
     <use xlink:href="#ArialMT-6e" x="1373.113281"/>
     <use xlink:href="#ArialMT-61" x="1428.728516"/>
     <use xlink:href="#ArialMT-6c" x="1484.34375"/>
     <use xlink:href="#ArialMT-20" x="1506.560547"/>
     <use xlink:href="#ArialMT-50" x="1534.34375"/>
     <use xlink:href="#ArialMT-61" x="1601.042969"/>
     <use xlink:href="#ArialMT-73" x="1656.658203"/>
     <use xlink:href="#ArialMT-73" x="1706.658203"/>
     <use xlink:href="#ArialMT-65" x="1756.658203"/>
     <use xlink:href="#ArialMT-6e" x="1812.273438"/>
     <use xlink:href="#ArialMT-67" x="1867.888672"/>
     <use xlink:href="#ArialMT-65" x="1923.503906"/>
     <use xlink:href="#ArialMT-72" x="1979.119141"/>
     <use xlink:href="#ArialMT-73" x="2012.419922"/>
     <use xlink:href="#ArialMT-20" x="2062.419922"/>
     <use xlink:href="#ArialMT-44" x="2090.203125"/>
     <use xlink:href="#ArialMT-69" x="2162.419922"/>
     <use xlink:href="#ArialMT-66" x="2184.636719"/>
     <use xlink:href="#ArialMT-66" x="2210.669922"/>
     <use xlink:href="#ArialMT-65" x="2238.453125"/>
     <use xlink:href="#ArialMT-72" x="2294.068359"/>
     <use xlink:href="#ArialMT-65" x="2327.369141"/>
     <use xlink:href="#ArialMT-6e" x="2382.984375"/>
     <use xlink:href="#ArialMT-63" x="2438.599609"/>
     <use xlink:href="#ArialMT-65" x="2488.599609"/>
     <use xlink:href="#ArialMT-64" x="2544.214844"/>
     <use xlink:href="#ArialMT-20" x="2599.830078"/>
     <use xlink:href="#ArialMT-46" x="2627.613281"/>
     <use xlink:href="#ArialMT-6f" x="2688.697266"/>
     <use xlink:href="#ArialMT-72" x="2744.3125"/>
     <use xlink:href="#ArialMT-20" x="2777.613281"/>
     <use xlink:href="#ArialMT-4a" x="2805.396484"/>
     <use xlink:href="#ArialMT-46" x="2855.396484"/>
     <use xlink:href="#ArialMT-4b" x="2916.480469"/>
     <use xlink:href="#ArialMT-20" x="2983.179688"/>
     <use xlink:href="#ArialMT-28" x="3010.962891"/>
     <use xlink:href="#ArialMT-56" x="3044.263672"/>
     <use xlink:href="#ArialMT-41" x="3103.587891"/>
     <use xlink:href="#ArialMT-52" x="3170.287109"/>
     <use xlink:href="#ArialMT-20" x="3242.503906"/>
     <use xlink:href="#ArialMT-4d" x="3270.287109"/>
     <use xlink:href="#ArialMT-6f" x="3353.587891"/>
     <use xlink:href="#ArialMT-64" x="3409.203125"/>
     <use xlink:href="#ArialMT-65" x="3464.818359"/>
     <use xlink:href="#ArialMT-6c" x="3520.433594"/>
     <use xlink:href="#ArialMT-20" x="3542.650391"/>
     <use xlink:href="#ArialMT-2d" x="3570.433594"/>
     <use xlink:href="#ArialMT-20" x="3603.734375"/>
     <use xlink:href="#ArialMT-44" x="3631.517578"/>
     <use xlink:href="#ArialMT-69" x="3703.734375"/>
     <use xlink:href="#ArialMT-66" x="3725.951172"/>
     <use xlink:href="#ArialMT-66" x="3751.984375"/>
     <use xlink:href="#ArialMT-65" x="3779.767578"/>
     <use xlink:href="#ArialMT-72" x="3835.382812"/>
     <use xlink:href="#ArialMT-65" x="3868.683594"/>
     <use xlink:href="#ArialMT-6e" x="3924.298828"/>
     <use xlink:href="#ArialMT-63" x="3979.914062"/>
     <use xlink:href="#ArialMT-65" x="4029.914062"/>
     <use xlink:href="#ArialMT-64" x="4085.529297"/>
     <use xlink:href="#ArialMT-29" x="4141.144531"/>
    </g>
   </g>
   <g id="legend_1">
    <g id="line2d_41">
     <path d="M 60.365 38.270313 
L 70.365 38.270313 
L 80.365 38.270313 
" style="fill: none; stroke: #0000ff; stroke-width: 1.75; stroke-linecap: round"/>
    </g>
    <g id="text_24">
     <!-- Actual International Passengers Differenced For JFK (VAR Model - Differenced) -->
     <g style="fill: #262626" transform="translate(88.365 41.770313) scale(0.1 -0.1)">
      <use xlink:href="#ArialMT-41"/>
      <use xlink:href="#ArialMT-63" x="66.699219"/>
      <use xlink:href="#ArialMT-74" x="116.699219"/>
      <use xlink:href="#ArialMT-75" x="144.482422"/>
      <use xlink:href="#ArialMT-61" x="200.097656"/>
      <use xlink:href="#ArialMT-6c" x="255.712891"/>
      <use xlink:href="#ArialMT-20" x="277.929688"/>
      <use xlink:href="#ArialMT-49" x="305.712891"/>
      <use xlink:href="#ArialMT-6e" x="333.496094"/>
      <use xlink:href="#ArialMT-74" x="389.111328"/>
      <use xlink:href="#ArialMT-65" x="416.894531"/>
      <use xlink:href="#ArialMT-72" x="472.509766"/>
      <use xlink:href="#ArialMT-6e" x="505.810547"/>
      <use xlink:href="#ArialMT-61" x="561.425781"/>
      <use xlink:href="#ArialMT-74" x="617.041016"/>
      <use xlink:href="#ArialMT-69" x="644.824219"/>
      <use xlink:href="#ArialMT-6f" x="667.041016"/>
      <use xlink:href="#ArialMT-6e" x="722.65625"/>
      <use xlink:href="#ArialMT-61" x="778.271484"/>
      <use xlink:href="#ArialMT-6c" x="833.886719"/>
      <use xlink:href="#ArialMT-20" x="856.103516"/>
      <use xlink:href="#ArialMT-50" x="883.886719"/>
      <use xlink:href="#ArialMT-61" x="950.585938"/>
      <use xlink:href="#ArialMT-73" x="1006.201172"/>
      <use xlink:href="#ArialMT-73" x="1056.201172"/>
      <use xlink:href="#ArialMT-65" x="1106.201172"/>
      <use xlink:href="#ArialMT-6e" x="1161.816406"/>
      <use xlink:href="#ArialMT-67" x="1217.431641"/>
      <use xlink:href="#ArialMT-65" x="1273.046875"/>
      <use xlink:href="#ArialMT-72" x="1328.662109"/>
      <use xlink:href="#ArialMT-73" x="1361.962891"/>
      <use xlink:href="#ArialMT-20" x="1411.962891"/>
      <use xlink:href="#ArialMT-44" x="1439.746094"/>
      <use xlink:href="#ArialMT-69" x="1511.962891"/>
      <use xlink:href="#ArialMT-66" x="1534.179688"/>
      <use xlink:href="#ArialMT-66" x="1560.212891"/>
      <use xlink:href="#ArialMT-65" x="1587.996094"/>
      <use xlink:href="#ArialMT-72" x="1643.611328"/>
      <use xlink:href="#ArialMT-65" x="1676.912109"/>
      <use xlink:href="#ArialMT-6e" x="1732.527344"/>
      <use xlink:href="#ArialMT-63" x="1788.142578"/>
      <use xlink:href="#ArialMT-65" x="1838.142578"/>
      <use xlink:href="#ArialMT-64" x="1893.757812"/>
      <use xlink:href="#ArialMT-20" x="1949.373047"/>
      <use xlink:href="#ArialMT-46" x="1977.15625"/>
      <use xlink:href="#ArialMT-6f" x="2038.240234"/>
      <use xlink:href="#ArialMT-72" x="2093.855469"/>
      <use xlink:href="#ArialMT-20" x="2127.15625"/>
      <use xlink:href="#ArialMT-4a" x="2154.939453"/>
      <use xlink:href="#ArialMT-46" x="2204.939453"/>
      <use xlink:href="#ArialMT-4b" x="2266.023438"/>
      <use xlink:href="#ArialMT-20" x="2332.722656"/>
      <use xlink:href="#ArialMT-28" x="2360.505859"/>
      <use xlink:href="#ArialMT-56" x="2393.806641"/>
      <use xlink:href="#ArialMT-41" x="2453.130859"/>
      <use xlink:href="#ArialMT-52" x="2519.830078"/>
      <use xlink:href="#ArialMT-20" x="2592.046875"/>
      <use xlink:href="#ArialMT-4d" x="2619.830078"/>
      <use xlink:href="#ArialMT-6f" x="2703.130859"/>
      <use xlink:href="#ArialMT-64" x="2758.746094"/>
      <use xlink:href="#ArialMT-65" x="2814.361328"/>
      <use xlink:href="#ArialMT-6c" x="2869.976562"/>
      <use xlink:href="#ArialMT-20" x="2892.193359"/>
      <use xlink:href="#ArialMT-2d" x="2919.976562"/>
      <use xlink:href="#ArialMT-20" x="2953.277344"/>
      <use xlink:href="#ArialMT-44" x="2981.060547"/>
      <use xlink:href="#ArialMT-69" x="3053.277344"/>
      <use xlink:href="#ArialMT-66" x="3075.494141"/>
      <use xlink:href="#ArialMT-66" x="3101.527344"/>
      <use xlink:href="#ArialMT-65" x="3129.310547"/>
      <use xlink:href="#ArialMT-72" x="3184.925781"/>
      <use xlink:href="#ArialMT-65" x="3218.226562"/>
      <use xlink:href="#ArialMT-6e" x="3273.841797"/>
      <use xlink:href="#ArialMT-63" x="3329.457031"/>
      <use xlink:href="#ArialMT-65" x="3379.457031"/>
      <use xlink:href="#ArialMT-64" x="3435.072266"/>
      <use xlink:href="#ArialMT-29" x="3490.6875"/>
     </g>
    </g>
    <g id="line2d_42">
     <path d="M 60.365 52.660938 
L 70.365 52.660938 
L 80.365 52.660938 
" style="fill: none; stroke: #ff0000; stroke-width: 1.75; stroke-linecap: round"/>
    </g>
    <g id="text_25">
     <!-- Forecast Of International Passengers Differenced For JFK (VAR Model - Differenced) -->
     <g style="fill: #262626" transform="translate(88.365 56.160938) scale(0.1 -0.1)">
      <defs>
       <path id="ArialMT-4f" d="M 309 2231 
Q 309 3372 921 4017 
Q 1534 4663 2503 4663 
Q 3138 4663 3647 4359 
Q 4156 4056 4423 3514 
Q 4691 2972 4691 2284 
Q 4691 1588 4409 1038 
Q 4128 488 3612 205 
Q 3097 -78 2500 -78 
Q 1853 -78 1343 234 
Q 834 547 571 1087 
Q 309 1628 309 2231 
z
M 934 2222 
Q 934 1394 1379 917 
Q 1825 441 2497 441 
Q 3181 441 3623 922 
Q 4066 1403 4066 2288 
Q 4066 2847 3877 3264 
Q 3688 3681 3323 3911 
Q 2959 4141 2506 4141 
Q 1863 4141 1398 3698 
Q 934 3256 934 2222 
z
" transform="scale(0.015625)"/>
      </defs>
      <use xlink:href="#ArialMT-46"/>
      <use xlink:href="#ArialMT-6f" x="61.083984"/>
      <use xlink:href="#ArialMT-72" x="116.699219"/>
      <use xlink:href="#ArialMT-65" x="150"/>
      <use xlink:href="#ArialMT-63" x="205.615234"/>
      <use xlink:href="#ArialMT-61" x="255.615234"/>
      <use xlink:href="#ArialMT-73" x="311.230469"/>
      <use xlink:href="#ArialMT-74" x="361.230469"/>
      <use xlink:href="#ArialMT-20" x="389.013672"/>
      <use xlink:href="#ArialMT-4f" x="416.796875"/>
      <use xlink:href="#ArialMT-66" x="494.580078"/>
      <use xlink:href="#ArialMT-20" x="522.363281"/>
      <use xlink:href="#ArialMT-49" x="550.146484"/>
      <use xlink:href="#ArialMT-6e" x="577.929688"/>
      <use xlink:href="#ArialMT-74" x="633.544922"/>
      <use xlink:href="#ArialMT-65" x="661.328125"/>
      <use xlink:href="#ArialMT-72" x="716.943359"/>
      <use xlink:href="#ArialMT-6e" x="750.244141"/>
      <use xlink:href="#ArialMT-61" x="805.859375"/>
      <use xlink:href="#ArialMT-74" x="861.474609"/>
      <use xlink:href="#ArialMT-69" x="889.257812"/>
      <use xlink:href="#ArialMT-6f" x="911.474609"/>
      <use xlink:href="#ArialMT-6e" x="967.089844"/>
      <use xlink:href="#ArialMT-61" x="1022.705078"/>
      <use xlink:href="#ArialMT-6c" x="1078.320312"/>
      <use xlink:href="#ArialMT-20" x="1100.537109"/>
      <use xlink:href="#ArialMT-50" x="1128.320312"/>
      <use xlink:href="#ArialMT-61" x="1195.019531"/>
      <use xlink:href="#ArialMT-73" x="1250.634766"/>
      <use xlink:href="#ArialMT-73" x="1300.634766"/>
      <use xlink:href="#ArialMT-65" x="1350.634766"/>
      <use xlink:href="#ArialMT-6e" x="1406.25"/>
      <use xlink:href="#ArialMT-67" x="1461.865234"/>
      <use xlink:href="#ArialMT-65" x="1517.480469"/>
      <use xlink:href="#ArialMT-72" x="1573.095703"/>
      <use xlink:href="#ArialMT-73" x="1606.396484"/>
      <use xlink:href="#ArialMT-20" x="1656.396484"/>
      <use xlink:href="#ArialMT-44" x="1684.179688"/>
      <use xlink:href="#ArialMT-69" x="1756.396484"/>
      <use xlink:href="#ArialMT-66" x="1778.613281"/>
      <use xlink:href="#ArialMT-66" x="1804.646484"/>
      <use xlink:href="#ArialMT-65" x="1832.429688"/>
      <use xlink:href="#ArialMT-72" x="1888.044922"/>
      <use xlink:href="#ArialMT-65" x="1921.345703"/>
      <use xlink:href="#ArialMT-6e" x="1976.960938"/>
      <use xlink:href="#ArialMT-63" x="2032.576172"/>
      <use xlink:href="#ArialMT-65" x="2082.576172"/>
      <use xlink:href="#ArialMT-64" x="2138.191406"/>
      <use xlink:href="#ArialMT-20" x="2193.806641"/>
      <use xlink:href="#ArialMT-46" x="2221.589844"/>
      <use xlink:href="#ArialMT-6f" x="2282.673828"/>
      <use xlink:href="#ArialMT-72" x="2338.289062"/>
      <use xlink:href="#ArialMT-20" x="2371.589844"/>
      <use xlink:href="#ArialMT-4a" x="2399.373047"/>
      <use xlink:href="#ArialMT-46" x="2449.373047"/>
      <use xlink:href="#ArialMT-4b" x="2510.457031"/>
      <use xlink:href="#ArialMT-20" x="2577.15625"/>
      <use xlink:href="#ArialMT-28" x="2604.939453"/>
      <use xlink:href="#ArialMT-56" x="2638.240234"/>
      <use xlink:href="#ArialMT-41" x="2697.564453"/>
      <use xlink:href="#ArialMT-52" x="2764.263672"/>
      <use xlink:href="#ArialMT-20" x="2836.480469"/>
      <use xlink:href="#ArialMT-4d" x="2864.263672"/>
      <use xlink:href="#ArialMT-6f" x="2947.564453"/>
      <use xlink:href="#ArialMT-64" x="3003.179688"/>
      <use xlink:href="#ArialMT-65" x="3058.794922"/>
      <use xlink:href="#ArialMT-6c" x="3114.410156"/>
      <use xlink:href="#ArialMT-20" x="3136.626953"/>
      <use xlink:href="#ArialMT-2d" x="3164.410156"/>
      <use xlink:href="#ArialMT-20" x="3197.710938"/>
      <use xlink:href="#ArialMT-44" x="3225.494141"/>
      <use xlink:href="#ArialMT-69" x="3297.710938"/>
      <use xlink:href="#ArialMT-66" x="3319.927734"/>
      <use xlink:href="#ArialMT-66" x="3345.960938"/>
      <use xlink:href="#ArialMT-65" x="3373.744141"/>
      <use xlink:href="#ArialMT-72" x="3429.359375"/>
      <use xlink:href="#ArialMT-65" x="3462.660156"/>
      <use xlink:href="#ArialMT-6e" x="3518.275391"/>
      <use xlink:href="#ArialMT-63" x="3573.890625"/>
      <use xlink:href="#ArialMT-65" x="3623.890625"/>
      <use xlink:href="#ArialMT-64" x="3679.505859"/>
      <use xlink:href="#ArialMT-29" x="3735.121094"/>
     </g>
    </g>
   </g>
  </g>
 </g>
 <defs>
  <clipPath id="p1129777af4">
   <rect x="51.365" y="25.490625" width="801.835" height="595.349375"/>
  </clipPath>
 </defs>
</svg>
