<?xml version="1.0" encoding="utf-8" standalone="no"?>
<!DOCTYPE svg PUBLIC "-//W3C//DTD SVG 1.1//EN"
  "http://www.w3.org/Graphics/SVG/1.1/DTD/svg11.dtd">
<svg xmlns:xlink="http://www.w3.org/1999/xlink" width="1080pt" height="612pt" viewBox="0 0 1080 612" xmlns="http://www.w3.org/2000/svg" version="1.1">
 <metadata>
  <rdf:RDF xmlns:dc="http://purl.org/dc/elements/1.1/" xmlns:cc="http://creativecommons.org/ns#" xmlns:rdf="http://www.w3.org/1999/02/22-rdf-syntax-ns#">
   <cc:Work>
    <dc:type rdf:resource="http://purl.org/dc/dcmitype/StillImage"/>
    <dc:date>2023-12-06T16:58:58.384211</dc:date>
    <dc:format>image/svg+xml</dc:format>
    <dc:creator>
     <cc:Agent>
      <dc:title>Matplotlib v3.6.2, https://matplotlib.org/</dc:title>
     </cc:Agent>
    </dc:creator>
   </cc:Work>
  </rdf:RDF>
 </metadata>
 <defs>
  <style type="text/css">*{stroke-linejoin: round; stroke-linecap: butt}</style>
 </defs>
 <g id="figure_1">
  <g id="patch_1">
   <path d="M 0 612 
L 1080 612 
L 1080 0 
L 0 0 
z
" style="fill: #ffffff"/>
  </g>
  <g id="axes_1">
   <g id="patch_2">
    <path d="M 34.283053 184.321635 
L 1076.99976 184.321635 
L 1076.99976 18.118365 
L 34.283053 18.118365 
z
" style="fill: #ffffff"/>
   </g>
   <g id="matplotlib.axis_1">
    <g id="xtick_1">
     <g id="line2d_1">
      <defs>
       <path id="mf6357bae88" d="M 0 0 
L 0 3.5 
" style="stroke: #000000; stroke-width: 0.8"/>
      </defs>
      <g>
       <use xlink:href="#mf6357bae88" x="154.709386" y="184.321635" style="stroke: #000000; stroke-width: 0.8"/>
      </g>
     </g>
     <g id="text_1">
      <!-- 1980 -->
      <g transform="translate(141.984386 198.920073) scale(0.1 -0.1)">
       <defs>
        <path id="DejaVuSans-31" d="M 794 531 
L 1825 531 
L 1825 4091 
L 703 3866 
L 703 4441 
L 1819 4666 
L 2450 4666 
L 2450 531 
L 3481 531 
L 3481 0 
L 794 0 
L 794 531 
z
" transform="scale(0.015625)"/>
        <path id="DejaVuSans-39" d="M 703 97 
L 703 672 
Q 941 559 1184 500 
Q 1428 441 1663 441 
Q 2288 441 2617 861 
Q 2947 1281 2994 2138 
Q 2813 1869 2534 1725 
Q 2256 1581 1919 1581 
Q 1219 1581 811 2004 
Q 403 2428 403 3163 
Q 403 3881 828 4315 
Q 1253 4750 1959 4750 
Q 2769 4750 3195 4129 
Q 3622 3509 3622 2328 
Q 3622 1225 3098 567 
Q 2575 -91 1691 -91 
Q 1453 -91 1209 -44 
Q 966 3 703 97 
z
M 1959 2075 
Q 2384 2075 2632 2365 
Q 2881 2656 2881 3163 
Q 2881 3666 2632 3958 
Q 2384 4250 1959 4250 
Q 1534 4250 1286 3958 
Q 1038 3666 1038 3163 
Q 1038 2656 1286 2365 
Q 1534 2075 1959 2075 
z
" transform="scale(0.015625)"/>
        <path id="DejaVuSans-38" d="M 2034 2216 
Q 1584 2216 1326 1975 
Q 1069 1734 1069 1313 
Q 1069 891 1326 650 
Q 1584 409 2034 409 
Q 2484 409 2743 651 
Q 3003 894 3003 1313 
Q 3003 1734 2745 1975 
Q 2488 2216 2034 2216 
z
M 1403 2484 
Q 997 2584 770 2862 
Q 544 3141 544 3541 
Q 544 4100 942 4425 
Q 1341 4750 2034 4750 
Q 2731 4750 3128 4425 
Q 3525 4100 3525 3541 
Q 3525 3141 3298 2862 
Q 3072 2584 2669 2484 
Q 3125 2378 3379 2068 
Q 3634 1759 3634 1313 
Q 3634 634 3220 271 
Q 2806 -91 2034 -91 
Q 1263 -91 848 271 
Q 434 634 434 1313 
Q 434 1759 690 2068 
Q 947 2378 1403 2484 
z
M 1172 3481 
Q 1172 3119 1398 2916 
Q 1625 2713 2034 2713 
Q 2441 2713 2670 2916 
Q 2900 3119 2900 3481 
Q 2900 3844 2670 4047 
Q 2441 4250 2034 4250 
Q 1625 4250 1398 4047 
Q 1172 3844 1172 3481 
z
" transform="scale(0.015625)"/>
        <path id="DejaVuSans-30" d="M 2034 4250 
Q 1547 4250 1301 3770 
Q 1056 3291 1056 2328 
Q 1056 1369 1301 889 
Q 1547 409 2034 409 
Q 2525 409 2770 889 
Q 3016 1369 3016 2328 
Q 3016 3291 2770 3770 
Q 2525 4250 2034 4250 
z
M 2034 4750 
Q 2819 4750 3233 4129 
Q 3647 3509 3647 2328 
Q 3647 1150 3233 529 
Q 2819 -91 2034 -91 
Q 1250 -91 836 529 
Q 422 1150 422 2328 
Q 422 3509 836 4129 
Q 1250 4750 2034 4750 
z
" transform="scale(0.015625)"/>
       </defs>
       <use xlink:href="#DejaVuSans-31"/>
       <use xlink:href="#DejaVuSans-39" x="63.623047"/>
       <use xlink:href="#DejaVuSans-38" x="127.246094"/>
       <use xlink:href="#DejaVuSans-30" x="190.869141"/>
      </g>
     </g>
    </g>
    <g id="xtick_2">
     <g id="line2d_2">
      <g>
       <use xlink:href="#mf6357bae88" x="276.55964" y="184.321635" style="stroke: #000000; stroke-width: 0.8"/>
      </g>
     </g>
     <g id="text_2">
      <!-- 1985 -->
      <g transform="translate(263.83464 198.920073) scale(0.1 -0.1)">
       <defs>
        <path id="DejaVuSans-35" d="M 691 4666 
L 3169 4666 
L 3169 4134 
L 1269 4134 
L 1269 2991 
Q 1406 3038 1543 3061 
Q 1681 3084 1819 3084 
Q 2600 3084 3056 2656 
Q 3513 2228 3513 1497 
Q 3513 744 3044 326 
Q 2575 -91 1722 -91 
Q 1428 -91 1123 -41 
Q 819 9 494 109 
L 494 744 
Q 775 591 1075 516 
Q 1375 441 1709 441 
Q 2250 441 2565 725 
Q 2881 1009 2881 1497 
Q 2881 1984 2565 2268 
Q 2250 2553 1709 2553 
Q 1456 2553 1204 2497 
Q 953 2441 691 2322 
L 691 4666 
z
" transform="scale(0.015625)"/>
       </defs>
       <use xlink:href="#DejaVuSans-31"/>
       <use xlink:href="#DejaVuSans-39" x="63.623047"/>
       <use xlink:href="#DejaVuSans-38" x="127.246094"/>
       <use xlink:href="#DejaVuSans-35" x="190.869141"/>
      </g>
     </g>
    </g>
    <g id="xtick_3">
     <g id="line2d_3">
      <g>
       <use xlink:href="#mf6357bae88" x="398.343199" y="184.321635" style="stroke: #000000; stroke-width: 0.8"/>
      </g>
     </g>
     <g id="text_3">
      <!-- 1990 -->
      <g transform="translate(385.618199 198.920073) scale(0.1 -0.1)">
       <use xlink:href="#DejaVuSans-31"/>
       <use xlink:href="#DejaVuSans-39" x="63.623047"/>
       <use xlink:href="#DejaVuSans-39" x="127.246094"/>
       <use xlink:href="#DejaVuSans-30" x="190.869141"/>
      </g>
     </g>
    </g>
    <g id="xtick_4">
     <g id="line2d_4">
      <g>
       <use xlink:href="#mf6357bae88" x="520.126759" y="184.321635" style="stroke: #000000; stroke-width: 0.8"/>
      </g>
     </g>
     <g id="text_4">
      <!-- 1995 -->
      <g transform="translate(507.401759 198.920073) scale(0.1 -0.1)">
       <use xlink:href="#DejaVuSans-31"/>
       <use xlink:href="#DejaVuSans-39" x="63.623047"/>
       <use xlink:href="#DejaVuSans-39" x="127.246094"/>
       <use xlink:href="#DejaVuSans-35" x="190.869141"/>
      </g>
     </g>
    </g>
    <g id="xtick_5">
     <g id="line2d_5">
      <g>
       <use xlink:href="#mf6357bae88" x="641.910319" y="184.321635" style="stroke: #000000; stroke-width: 0.8"/>
      </g>
     </g>
     <g id="text_5">
      <!-- 2000 -->
      <g transform="translate(629.185319 198.920073) scale(0.1 -0.1)">
       <defs>
        <path id="DejaVuSans-32" d="M 1228 531 
L 3431 531 
L 3431 0 
L 469 0 
L 469 531 
Q 828 903 1448 1529 
Q 2069 2156 2228 2338 
Q 2531 2678 2651 2914 
Q 2772 3150 2772 3378 
Q 2772 3750 2511 3984 
Q 2250 4219 1831 4219 
Q 1534 4219 1204 4116 
Q 875 4013 500 3803 
L 500 4441 
Q 881 4594 1212 4672 
Q 1544 4750 1819 4750 
Q 2544 4750 2975 4387 
Q 3406 4025 3406 3419 
Q 3406 3131 3298 2873 
Q 3191 2616 2906 2266 
Q 2828 2175 2409 1742 
Q 1991 1309 1228 531 
z
" transform="scale(0.015625)"/>
       </defs>
       <use xlink:href="#DejaVuSans-32"/>
       <use xlink:href="#DejaVuSans-30" x="63.623047"/>
       <use xlink:href="#DejaVuSans-30" x="127.246094"/>
       <use xlink:href="#DejaVuSans-30" x="190.869141"/>
      </g>
     </g>
    </g>
    <g id="xtick_6">
     <g id="line2d_6">
      <g>
       <use xlink:href="#mf6357bae88" x="763.760573" y="184.321635" style="stroke: #000000; stroke-width: 0.8"/>
      </g>
     </g>
     <g id="text_6">
      <!-- 2005 -->
      <g transform="translate(751.035573 198.920073) scale(0.1 -0.1)">
       <use xlink:href="#DejaVuSans-32"/>
       <use xlink:href="#DejaVuSans-30" x="63.623047"/>
       <use xlink:href="#DejaVuSans-30" x="127.246094"/>
       <use xlink:href="#DejaVuSans-35" x="190.869141"/>
      </g>
     </g>
    </g>
    <g id="xtick_7">
     <g id="line2d_7">
      <g>
       <use xlink:href="#mf6357bae88" x="885.544133" y="184.321635" style="stroke: #000000; stroke-width: 0.8"/>
      </g>
     </g>
     <g id="text_7">
      <!-- 2010 -->
      <g transform="translate(872.819133 198.920073) scale(0.1 -0.1)">
       <use xlink:href="#DejaVuSans-32"/>
       <use xlink:href="#DejaVuSans-30" x="63.623047"/>
       <use xlink:href="#DejaVuSans-31" x="127.246094"/>
       <use xlink:href="#DejaVuSans-30" x="190.869141"/>
      </g>
     </g>
    </g>
    <g id="xtick_8">
     <g id="line2d_8">
      <g>
       <use xlink:href="#mf6357bae88" x="1007.327692" y="184.321635" style="stroke: #000000; stroke-width: 0.8"/>
      </g>
     </g>
     <g id="text_8">
      <!-- 2015 -->
      <g transform="translate(994.602692 198.920073) scale(0.1 -0.1)">
       <use xlink:href="#DejaVuSans-32"/>
       <use xlink:href="#DejaVuSans-30" x="63.623047"/>
       <use xlink:href="#DejaVuSans-31" x="127.246094"/>
       <use xlink:href="#DejaVuSans-35" x="190.869141"/>
      </g>
     </g>
    </g>
   </g>
   <g id="matplotlib.axis_2">
    <g id="ytick_1">
     <g id="line2d_9">
      <defs>
       <path id="mb6497c7644" d="M 0 0 
L -3.5 0 
" style="stroke: #000000; stroke-width: 0.8"/>
      </defs>
      <g>
       <use xlink:href="#mb6497c7644" x="34.283053" y="174.436744" style="stroke: #000000; stroke-width: 0.8"/>
      </g>
     </g>
     <g id="text_9">
      <!-- 0.75 -->
      <g transform="translate(5.017428 178.235963) scale(0.1 -0.1)">
       <defs>
        <path id="DejaVuSans-2e" d="M 684 794 
L 1344 794 
L 1344 0 
L 684 0 
L 684 794 
z
" transform="scale(0.015625)"/>
        <path id="DejaVuSans-37" d="M 525 4666 
L 3525 4666 
L 3525 4397 
L 1831 0 
L 1172 0 
L 2766 4134 
L 525 4134 
L 525 4666 
z
" transform="scale(0.015625)"/>
       </defs>
       <use xlink:href="#DejaVuSans-30"/>
       <use xlink:href="#DejaVuSans-2e" x="63.623047"/>
       <use xlink:href="#DejaVuSans-37" x="95.410156"/>
       <use xlink:href="#DejaVuSans-35" x="159.033203"/>
      </g>
     </g>
    </g>
    <g id="ytick_2">
     <g id="line2d_10">
      <g>
       <use xlink:href="#mb6497c7644" x="34.283053" y="153.612822" style="stroke: #000000; stroke-width: 0.8"/>
      </g>
     </g>
     <g id="text_10">
      <!-- 1.00 -->
      <g transform="translate(5.017428 157.412041) scale(0.1 -0.1)">
       <use xlink:href="#DejaVuSans-31"/>
       <use xlink:href="#DejaVuSans-2e" x="63.623047"/>
       <use xlink:href="#DejaVuSans-30" x="95.410156"/>
       <use xlink:href="#DejaVuSans-30" x="159.033203"/>
      </g>
     </g>
    </g>
    <g id="ytick_3">
     <g id="line2d_11">
      <g>
       <use xlink:href="#mb6497c7644" x="34.283053" y="132.7889" style="stroke: #000000; stroke-width: 0.8"/>
      </g>
     </g>
     <g id="text_11">
      <!-- 1.25 -->
      <g transform="translate(5.017428 136.588118) scale(0.1 -0.1)">
       <use xlink:href="#DejaVuSans-31"/>
       <use xlink:href="#DejaVuSans-2e" x="63.623047"/>
       <use xlink:href="#DejaVuSans-32" x="95.410156"/>
       <use xlink:href="#DejaVuSans-35" x="159.033203"/>
      </g>
     </g>
    </g>
    <g id="ytick_4">
     <g id="line2d_12">
      <g>
       <use xlink:href="#mb6497c7644" x="34.283053" y="111.964977" style="stroke: #000000; stroke-width: 0.8"/>
      </g>
     </g>
     <g id="text_12">
      <!-- 1.50 -->
      <g transform="translate(5.017428 115.764196) scale(0.1 -0.1)">
       <use xlink:href="#DejaVuSans-31"/>
       <use xlink:href="#DejaVuSans-2e" x="63.623047"/>
       <use xlink:href="#DejaVuSans-35" x="95.410156"/>
       <use xlink:href="#DejaVuSans-30" x="159.033203"/>
      </g>
     </g>
    </g>
    <g id="ytick_5">
     <g id="line2d_13">
      <g>
       <use xlink:href="#mb6497c7644" x="34.283053" y="91.141055" style="stroke: #000000; stroke-width: 0.8"/>
      </g>
     </g>
     <g id="text_13">
      <!-- 1.75 -->
      <g transform="translate(5.017428 94.940274) scale(0.1 -0.1)">
       <use xlink:href="#DejaVuSans-31"/>
       <use xlink:href="#DejaVuSans-2e" x="63.623047"/>
       <use xlink:href="#DejaVuSans-37" x="95.410156"/>
       <use xlink:href="#DejaVuSans-35" x="159.033203"/>
      </g>
     </g>
    </g>
    <g id="ytick_6">
     <g id="line2d_14">
      <g>
       <use xlink:href="#mb6497c7644" x="34.283053" y="70.317133" style="stroke: #000000; stroke-width: 0.8"/>
      </g>
     </g>
     <g id="text_14">
      <!-- 2.00 -->
      <g transform="translate(5.017428 74.116352) scale(0.1 -0.1)">
       <use xlink:href="#DejaVuSans-32"/>
       <use xlink:href="#DejaVuSans-2e" x="63.623047"/>
       <use xlink:href="#DejaVuSans-30" x="95.410156"/>
       <use xlink:href="#DejaVuSans-30" x="159.033203"/>
      </g>
     </g>
    </g>
    <g id="ytick_7">
     <g id="line2d_15">
      <g>
       <use xlink:href="#mb6497c7644" x="34.283053" y="49.493211" style="stroke: #000000; stroke-width: 0.8"/>
      </g>
     </g>
     <g id="text_15">
      <!-- 2.25 -->
      <g transform="translate(5.017428 53.292429) scale(0.1 -0.1)">
       <use xlink:href="#DejaVuSans-32"/>
       <use xlink:href="#DejaVuSans-2e" x="63.623047"/>
       <use xlink:href="#DejaVuSans-32" x="95.410156"/>
       <use xlink:href="#DejaVuSans-35" x="159.033203"/>
      </g>
     </g>
    </g>
    <g id="ytick_8">
     <g id="line2d_16">
      <g>
       <use xlink:href="#mb6497c7644" x="34.283053" y="28.669288" style="stroke: #000000; stroke-width: 0.8"/>
      </g>
     </g>
     <g id="text_16">
      <!-- 2.50 -->
      <g transform="translate(5.017428 32.468507) scale(0.1 -0.1)">
       <use xlink:href="#DejaVuSans-32"/>
       <use xlink:href="#DejaVuSans-2e" x="63.623047"/>
       <use xlink:href="#DejaVuSans-35" x="95.410156"/>
       <use xlink:href="#DejaVuSans-30" x="159.033203"/>
      </g>
     </g>
    </g>
    <g id="text_17">
     <!-- 1e6 -->
     <g transform="translate(34.283053 15.118365) scale(0.1 -0.1)">
      <defs>
       <path id="DejaVuSans-65" d="M 3597 1894 
L 3597 1613 
L 953 1613 
Q 991 1019 1311 708 
Q 1631 397 2203 397 
Q 2534 397 2845 478 
Q 3156 559 3463 722 
L 3463 178 
Q 3153 47 2828 -22 
Q 2503 -91 2169 -91 
Q 1331 -91 842 396 
Q 353 884 353 1716 
Q 353 2575 817 3079 
Q 1281 3584 2069 3584 
Q 2775 3584 3186 3129 
Q 3597 2675 3597 1894 
z
M 3022 2063 
Q 3016 2534 2758 2815 
Q 2500 3097 2075 3097 
Q 1594 3097 1305 2825 
Q 1016 2553 972 2059 
L 3022 2063 
z
" transform="scale(0.015625)"/>
       <path id="DejaVuSans-36" d="M 2113 2584 
Q 1688 2584 1439 2293 
Q 1191 2003 1191 1497 
Q 1191 994 1439 701 
Q 1688 409 2113 409 
Q 2538 409 2786 701 
Q 3034 994 3034 1497 
Q 3034 2003 2786 2293 
Q 2538 2584 2113 2584 
z
M 3366 4563 
L 3366 3988 
Q 3128 4100 2886 4159 
Q 2644 4219 2406 4219 
Q 1781 4219 1451 3797 
Q 1122 3375 1075 2522 
Q 1259 2794 1537 2939 
Q 1816 3084 2150 3084 
Q 2853 3084 3261 2657 
Q 3669 2231 3669 1497 
Q 3669 778 3244 343 
Q 2819 -91 2113 -91 
Q 1303 -91 875 529 
Q 447 1150 447 2328 
Q 447 3434 972 4092 
Q 1497 4750 2381 4750 
Q 2619 4750 2861 4703 
Q 3103 4656 3366 4563 
z
" transform="scale(0.015625)"/>
      </defs>
      <use xlink:href="#DejaVuSans-31"/>
      <use xlink:href="#DejaVuSans-65" x="63.623047"/>
      <use xlink:href="#DejaVuSans-36" x="125.146484"/>
     </g>
    </g>
   </g>
   <g id="line2d_17">
    <path d="M 81.679266 165.555258 
L 83.746786 176.766941 
L 85.614223 169.139055 
L 87.681742 163.888928 
L 89.682567 160.813901 
L 91.750087 156.174331 
L 93.750912 139.31445 
L 95.818431 140.562053 
L 97.88595 156.341838 
L 99.886776 161.003232 
L 101.954295 169.268496 
L 103.95512 158.964736 
L 106.02264 161.000983 
L 108.090159 170.461374 
L 109.957596 153.645807 
L 112.025115 156.613716 
L 114.02594 150.744951 
L 116.09346 144.262881 
L 118.094285 125.36084 
L 120.161804 124.329723 
L 122.229324 147.505582 
L 124.230149 152.725639 
L 126.297668 160.225333 
L 128.298493 151.4109 
L 130.366013 152.154564 
L 132.433532 158.893435 
L 134.300969 143.643661 
L 136.368488 142.278694 
L 138.369313 144.179752 
L 142.437658 112.58628 
L 144.505177 104.598473 
L 146.572697 135.953469 
L 148.573522 142.475272 
L 150.641041 153.192345 
L 152.641866 148.889706 
L 154.709386 151.245808 
L 156.776905 156.467282 
L 158.711036 144.527344 
L 160.778556 149.054632 
L 162.779381 147.31067 
L 164.8469 127.269144 
L 166.847725 115.716948 
L 168.915245 104.929157 
L 170.982764 144.078631 
L 172.983589 146.332362 
L 175.051109 152.510487 
L 177.051934 136.714875 
L 179.119453 143.202943 
L 181.186972 155.498136 
L 183.054409 147.285098 
L 185.121929 141.411586 
L 187.122754 139.419153 
L 189.190273 135.297682 
L 191.191098 123.564818 
L 193.258618 126.658587 
L 195.326137 143.059425 
L 197.326962 144.654537 
L 199.394482 151.880355 
L 201.395307 148.322629 
L 203.462826 148.771177 
L 205.530346 151.788313 
L 207.397782 140.298672 
L 209.465302 136.326717 
L 211.466127 137.923246 
L 213.533646 129.033014 
L 215.534472 116.811704 
L 217.601991 116.855184 
L 219.66951 143.781015 
L 221.670335 147.619697 
L 223.737855 153.071067 
L 225.73868 142.639115 
L 227.806199 133.308831 
L 229.873719 150.429261 
L 231.741156 134.054328 
L 233.808675 144.16101 
L 235.8095 139.319531 
L 237.877019 129.463819 
L 239.877845 116.956638 
L 241.945364 114.480257 
L 244.012883 139.60965 
L 246.013709 143.321556 
L 248.081228 151.607311 
L 250.082053 147.995361 
L 252.149572 149.710335 
L 254.217092 153.262397 
L 256.151223 139.086637 
L 258.218742 136.862725 
L 260.219567 127.631897 
L 262.287087 125.040735 
L 264.287912 116.466526 
L 266.355431 111.11811 
L 268.422951 134.422161 
L 270.423776 141.087482 
L 272.491295 145.490243 
L 274.49212 144.369333 
L 276.55964 137.323017 
L 278.627159 148.731861 
L 282.562115 142.064458 
L 284.56294 133.645846 
L 286.63046 132.269967 
L 288.631285 125.888935 
L 290.698804 124.339218 
L 292.766324 153.685622 
L 294.767149 155.034096 
L 296.834668 161.230712 
L 298.835493 148.58751 
L 300.903013 152.278342 
L 302.970532 159.232449 
L 304.837969 144.307111 
L 306.905488 146.903937 
L 308.906314 155.254497 
L 310.973833 146.262227 
L 312.974658 129.470399 
L 315.042177 118.451213 
L 317.109697 152.303997 
L 319.110522 155.06275 
L 321.178041 158.106291 
L 323.178867 153.138869 
L 325.246386 154.624031 
L 327.313905 154.703662 
L 329.181342 136.57877 
L 333.249687 136.460823 
L 335.317206 134.452564 
L 337.318031 122.465815 
L 339.385551 115.738355 
L 341.45307 144.673695 
L 343.453895 147.502 
L 345.521415 154.705078 
L 347.52224 147.256028 
L 349.589759 148.824236 
L 351.657278 153.87462 
L 353.591409 139.747255 
L 355.658929 139.320864 
L 359.727273 129.021685 
L 361.728099 114.3494 
L 363.795618 121.680753 
L 365.863137 151.077884 
L 367.863962 154.611287 
L 369.931482 162.496807 
L 371.932307 160.503791 
L 373.999826 160.488964 
L 376.067346 170.205739 
L 377.934783 151.582573 
L 380.002302 150.814337 
L 382.003127 144.688772 
L 384.070646 140.839178 
L 386.071472 132.960322 
L 388.138991 126.803105 
L 390.20651 151.146436 
L 392.207336 152.552551 
L 394.274855 158.248893 
L 396.27568 157.600853 
L 398.343199 159.193216 
L 400.410719 165.716685 
L 402.278156 157.019116 
L 404.345675 154.027384 
L 406.3465 148.900202 
L 408.41402 140.683332 
L 410.414845 130.452705 
L 412.482364 125.490198 
L 414.549883 151.707516 
L 416.550709 156.752236 
L 418.618228 166.138244 
L 420.619053 163.96381 
L 422.686573 165.806228 
L 424.754092 176.597934 
L 426.621529 165.743256 
L 428.689048 159.228201 
L 430.689873 156.041224 
L 432.757393 148.764763 
L 434.758218 139.446391 
L 436.825737 133.120333 
L 438.893257 165.449139 
L 440.894082 163.229809 
L 442.961601 175.964637 
L 444.962426 164.771945 
L 447.029946 168.293354 
L 449.097465 170.56616 
L 451.031596 156.123854 
L 453.099115 153.915268 
L 455.099941 148.064912 
L 457.16746 134.465059 
L 459.168285 120.368013 
L 461.235804 114.775874 
L 463.303324 147.727898 
L 465.304149 152.473753 
L 467.371668 162.394686 
L 469.372494 159.423196 
L 471.440013 162.819661 
L 473.507532 171.670244 
L 475.374969 161.880669 
L 477.442489 159.650343 
L 479.443314 156.651948 
L 481.510833 150.827747 
L 483.511658 136.926779 
L 485.579178 130.379322 
L 487.646697 155.716538 
L 489.647522 156.471946 
L 491.715042 161.189148 
L 493.715867 157.343552 
L 495.783386 163.74441 
L 497.850905 173.350901 
L 499.718342 153.141368 
L 501.785862 155.481394 
L 503.786687 149.311099 
L 505.854206 137.153594 
L 507.855031 121.007058 
L 509.922551 116.230883 
L 511.99007 143.697136 
L 513.990895 147.092768 
L 516.058415 152.553217 
L 518.05924 153.19601 
L 520.126759 155.636657 
L 522.194279 166.742971 
L 524.061715 151.006666 
L 526.129235 146.35152 
L 528.13006 146.406662 
L 530.197579 138.272171 
L 532.198404 123.462781 
L 534.265924 117.794593 
L 536.333443 142.22072 
L 538.334268 143.686225 
L 540.401788 150.452 
L 542.402613 151.592068 
L 544.470132 158.569165 
L 546.537652 159.208626 
L 548.471783 143.277409 
L 550.539302 145.612437 
L 554.607647 133.924053 
L 556.608472 120.154193 
L 558.675991 115.408671 
L 560.74351 146.506367 
L 562.744336 145.546051 
L 564.811855 152.786778 
L 566.81268 140.835013 
L 568.8802 151.917088 
L 570.947719 159.741219 
L 572.815156 141.263819 
L 574.882675 144.093291 
L 576.8835 141.058079 
L 578.95102 133.717563 
L 580.951845 117.926616 
L 583.019364 112.749456 
L 585.086884 144.961232 
L 587.087709 143.802505 
L 589.155228 149.570649 
L 591.156053 143.322056 
L 595.291092 156.465366 
L 597.158529 149.180325 
L 599.226048 145.963196 
L 601.226873 140.54731 
L 603.294393 136.882466 
L 605.295218 130.003159 
L 607.362737 125.194998 
L 609.430257 147.084772 
L 611.431082 155.12772 
L 613.498601 157.009953 
L 615.499426 148.877795 
L 617.566946 157.325061 
L 619.634465 164.71647 
L 621.501902 144.682191 
L 625.570247 145.24477 
L 629.638591 121.855757 
L 631.70611 118.703848 
L 633.77363 145.736298 
L 635.774455 142.733322 
L 637.841974 147.556975 
L 639.8428 151.247474 
L 641.910319 157.174545 
L 643.977838 158.905763 
L 645.911969 141.474058 
L 647.979489 139.411073 
L 649.980314 137.594311 
L 652.047833 133.42861 
L 654.048658 122.260991 
L 656.116178 115.003687 
L 658.183697 139.893355 
L 660.184522 137.799052 
L 662.252042 139.762331 
L 664.252867 140.751884 
L 666.320386 150.504726 
L 668.387906 158.401658 
L 670.255342 140.837595 
L 672.322862 136.028186 
L 674.323687 136.272492 
L 676.391206 130.109444 
L 678.392031 116.786965 
L 680.459551 110.059172 
L 682.52707 173.12467 
L 684.527895 165.410323 
L 686.595415 160.414998 
L 688.59624 155.221095 
L 690.663759 156.996959 
L 692.731279 159.623938 
L 694.598716 137.200906 
L 696.666235 139.753252 
L 698.66706 137.348589 
L 700.734579 130.87818 
L 702.735405 118.741331 
L 704.802924 109.353991 
L 706.870443 141.746351 
L 708.871269 133.226785 
L 710.938788 138.885311 
L 712.939613 122.875047 
L 715.007132 134.61749 
L 717.074652 142.98096 
L 718.942089 123.208396 
L 721.009608 125.491364 
L 723.010433 126.97661 
L 725.077953 122.067995 
L 727.078778 105.310318 
L 729.146297 104.616132 
L 731.213816 134.531862 
L 733.214642 122.451321 
L 735.282161 124.724877 
L 737.282986 106.805392 
L 739.350506 120.12479 
L 741.418025 121.323415 
L 743.352156 101.703865 
L 745.419675 94.119959 
L 747.4205 98.882723 
L 749.48802 91.961101 
L 751.488845 74.488747 
L 753.556364 69.031131 
L 755.623884 110.050093 
L 757.624709 95.722984 
L 759.692228 96.710538 
L 761.693053 95.561224 
L 763.760573 100.151316 
L 765.828092 108.975412 
L 767.695529 74.540557 
L 769.763048 79.36496 
L 771.763874 79.612515 
L 773.831393 76.889912 
L 775.832218 55.867663 
L 777.899737 57.588885 
L 779.967257 100.955953 
L 781.968082 97.905581 
L 784.035601 85.256798 
L 786.036427 85.661365 
L 788.103946 94.966993 
L 790.171465 109.020058 
L 792.038902 76.59338 
L 794.106421 77.351121 
L 796.107247 87.637055 
L 798.174766 78.12652 
L 800.175591 56.675715 
L 802.243111 55.007635 
L 804.31063 90.598717 
L 806.311455 71.308518 
L 808.378974 67.45526 
L 810.3798 62.06886 
L 812.447319 75.804903 
L 814.514838 92.892264 
L 816.382275 49.778165 
L 818.449795 46.575196 
L 820.45062 44.735361 
L 822.518139 38.177908 
L 826.586484 30.20018 
L 828.654003 69.930807 
L 830.654828 58.305561 
L 832.722348 59.085959 
L 834.723173 63.035257 
L 836.790692 78.535085 
L 838.858212 87.867534 
L 840.792343 53.729213 
L 842.859862 57.207058 
L 844.860687 54.082137 
L 846.928206 46.941864 
L 848.929032 32.40535 
L 850.996551 33.604225 
L 853.06407 79.924874 
L 855.064896 71.031393 
L 857.132415 79.120571 
L 859.13324 69.062616 
L 861.200759 89.570182 
L 863.268279 97.936651 
L 865.135716 67.251518 
L 867.203235 66.091876 
L 869.20406 61.246899 
L 871.27158 56.689458 
L 873.272405 41.853497 
L 875.339924 40.826044 
L 877.407443 81.854419 
L 879.408269 75.116297 
L 881.475788 85.958897 
L 883.476613 77.641239 
L 885.544133 94.030749 
L 887.611652 111.713757 
L 889.479089 76.160409 
L 891.546608 80.02991 
L 893.547433 76.006562 
L 895.614953 61.706274 
L 897.615778 51.106148 
L 899.683297 49.067486 
L 901.750817 77.370029 
L 903.751642 66.900843 
L 905.819161 68.454475 
L 907.819986 80.880109 
L 909.887506 95.824272 
L 911.955025 104.620547 
L 913.822462 65.762441 
L 915.889981 73.292955 
L 917.890806 62.706989 
L 919.958326 60.189043 
L 921.959151 45.184574 
L 924.02667 58.850315 
L 926.09419 74.315826 
L 928.095015 70.351201 
L 932.163359 78.356083 
L 934.230879 88.994025 
L 936.298398 93.709144 
L 938.232529 57.727739 
L 940.300048 65.635499 
L 942.300874 64.548407 
L 944.368393 57.809952 
L 946.369218 47.042901 
L 948.436738 45.140511 
L 950.504257 75.664799 
L 952.505082 77.922779 
L 954.572602 78.482776 
L 956.573427 73.044983 
L 958.640946 83.841187 
L 960.708465 100.626185 
L 962.575902 63.518955 
L 964.643422 76.495174 
L 966.644247 65.342964 
L 968.711766 61.456887 
L 970.712591 50.168988 
L 972.780111 47.970732 
L 974.84763 78.279618 
L 976.848455 71.012652 
L 978.915975 85.858859 
L 980.9168 66.798723 
L 982.984319 92.542089 
L 985.051839 103.618999 
L 986.919275 66.084962 
L 988.986795 62.498999 
L 990.98762 54.08247 
L 993.055139 52.849277 
L 995.055964 41.636095 
L 997.123484 36.090351 
L 999.191003 62.484256 
L 1001.191828 56.622738 
L 1003.259348 72.949693 
L 1005.260173 57.264782 
L 1007.327692 79.383369 
L 1009.395212 86.440346 
L 1011.262648 52.903753 
L 1013.330168 49.27406 
L 1015.330993 40.341263 
L 1017.398512 38.606547 
L 1019.399338 26.15784 
L 1021.466857 25.673059 
L 1023.534376 59.116528 
L 1025.535201 42.971325 
L 1027.602721 58.874304 
L 1029.603546 50.264445 
L 1029.603546 50.264445 
" clip-path="url(#p1a2d5fb343)" style="fill: none; stroke: #1f77b4; stroke-width: 1.5; stroke-linecap: square"/>
   </g>
   <g id="line2d_18">
    <path d="M 678.392031 184.321635 
L 678.392031 -1 
" clip-path="url(#p1a2d5fb343)" style="fill: none; stroke-dasharray: 5.55,2.4; stroke-dashoffset: 0; stroke: #ff0000; stroke-width: 1.5"/>
   </g>
   <g id="line2d_19">
    <path d="M 686.595415 184.321635 
L 686.595415 -1 
" clip-path="url(#p1a2d5fb343)" style="fill: none; stroke-dasharray: 5.55,2.4; stroke-dashoffset: 0; stroke: #ff0000; stroke-width: 1.5"/>
   </g>
   <g id="patch_3">
    <path d="M 34.283053 184.321635 
L 34.283053 18.118365 
" style="fill: none; stroke: #000000; stroke-width: 0.8; stroke-linejoin: miter; stroke-linecap: square"/>
   </g>
   <g id="patch_4">
    <path d="M 1076.99976 184.321635 
L 1076.99976 18.118365 
" style="fill: none; stroke: #000000; stroke-width: 0.8; stroke-linejoin: miter; stroke-linecap: square"/>
   </g>
   <g id="patch_5">
    <path d="M 34.283052 184.321635 
L 1076.99976 184.321635 
" style="fill: none; stroke: #000000; stroke-width: 0.8; stroke-linejoin: miter; stroke-linecap: square"/>
   </g>
   <g id="patch_6">
    <path d="M 34.283052 18.118365 
L 1076.99976 18.118365 
" style="fill: none; stroke: #000000; stroke-width: 0.8; stroke-linejoin: miter; stroke-linecap: square"/>
   </g>
   <g id="text_18">
    <!-- JFK Domestic Passengers -->
    <g transform="translate(480.537344 12.118365) scale(0.12 -0.12)">
     <defs>
      <path id="DejaVuSans-4a" d="M 628 4666 
L 1259 4666 
L 1259 325 
Q 1259 -519 939 -900 
Q 619 -1281 -91 -1281 
L -331 -1281 
L -331 -750 
L -134 -750 
Q 284 -750 456 -515 
Q 628 -281 628 325 
L 628 4666 
z
" transform="scale(0.015625)"/>
      <path id="DejaVuSans-46" d="M 628 4666 
L 3309 4666 
L 3309 4134 
L 1259 4134 
L 1259 2759 
L 3109 2759 
L 3109 2228 
L 1259 2228 
L 1259 0 
L 628 0 
L 628 4666 
z
" transform="scale(0.015625)"/>
      <path id="DejaVuSans-4b" d="M 628 4666 
L 1259 4666 
L 1259 2694 
L 3353 4666 
L 4166 4666 
L 1850 2491 
L 4331 0 
L 3500 0 
L 1259 2247 
L 1259 0 
L 628 0 
L 628 4666 
z
" transform="scale(0.015625)"/>
      <path id="DejaVuSans-20" transform="scale(0.015625)"/>
      <path id="DejaVuSans-44" d="M 1259 4147 
L 1259 519 
L 2022 519 
Q 2988 519 3436 956 
Q 3884 1394 3884 2338 
Q 3884 3275 3436 3711 
Q 2988 4147 2022 4147 
L 1259 4147 
z
M 628 4666 
L 1925 4666 
Q 3281 4666 3915 4102 
Q 4550 3538 4550 2338 
Q 4550 1131 3912 565 
Q 3275 0 1925 0 
L 628 0 
L 628 4666 
z
" transform="scale(0.015625)"/>
      <path id="DejaVuSans-6f" d="M 1959 3097 
Q 1497 3097 1228 2736 
Q 959 2375 959 1747 
Q 959 1119 1226 758 
Q 1494 397 1959 397 
Q 2419 397 2687 759 
Q 2956 1122 2956 1747 
Q 2956 2369 2687 2733 
Q 2419 3097 1959 3097 
z
M 1959 3584 
Q 2709 3584 3137 3096 
Q 3566 2609 3566 1747 
Q 3566 888 3137 398 
Q 2709 -91 1959 -91 
Q 1206 -91 779 398 
Q 353 888 353 1747 
Q 353 2609 779 3096 
Q 1206 3584 1959 3584 
z
" transform="scale(0.015625)"/>
      <path id="DejaVuSans-6d" d="M 3328 2828 
Q 3544 3216 3844 3400 
Q 4144 3584 4550 3584 
Q 5097 3584 5394 3201 
Q 5691 2819 5691 2113 
L 5691 0 
L 5113 0 
L 5113 2094 
Q 5113 2597 4934 2840 
Q 4756 3084 4391 3084 
Q 3944 3084 3684 2787 
Q 3425 2491 3425 1978 
L 3425 0 
L 2847 0 
L 2847 2094 
Q 2847 2600 2669 2842 
Q 2491 3084 2119 3084 
Q 1678 3084 1418 2786 
Q 1159 2488 1159 1978 
L 1159 0 
L 581 0 
L 581 3500 
L 1159 3500 
L 1159 2956 
Q 1356 3278 1631 3431 
Q 1906 3584 2284 3584 
Q 2666 3584 2933 3390 
Q 3200 3197 3328 2828 
z
" transform="scale(0.015625)"/>
      <path id="DejaVuSans-73" d="M 2834 3397 
L 2834 2853 
Q 2591 2978 2328 3040 
Q 2066 3103 1784 3103 
Q 1356 3103 1142 2972 
Q 928 2841 928 2578 
Q 928 2378 1081 2264 
Q 1234 2150 1697 2047 
L 1894 2003 
Q 2506 1872 2764 1633 
Q 3022 1394 3022 966 
Q 3022 478 2636 193 
Q 2250 -91 1575 -91 
Q 1294 -91 989 -36 
Q 684 19 347 128 
L 347 722 
Q 666 556 975 473 
Q 1284 391 1588 391 
Q 1994 391 2212 530 
Q 2431 669 2431 922 
Q 2431 1156 2273 1281 
Q 2116 1406 1581 1522 
L 1381 1569 
Q 847 1681 609 1914 
Q 372 2147 372 2553 
Q 372 3047 722 3315 
Q 1072 3584 1716 3584 
Q 2034 3584 2315 3537 
Q 2597 3491 2834 3397 
z
" transform="scale(0.015625)"/>
      <path id="DejaVuSans-74" d="M 1172 4494 
L 1172 3500 
L 2356 3500 
L 2356 3053 
L 1172 3053 
L 1172 1153 
Q 1172 725 1289 603 
Q 1406 481 1766 481 
L 2356 481 
L 2356 0 
L 1766 0 
Q 1100 0 847 248 
Q 594 497 594 1153 
L 594 3053 
L 172 3053 
L 172 3500 
L 594 3500 
L 594 4494 
L 1172 4494 
z
" transform="scale(0.015625)"/>
      <path id="DejaVuSans-69" d="M 603 3500 
L 1178 3500 
L 1178 0 
L 603 0 
L 603 3500 
z
M 603 4863 
L 1178 4863 
L 1178 4134 
L 603 4134 
L 603 4863 
z
" transform="scale(0.015625)"/>
      <path id="DejaVuSans-63" d="M 3122 3366 
L 3122 2828 
Q 2878 2963 2633 3030 
Q 2388 3097 2138 3097 
Q 1578 3097 1268 2742 
Q 959 2388 959 1747 
Q 959 1106 1268 751 
Q 1578 397 2138 397 
Q 2388 397 2633 464 
Q 2878 531 3122 666 
L 3122 134 
Q 2881 22 2623 -34 
Q 2366 -91 2075 -91 
Q 1284 -91 818 406 
Q 353 903 353 1747 
Q 353 2603 823 3093 
Q 1294 3584 2113 3584 
Q 2378 3584 2631 3529 
Q 2884 3475 3122 3366 
z
" transform="scale(0.015625)"/>
      <path id="DejaVuSans-50" d="M 1259 4147 
L 1259 2394 
L 2053 2394 
Q 2494 2394 2734 2622 
Q 2975 2850 2975 3272 
Q 2975 3691 2734 3919 
Q 2494 4147 2053 4147 
L 1259 4147 
z
M 628 4666 
L 2053 4666 
Q 2838 4666 3239 4311 
Q 3641 3956 3641 3272 
Q 3641 2581 3239 2228 
Q 2838 1875 2053 1875 
L 1259 1875 
L 1259 0 
L 628 0 
L 628 4666 
z
" transform="scale(0.015625)"/>
      <path id="DejaVuSans-61" d="M 2194 1759 
Q 1497 1759 1228 1600 
Q 959 1441 959 1056 
Q 959 750 1161 570 
Q 1363 391 1709 391 
Q 2188 391 2477 730 
Q 2766 1069 2766 1631 
L 2766 1759 
L 2194 1759 
z
M 3341 1997 
L 3341 0 
L 2766 0 
L 2766 531 
Q 2569 213 2275 61 
Q 1981 -91 1556 -91 
Q 1019 -91 701 211 
Q 384 513 384 1019 
Q 384 1609 779 1909 
Q 1175 2209 1959 2209 
L 2766 2209 
L 2766 2266 
Q 2766 2663 2505 2880 
Q 2244 3097 1772 3097 
Q 1472 3097 1187 3025 
Q 903 2953 641 2809 
L 641 3341 
Q 956 3463 1253 3523 
Q 1550 3584 1831 3584 
Q 2591 3584 2966 3190 
Q 3341 2797 3341 1997 
z
" transform="scale(0.015625)"/>
      <path id="DejaVuSans-6e" d="M 3513 2113 
L 3513 0 
L 2938 0 
L 2938 2094 
Q 2938 2591 2744 2837 
Q 2550 3084 2163 3084 
Q 1697 3084 1428 2787 
Q 1159 2491 1159 1978 
L 1159 0 
L 581 0 
L 581 3500 
L 1159 3500 
L 1159 2956 
Q 1366 3272 1645 3428 
Q 1925 3584 2291 3584 
Q 2894 3584 3203 3211 
Q 3513 2838 3513 2113 
z
" transform="scale(0.015625)"/>
      <path id="DejaVuSans-67" d="M 2906 1791 
Q 2906 2416 2648 2759 
Q 2391 3103 1925 3103 
Q 1463 3103 1205 2759 
Q 947 2416 947 1791 
Q 947 1169 1205 825 
Q 1463 481 1925 481 
Q 2391 481 2648 825 
Q 2906 1169 2906 1791 
z
M 3481 434 
Q 3481 -459 3084 -895 
Q 2688 -1331 1869 -1331 
Q 1566 -1331 1297 -1286 
Q 1028 -1241 775 -1147 
L 775 -588 
Q 1028 -725 1275 -790 
Q 1522 -856 1778 -856 
Q 2344 -856 2625 -561 
Q 2906 -266 2906 331 
L 2906 616 
Q 2728 306 2450 153 
Q 2172 0 1784 0 
Q 1141 0 747 490 
Q 353 981 353 1791 
Q 353 2603 747 3093 
Q 1141 3584 1784 3584 
Q 2172 3584 2450 3431 
Q 2728 3278 2906 2969 
L 2906 3500 
L 3481 3500 
L 3481 434 
z
" transform="scale(0.015625)"/>
      <path id="DejaVuSans-72" d="M 2631 2963 
Q 2534 3019 2420 3045 
Q 2306 3072 2169 3072 
Q 1681 3072 1420 2755 
Q 1159 2438 1159 1844 
L 1159 0 
L 581 0 
L 581 3500 
L 1159 3500 
L 1159 2956 
Q 1341 3275 1631 3429 
Q 1922 3584 2338 3584 
Q 2397 3584 2469 3576 
Q 2541 3569 2628 3553 
L 2631 2963 
z
" transform="scale(0.015625)"/>
     </defs>
     <use xlink:href="#DejaVuSans-4a"/>
     <use xlink:href="#DejaVuSans-46" x="29.492188"/>
     <use xlink:href="#DejaVuSans-4b" x="87.011719"/>
     <use xlink:href="#DejaVuSans-20" x="152.587891"/>
     <use xlink:href="#DejaVuSans-44" x="184.375"/>
     <use xlink:href="#DejaVuSans-6f" x="261.376953"/>
     <use xlink:href="#DejaVuSans-6d" x="322.558594"/>
     <use xlink:href="#DejaVuSans-65" x="419.970703"/>
     <use xlink:href="#DejaVuSans-73" x="481.494141"/>
     <use xlink:href="#DejaVuSans-74" x="533.59375"/>
     <use xlink:href="#DejaVuSans-69" x="572.802734"/>
     <use xlink:href="#DejaVuSans-63" x="600.585938"/>
     <use xlink:href="#DejaVuSans-20" x="655.566406"/>
     <use xlink:href="#DejaVuSans-50" x="687.353516"/>
     <use xlink:href="#DejaVuSans-61" x="743.15625"/>
     <use xlink:href="#DejaVuSans-73" x="804.435547"/>
     <use xlink:href="#DejaVuSans-73" x="856.535156"/>
     <use xlink:href="#DejaVuSans-65" x="908.634766"/>
     <use xlink:href="#DejaVuSans-6e" x="970.158203"/>
     <use xlink:href="#DejaVuSans-67" x="1033.537109"/>
     <use xlink:href="#DejaVuSans-65" x="1097.013672"/>
     <use xlink:href="#DejaVuSans-72" x="1158.537109"/>
     <use xlink:href="#DejaVuSans-73" x="1199.650391"/>
    </g>
   </g>
   <g id="legend_1">
    <g id="patch_7">
     <path d="M 41.283053 57.09649 
L 180.01899 57.09649 
Q 182.01899 57.09649 182.01899 55.09649 
L 182.01899 25.118365 
Q 182.01899 23.118365 180.01899 23.118365 
L 41.283053 23.118365 
Q 39.283053 23.118365 39.283053 25.118365 
L 39.283053 55.09649 
Q 39.283053 57.09649 41.283053 57.09649 
z
" style="fill: #ffffff; opacity: 0.8; stroke: #cccccc; stroke-linejoin: miter"/>
    </g>
    <g id="line2d_20">
     <path d="M 43.283053 31.216802 
L 53.283053 31.216802 
L 63.283053 31.216802 
" style="fill: none; stroke: #1f77b4; stroke-width: 1.5; stroke-linecap: square"/>
    </g>
    <g id="text_19">
     <!-- Domestic Passengers -->
     <g transform="translate(71.283052 34.716802) scale(0.1 -0.1)">
      <use xlink:href="#DejaVuSans-44"/>
      <use xlink:href="#DejaVuSans-6f" x="77.001953"/>
      <use xlink:href="#DejaVuSans-6d" x="138.183594"/>
      <use xlink:href="#DejaVuSans-65" x="235.595703"/>
      <use xlink:href="#DejaVuSans-73" x="297.119141"/>
      <use xlink:href="#DejaVuSans-74" x="349.21875"/>
      <use xlink:href="#DejaVuSans-69" x="388.427734"/>
      <use xlink:href="#DejaVuSans-63" x="416.210938"/>
      <use xlink:href="#DejaVuSans-20" x="471.191406"/>
      <use xlink:href="#DejaVuSans-50" x="502.978516"/>
      <use xlink:href="#DejaVuSans-61" x="558.78125"/>
      <use xlink:href="#DejaVuSans-73" x="620.060547"/>
      <use xlink:href="#DejaVuSans-73" x="672.160156"/>
      <use xlink:href="#DejaVuSans-65" x="724.259766"/>
      <use xlink:href="#DejaVuSans-6e" x="785.783203"/>
      <use xlink:href="#DejaVuSans-67" x="849.162109"/>
      <use xlink:href="#DejaVuSans-65" x="912.638672"/>
      <use xlink:href="#DejaVuSans-72" x="974.162109"/>
      <use xlink:href="#DejaVuSans-73" x="1015.275391"/>
     </g>
    </g>
    <g id="line2d_21">
     <path d="M 43.283053 47.49649 
L 53.283053 47.49649 
L 63.283053 47.49649 
" style="fill: none; stroke-dasharray: 5.55,2.4; stroke-dashoffset: 0; stroke: #ff0000; stroke-width: 1.5"/>
    </g>
    <g id="text_20">
     <!-- Sept 11$^{th}$, 2001 -->
     <g transform="translate(71.283052 50.99649) scale(0.1 -0.1)">
      <defs>
       <path id="DejaVuSans-53" d="M 3425 4513 
L 3425 3897 
Q 3066 4069 2747 4153 
Q 2428 4238 2131 4238 
Q 1616 4238 1336 4038 
Q 1056 3838 1056 3469 
Q 1056 3159 1242 3001 
Q 1428 2844 1947 2747 
L 2328 2669 
Q 3034 2534 3370 2195 
Q 3706 1856 3706 1288 
Q 3706 609 3251 259 
Q 2797 -91 1919 -91 
Q 1588 -91 1214 -16 
Q 841 59 441 206 
L 441 856 
Q 825 641 1194 531 
Q 1563 422 1919 422 
Q 2459 422 2753 634 
Q 3047 847 3047 1241 
Q 3047 1584 2836 1778 
Q 2625 1972 2144 2069 
L 1759 2144 
Q 1053 2284 737 2584 
Q 422 2884 422 3419 
Q 422 4038 858 4394 
Q 1294 4750 2059 4750 
Q 2388 4750 2728 4690 
Q 3069 4631 3425 4513 
z
" transform="scale(0.015625)"/>
       <path id="DejaVuSans-70" d="M 1159 525 
L 1159 -1331 
L 581 -1331 
L 581 3500 
L 1159 3500 
L 1159 2969 
Q 1341 3281 1617 3432 
Q 1894 3584 2278 3584 
Q 2916 3584 3314 3078 
Q 3713 2572 3713 1747 
Q 3713 922 3314 415 
Q 2916 -91 2278 -91 
Q 1894 -91 1617 61 
Q 1341 213 1159 525 
z
M 3116 1747 
Q 3116 2381 2855 2742 
Q 2594 3103 2138 3103 
Q 1681 3103 1420 2742 
Q 1159 2381 1159 1747 
Q 1159 1113 1420 752 
Q 1681 391 2138 391 
Q 2594 391 2855 752 
Q 3116 1113 3116 1747 
z
" transform="scale(0.015625)"/>
       <path id="DejaVuSans-Oblique-74" d="M 2706 3500 
L 2619 3053 
L 1472 3053 
L 1100 1153 
Q 1081 1047 1072 975 
Q 1063 903 1063 863 
Q 1063 663 1183 572 
Q 1303 481 1569 481 
L 2150 481 
L 2053 0 
L 1503 0 
Q 991 0 739 200 
Q 488 400 488 806 
Q 488 878 497 964 
Q 506 1050 525 1153 
L 897 3053 
L 409 3053 
L 500 3500 
L 978 3500 
L 1172 4494 
L 1747 4494 
L 1556 3500 
L 2706 3500 
z
" transform="scale(0.015625)"/>
       <path id="DejaVuSans-Oblique-68" d="M 3566 2113 
L 3156 0 
L 2578 0 
L 2988 2091 
Q 3016 2238 3031 2350 
Q 3047 2463 3047 2528 
Q 3047 2791 2881 2937 
Q 2716 3084 2419 3084 
Q 1956 3084 1617 2771 
Q 1278 2459 1178 1941 
L 800 0 
L 225 0 
L 1172 4863 
L 1747 4863 
L 1375 2950 
Q 1594 3244 1934 3414 
Q 2275 3584 2650 3584 
Q 3113 3584 3367 3334 
Q 3622 3084 3622 2631 
Q 3622 2519 3608 2391 
Q 3594 2263 3566 2113 
z
" transform="scale(0.015625)"/>
       <path id="DejaVuSans-2c" d="M 750 794 
L 1409 794 
L 1409 256 
L 897 -744 
L 494 -744 
L 750 256 
L 750 794 
z
" transform="scale(0.015625)"/>
      </defs>
      <use xlink:href="#DejaVuSans-53" transform="translate(0 0.529687)"/>
      <use xlink:href="#DejaVuSans-65" transform="translate(63.476562 0.529687)"/>
      <use xlink:href="#DejaVuSans-70" transform="translate(125 0.529687)"/>
      <use xlink:href="#DejaVuSans-74" transform="translate(188.476562 0.529687)"/>
      <use xlink:href="#DejaVuSans-20" transform="translate(227.685547 0.529687)"/>
      <use xlink:href="#DejaVuSans-31" transform="translate(259.472656 0.529687)"/>
      <use xlink:href="#DejaVuSans-31" transform="translate(323.095703 0.529687)"/>
      <use xlink:href="#DejaVuSans-Oblique-74" transform="translate(387.675781 38.810937) scale(0.7)"/>
      <use xlink:href="#DejaVuSans-Oblique-68" transform="translate(415.12207 38.810937) scale(0.7)"/>
      <use xlink:href="#DejaVuSans-2c" transform="translate(462.22168 0.529687)"/>
      <use xlink:href="#DejaVuSans-20" transform="translate(494.008789 0.529687)"/>
      <use xlink:href="#DejaVuSans-32" transform="translate(525.795898 0.529687)"/>
      <use xlink:href="#DejaVuSans-30" transform="translate(589.418945 0.529687)"/>
      <use xlink:href="#DejaVuSans-30" transform="translate(653.041992 0.529687)"/>
      <use xlink:href="#DejaVuSans-31" transform="translate(716.665039 0.529687)"/>
     </g>
    </g>
   </g>
  </g>
  <g id="axes_2">
   <g id="patch_8">
    <path d="M 34.283053 388.321635 
L 1076.99976 388.321635 
L 1076.99976 222.118365 
L 34.283053 222.118365 
z
" style="fill: #ffffff"/>
   </g>
   <g id="matplotlib.axis_3">
    <g id="xtick_9">
     <g id="line2d_22">
      <g>
       <use xlink:href="#mf6357bae88" x="154.709386" y="388.321635" style="stroke: #000000; stroke-width: 0.8"/>
      </g>
     </g>
     <g id="text_21">
      <!-- 1980 -->
      <g transform="translate(141.984386 402.920073) scale(0.1 -0.1)">
       <use xlink:href="#DejaVuSans-31"/>
       <use xlink:href="#DejaVuSans-39" x="63.623047"/>
       <use xlink:href="#DejaVuSans-38" x="127.246094"/>
       <use xlink:href="#DejaVuSans-30" x="190.869141"/>
      </g>
     </g>
    </g>
    <g id="xtick_10">
     <g id="line2d_23">
      <g>
       <use xlink:href="#mf6357bae88" x="276.55964" y="388.321635" style="stroke: #000000; stroke-width: 0.8"/>
      </g>
     </g>
     <g id="text_22">
      <!-- 1985 -->
      <g transform="translate(263.83464 402.920073) scale(0.1 -0.1)">
       <use xlink:href="#DejaVuSans-31"/>
       <use xlink:href="#DejaVuSans-39" x="63.623047"/>
       <use xlink:href="#DejaVuSans-38" x="127.246094"/>
       <use xlink:href="#DejaVuSans-35" x="190.869141"/>
      </g>
     </g>
    </g>
    <g id="xtick_11">
     <g id="line2d_24">
      <g>
       <use xlink:href="#mf6357bae88" x="398.343199" y="388.321635" style="stroke: #000000; stroke-width: 0.8"/>
      </g>
     </g>
     <g id="text_23">
      <!-- 1990 -->
      <g transform="translate(385.618199 402.920073) scale(0.1 -0.1)">
       <use xlink:href="#DejaVuSans-31"/>
       <use xlink:href="#DejaVuSans-39" x="63.623047"/>
       <use xlink:href="#DejaVuSans-39" x="127.246094"/>
       <use xlink:href="#DejaVuSans-30" x="190.869141"/>
      </g>
     </g>
    </g>
    <g id="xtick_12">
     <g id="line2d_25">
      <g>
       <use xlink:href="#mf6357bae88" x="520.126759" y="388.321635" style="stroke: #000000; stroke-width: 0.8"/>
      </g>
     </g>
     <g id="text_24">
      <!-- 1995 -->
      <g transform="translate(507.401759 402.920073) scale(0.1 -0.1)">
       <use xlink:href="#DejaVuSans-31"/>
       <use xlink:href="#DejaVuSans-39" x="63.623047"/>
       <use xlink:href="#DejaVuSans-39" x="127.246094"/>
       <use xlink:href="#DejaVuSans-35" x="190.869141"/>
      </g>
     </g>
    </g>
    <g id="xtick_13">
     <g id="line2d_26">
      <g>
       <use xlink:href="#mf6357bae88" x="641.910319" y="388.321635" style="stroke: #000000; stroke-width: 0.8"/>
      </g>
     </g>
     <g id="text_25">
      <!-- 2000 -->
      <g transform="translate(629.185319 402.920073) scale(0.1 -0.1)">
       <use xlink:href="#DejaVuSans-32"/>
       <use xlink:href="#DejaVuSans-30" x="63.623047"/>
       <use xlink:href="#DejaVuSans-30" x="127.246094"/>
       <use xlink:href="#DejaVuSans-30" x="190.869141"/>
      </g>
     </g>
    </g>
    <g id="xtick_14">
     <g id="line2d_27">
      <g>
       <use xlink:href="#mf6357bae88" x="763.760573" y="388.321635" style="stroke: #000000; stroke-width: 0.8"/>
      </g>
     </g>
     <g id="text_26">
      <!-- 2005 -->
      <g transform="translate(751.035573 402.920073) scale(0.1 -0.1)">
       <use xlink:href="#DejaVuSans-32"/>
       <use xlink:href="#DejaVuSans-30" x="63.623047"/>
       <use xlink:href="#DejaVuSans-30" x="127.246094"/>
       <use xlink:href="#DejaVuSans-35" x="190.869141"/>
      </g>
     </g>
    </g>
    <g id="xtick_15">
     <g id="line2d_28">
      <g>
       <use xlink:href="#mf6357bae88" x="885.544133" y="388.321635" style="stroke: #000000; stroke-width: 0.8"/>
      </g>
     </g>
     <g id="text_27">
      <!-- 2010 -->
      <g transform="translate(872.819133 402.920073) scale(0.1 -0.1)">
       <use xlink:href="#DejaVuSans-32"/>
       <use xlink:href="#DejaVuSans-30" x="63.623047"/>
       <use xlink:href="#DejaVuSans-31" x="127.246094"/>
       <use xlink:href="#DejaVuSans-30" x="190.869141"/>
      </g>
     </g>
    </g>
    <g id="xtick_16">
     <g id="line2d_29">
      <g>
       <use xlink:href="#mf6357bae88" x="1007.327692" y="388.321635" style="stroke: #000000; stroke-width: 0.8"/>
      </g>
     </g>
     <g id="text_28">
      <!-- 2015 -->
      <g transform="translate(994.602692 402.920073) scale(0.1 -0.1)">
       <use xlink:href="#DejaVuSans-32"/>
       <use xlink:href="#DejaVuSans-30" x="63.623047"/>
       <use xlink:href="#DejaVuSans-31" x="127.246094"/>
       <use xlink:href="#DejaVuSans-35" x="190.869141"/>
      </g>
     </g>
    </g>
   </g>
   <g id="matplotlib.axis_4">
    <g id="ytick_9">
     <g id="line2d_30">
      <g>
       <use xlink:href="#mb6497c7644" x="34.283053" y="367.046701" style="stroke: #000000; stroke-width: 0.8"/>
      </g>
     </g>
     <g id="text_29">
      <!-- −0.6 -->
      <g transform="translate(3.00024 370.84592) scale(0.1 -0.1)">
       <defs>
        <path id="DejaVuSans-2212" d="M 678 2272 
L 4684 2272 
L 4684 1741 
L 678 1741 
L 678 2272 
z
" transform="scale(0.015625)"/>
       </defs>
       <use xlink:href="#DejaVuSans-2212"/>
       <use xlink:href="#DejaVuSans-30" x="83.789062"/>
       <use xlink:href="#DejaVuSans-2e" x="147.412109"/>
       <use xlink:href="#DejaVuSans-36" x="179.199219"/>
      </g>
     </g>
    </g>
    <g id="ytick_10">
     <g id="line2d_31">
      <g>
       <use xlink:href="#mb6497c7644" x="34.283053" y="335.686225" style="stroke: #000000; stroke-width: 0.8"/>
      </g>
     </g>
     <g id="text_30">
      <!-- −0.4 -->
      <g transform="translate(3.00024 339.485444) scale(0.1 -0.1)">
       <defs>
        <path id="DejaVuSans-34" d="M 2419 4116 
L 825 1625 
L 2419 1625 
L 2419 4116 
z
M 2253 4666 
L 3047 4666 
L 3047 1625 
L 3713 1625 
L 3713 1100 
L 3047 1100 
L 3047 0 
L 2419 0 
L 2419 1100 
L 313 1100 
L 313 1709 
L 2253 4666 
z
" transform="scale(0.015625)"/>
       </defs>
       <use xlink:href="#DejaVuSans-2212"/>
       <use xlink:href="#DejaVuSans-30" x="83.789062"/>
       <use xlink:href="#DejaVuSans-2e" x="147.412109"/>
       <use xlink:href="#DejaVuSans-34" x="179.199219"/>
      </g>
     </g>
    </g>
    <g id="ytick_11">
     <g id="line2d_32">
      <g>
       <use xlink:href="#mb6497c7644" x="34.283053" y="304.325749" style="stroke: #000000; stroke-width: 0.8"/>
      </g>
     </g>
     <g id="text_31">
      <!-- −0.2 -->
      <g transform="translate(3.00024 308.124968) scale(0.1 -0.1)">
       <use xlink:href="#DejaVuSans-2212"/>
       <use xlink:href="#DejaVuSans-30" x="83.789062"/>
       <use xlink:href="#DejaVuSans-2e" x="147.412109"/>
       <use xlink:href="#DejaVuSans-32" x="179.199219"/>
      </g>
     </g>
    </g>
    <g id="ytick_12">
     <g id="line2d_33">
      <g>
       <use xlink:href="#mb6497c7644" x="34.283053" y="272.965273" style="stroke: #000000; stroke-width: 0.8"/>
      </g>
     </g>
     <g id="text_32">
      <!-- 0.0 -->
      <g transform="translate(11.379928 276.764491) scale(0.1 -0.1)">
       <use xlink:href="#DejaVuSans-30"/>
       <use xlink:href="#DejaVuSans-2e" x="63.623047"/>
       <use xlink:href="#DejaVuSans-30" x="95.410156"/>
      </g>
     </g>
    </g>
    <g id="ytick_13">
     <g id="line2d_34">
      <g>
       <use xlink:href="#mb6497c7644" x="34.283053" y="241.604797" style="stroke: #000000; stroke-width: 0.8"/>
      </g>
     </g>
     <g id="text_33">
      <!-- 0.2 -->
      <g transform="translate(11.379928 245.404015) scale(0.1 -0.1)">
       <use xlink:href="#DejaVuSans-30"/>
       <use xlink:href="#DejaVuSans-2e" x="63.623047"/>
       <use xlink:href="#DejaVuSans-32" x="95.410156"/>
      </g>
     </g>
    </g>
   </g>
   <g id="line2d_35">
    <path d="M 83.746786 299.769331 
L 85.614223 254.241452 
L 87.681742 261.265294 
L 89.682567 266.497211 
L 91.750087 263.684988 
L 93.750912 243.226979 
L 95.818431 274.982693 
L 97.88595 301.011818 
L 99.886776 282.310512 
L 101.954295 291.04247 
L 103.95512 250.732578 
L 106.02264 277.116124 
L 108.090159 293.837107 
L 109.957596 237.591593 
L 112.025115 278.656559 
L 114.02594 261.904034 
L 116.09346 261.5917 
L 118.094285 243.851735 
L 120.161804 271.522491 
L 122.229324 309.108202 
L 124.230149 282.398813 
L 126.297668 287.596365 
L 128.298493 255.904221 
L 130.366013 274.335116 
L 132.433532 285.956386 
L 134.300969 244.969585 
L 136.368488 270.687041 
L 138.369313 276.147412 
L 140.436833 248.288113 
L 142.437658 251.668261 
L 144.505177 263.201015 
L 146.572697 315.376029 
L 148.573522 283.436875 
L 150.641041 291.853848 
L 152.641866 265.106591 
L 154.709386 277.219785 
L 156.776905 282.826681 
L 158.711036 251.264406 
L 160.778556 280.844304 
L 162.779381 269.883125 
L 164.8469 241.312317 
L 166.847725 257.257444 
L 168.915245 259.594256 
L 170.982764 328.140413 
L 172.983589 276.819107 
L 175.051109 284.042879 
L 177.051934 246.06415 
L 179.119453 283.462731 
L 181.186972 295.020295 
L 183.054409 257.894389 
L 185.121929 263.011856 
L 187.122754 269.727433 
L 189.190273 266.472574 
L 191.191098 255.830752 
L 195.326137 298.220146 
L 197.326962 275.653284 
L 199.394482 285.754531 
L 201.395307 266.537936 
L 203.462826 273.761245 
L 205.530346 278.426992 
L 207.397782 253.111546 
L 209.465302 266.647599 
L 211.466127 275.474152 
L 213.533646 259.479208 
L 215.534472 256.137181 
L 217.601991 273.022052 
L 219.66951 312.787834 
L 221.670335 279.565596 
L 223.737855 282.843271 
L 225.73868 254.575981 
L 227.806199 258.166635 
L 229.873719 301.288445 
L 231.741156 245.774519 
L 233.808675 289.183583 
L 235.8095 264.986569 
L 237.877019 257.879057 
L 239.877845 255.699076 
L 241.945364 269.761083 
L 244.012883 308.988722 
L 246.013709 279.064302 
L 248.081228 287.501243 
L 250.082053 266.462437 
L 252.149572 276.019257 
L 254.217092 279.486438 
L 256.151223 248.417351 
L 258.218742 269.440398 
L 260.219567 259.126761 
L 262.287087 269.290578 
L 264.287912 261.385326 
L 266.355431 266.152389 
L 268.422951 305.092108 
L 270.423776 283.509833 
L 272.491295 280.34076 
L 276.55964 261.458423 
L 278.627159 292.044096 
L 280.494596 267.44858 
L 282.562115 267.052356 
L 284.56294 259.630502 
L 286.63046 270.889824 
L 288.631285 263.683421 
L 290.698804 270.791613 
L 292.766324 320.326891 
L 294.767149 275.526776 
L 296.834668 285.305888 
L 298.835493 248.740389 
L 300.903013 279.658712 
L 302.970532 286.410087 
L 304.837969 245.406136 
L 306.905488 277.425324 
L 308.906314 288.233043 
L 310.973833 256.583507 
L 312.974658 246.316703 
L 315.042177 257.65547 
L 317.109697 325.739453 
L 319.110522 278.163446 
L 321.178041 278.907353 
L 323.178867 263.380021 
L 325.246386 275.77018 
L 327.313905 273.117091 
L 329.181342 241.72273 
L 331.248862 272.861163 
L 333.249687 272.885155 
L 335.317206 269.861237 
L 337.318031 255.616452 
L 339.385551 264.008474 
L 341.45307 315.750077 
L 343.453895 277.848752 
L 345.521415 286.136115 
L 347.52224 259.363633 
L 349.589759 275.732344 
L 351.657278 282.223697 
L 353.591409 248.327983 
L 355.658929 272.278653 
L 357.659754 264.847257 
L 359.727273 265.351016 
L 361.728099 252.971293 
L 363.795618 282.63728 
L 365.863137 319.149027 
L 367.863962 279.557014 
L 369.931482 288.759056 
L 371.932307 268.820793 
L 373.999826 272.934848 
L 376.067346 294.289143 
L 377.934783 234.355511 
L 380.002302 271.559813 
L 382.003127 262.187861 
L 384.070646 266.552691 
L 386.071472 260.605726 
L 388.138991 263.941993 
L 390.20651 312.144113 
L 392.207336 275.557439 
L 394.274855 283.928199 
L 396.27568 271.678742 
L 398.343199 276.145635 
L 400.410719 286.712776 
L 402.278156 254.891429 
L 404.345675 267.20055 
L 406.3465 263.553388 
L 408.41402 258.969119 
L 410.414845 257.122138 
L 412.482364 265.821078 
L 414.549883 315.031995 
L 416.550709 282.535698 
L 418.618228 292.493318 
L 420.619053 268.220013 
L 422.686573 276.976619 
L 424.754092 298.776819 
L 426.621529 247.014916 
L 428.689048 259.229836 
L 430.689873 266.660632 
L 432.757393 259.455241 
L 434.758218 257.207448 
L 436.825737 263.104241 
L 438.893257 331.487529 
L 440.894082 268.169517 
L 442.961601 302.72016 
L 444.962426 246.52718 
L 447.029946 280.812857 
L 449.097465 278.247159 
L 451.031596 242.081697 
L 453.099115 268.735979 
L 455.099941 262.284159 
L 457.16746 250.631367 
L 459.168285 252.749075 
L 461.235804 265.616132 
L 463.303324 322.270837 
L 465.304149 281.539938 
L 467.371668 292.564702 
L 469.372494 266.83371 
L 473.507532 292.91349 
L 475.374969 251.042251 
L 477.442489 268.372003 
L 479.443314 266.994882 
L 481.510833 261.9801 
L 483.511658 249.491719 
L 485.579178 263.019056 
L 487.646697 315.553212 
L 489.647522 274.430988 
L 491.715042 282.441615 
L 493.715867 265.197305 
L 495.783386 286.116115 
L 497.850905 295.036486 
L 499.718342 229.673059 
L 501.785862 277.407875 
L 503.786687 261.511941 
L 505.854206 252.586467 
L 507.855031 249.441162 
L 509.922551 266.633205 
L 511.99007 313.459958 
L 513.990895 278.78413 
L 516.058415 282.800342 
L 518.05924 274.164693 
L 520.126759 277.60483 
L 522.194279 296.006199 
L 524.061715 241.236625 
L 526.129235 264.690171 
L 528.13006 273.060782 
L 530.197579 259.469376 
L 532.198404 251.030999 
L 534.265924 265.320254 
L 536.333443 308.950677 
L 538.334268 275.411115 
L 540.401788 284.779594 
L 542.402613 275.046718 
L 544.470132 286.343216 
L 546.537652 274.250457 
L 548.471783 243.720243 
L 550.539302 276.92529 
L 552.540127 263.181658 
L 554.607647 263.858857 
L 556.608472 253.287546 
L 558.675991 266.718099 
L 560.74351 319.323106 
L 562.744336 271.308391 
L 564.811855 285.912403 
L 566.81268 252.134303 
L 568.8802 292.183468 
L 570.947719 288.108408 
L 572.815156 239.305367 
L 574.882675 277.673979 
L 576.8835 267.919633 
L 578.95102 261.394487 
L 580.951845 250.63815 
L 583.019364 266.286729 
L 585.086884 320.060567 
L 587.087709 271.001585 
L 589.155228 282.993509 
L 591.156053 262.129979 
L 593.223573 284.300395 
L 595.291092 285.359839 
L 597.158529 259.37167 
L 599.226048 267.31801 
L 601.226873 263.895 
L 603.294393 267.112317 
L 605.295218 262.535831 
L 607.362737 266.066942 
L 609.430257 307.16205 
L 611.431082 287.67442 
L 613.498601 276.61635 
L 615.499426 257.766732 
L 617.566946 288.78344 
L 619.634465 288.249798 
L 621.501902 234.561899 
L 623.569421 273.48204 
L 625.570247 273.407927 
L 627.637766 253.824594 
L 629.638591 256.470437 
L 631.70611 268.727406 
L 633.77363 313.681737 
L 635.774455 267.883842 
L 637.841974 281.20968 
L 639.8428 279.579252 
L 641.910319 284.208382 
L 643.977838 276.407337 
L 645.911969 241.338922 
L 647.979489 269.611828 
L 649.980314 270.070314 
L 652.047833 266.522445 
L 654.048658 256.895383 
L 656.116178 263.341021 
L 658.183697 308.774765 
L 660.184522 269.616338 
L 662.252042 276.10258 
L 664.252867 274.570687 
L 666.320386 289.734804 
L 668.387906 287.994083 
L 670.255342 241.306763 
L 672.322862 265.305744 
L 674.323687 273.345468 
L 678.392031 254.532381 
L 680.459551 264.420176 
L 682.52707 380.766941 
L 684.527895 255.062796 
L 686.595415 262.375805 
L 688.59624 262.664294 
L 690.663759 276.411717 
L 692.731279 278.206559 
L 694.598716 233.020242 
L 696.666235 277.031417 
L 698.66706 269.13155 
L 700.734579 263.092132 
L 702.735405 255.971783 
L 704.802924 260.978752 
L 706.870443 318.902334 
L 708.871269 259.520488 
L 710.938788 281.765288 
L 712.939613 249.242991 
L 715.007132 290.004996 
L 717.074652 286.340226 
L 718.942089 243.009642 
L 721.009608 276.145723 
L 723.010433 275.069583 
L 725.077953 266.115634 
L 727.078778 251.607387 
L 729.146297 272.140307 
L 731.213816 313.162475 
L 733.214642 255.475188 
L 735.282161 276.111316 
L 737.282986 249.72869 
L 739.350506 289.900505 
L 741.418025 274.58295 
L 743.352156 248.381403 
L 745.419675 264.407728 
L 747.4205 278.28469 
L 749.48802 265.292862 
L 751.488845 255.119103 
L 753.556364 267.782998 
L 755.623884 316.895371 
L 757.624709 256.186921 
L 759.692228 274.065916 
L 761.693053 271.68508 
L 763.760573 278.141764 
L 765.828092 283.423927 
L 767.695529 235.590231 
L 769.763048 277.694926 
L 771.763874 273.211857 
L 773.831393 270.274435 
L 775.832218 253.610742 
L 777.899737 274.463183 
L 779.967257 316.378183 
L 781.968082 269.485981 
L 784.035601 259.309115 
L 786.036427 273.384139 
L 788.103946 282.922239 
L 790.171465 289.312973 
L 792.038902 237.530596 
L 794.106421 273.708167 
L 796.107247 283.41414 
L 798.174766 263.280274 
L 800.175591 253.095715 
L 802.243111 271.520719 
L 804.31063 307.106741 
L 806.311455 253.545463 
L 808.378974 269.358522 
L 810.3798 268.058584 
L 812.447319 285.795092 
L 814.514838 290.546201 
L 816.382275 231.901977 
L 818.449795 270.304115 
L 820.45062 271.456839 
L 822.518139 267.704025 
L 824.518964 269.876921 
L 826.586484 269.8821 
L 828.654003 306.434503 
L 830.654828 262.411705 
L 832.722348 273.651915 
L 834.723173 276.486983 
L 836.790692 287.606054 
L 838.858212 282.488574 
L 840.792343 240.625696 
L 842.859862 275.970949 
L 844.860687 270.261992 
L 846.928206 266.957924 
L 848.929032 261.403462 
L 850.996551 273.887213 
L 853.06407 313.508446 
L 855.064896 264.32457 
L 857.132415 280.804651 
L 859.13324 263.275782 
L 861.200759 293.398938 
L 863.268279 282.131945 
L 865.135716 241.682063 
L 867.203235 271.897141 
L 869.20406 268.579696 
L 871.27158 268.949002 
L 873.272405 260.56086 
L 875.339924 272.141484 
L 877.407443 309.776401 
L 879.408269 266.295081 
L 881.475788 283.842149 
L 883.476613 264.554762 
L 885.544133 289.993116 
L 887.611652 293.681831 
L 889.479089 233.769694 
L 891.546608 276.785965 
L 893.547433 268.994581 
L 895.614953 259.614212 
L 897.615778 263.754293 
L 899.683297 271.254175 
L 901.750817 298.5728 
L 903.751642 262.999168 
L 907.819986 284.980236 
L 909.887506 288.752278 
L 911.955025 283.059592 
L 913.822462 232.582967 
L 915.889981 280.02105 
L 917.890806 263.134815 
L 919.958326 270.715042 
L 921.959151 260.186982 
L 924.02667 284.560192 
L 926.09419 287.212687 
L 928.095015 269.187708 
L 930.162534 276.887899 
L 932.163359 276.765813 
L 934.230879 283.855356 
L 936.298398 278.045117 
L 938.232529 237.816864 
L 940.300048 280.04276 
L 942.300874 271.973173 
L 944.368393 266.951847 
L 946.369218 263.811112 
L 948.436738 271.401984 
L 950.504257 300.15 
L 952.505082 275.176577 
L 954.572602 273.518554 
L 956.573427 267.673506 
L 958.640946 283.652309 
L 960.708465 291.177742 
L 962.575902 235.205351 
L 964.643422 285.162458 
L 966.644247 262.426341 
L 968.711766 269.453218 
L 970.712591 263.188431 
L 972.780111 271.13021 
L 974.84763 300.382213 
L 976.848455 265.94166 
L 978.915975 287.665752 
L 980.9168 254.331593 
L 982.984319 298.694877 
L 985.051839 285.482983 
L 986.919275 234.06141 
L 988.986795 269.707718 
L 990.98762 265.575324 
L 993.055139 271.911165 
L 995.055964 263.6923 
L 997.123484 268.574143 
L 999.191003 295.060178 
L 1001.191828 267.78254 
L 1003.259348 287.850198 
L 1005.260173 258.639757 
L 1007.327692 293.567621 
L 1009.395212 280.152082 
L 1011.262648 241.415052 
L 1013.330168 269.902288 
L 1015.330993 265.672561 
L 1017.398512 271.587554 
L 1019.399338 263.418384 
L 1021.466857 272.605001 
L 1023.534376 299.9916 
L 1025.535201 259.335995 
L 1027.602721 286.381068 
L 1029.603546 265.559856 
L 1029.603546 265.559856 
" clip-path="url(#pef8b24ccc7)" style="fill: none; stroke: #1f77b4; stroke-width: 1.5; stroke-linecap: square"/>
   </g>
   <g id="LineCollection_1">
    <path d="M 81.679266 272.965273 
L 1029.603546 272.965273 
" clip-path="url(#pef8b24ccc7)" style="fill: none; stroke: #008000; stroke-width: 1.5"/>
   </g>
   <g id="line2d_36">
    <path d="M 678.392031 388.321635 
L 678.392031 -1 
" clip-path="url(#pef8b24ccc7)" style="fill: none; stroke-dasharray: 5.55,2.4; stroke-dashoffset: 0; stroke: #ff0000; stroke-width: 1.5"/>
   </g>
   <g id="line2d_37">
    <path d="M 686.595415 388.321635 
L 686.595415 -1 
" clip-path="url(#pef8b24ccc7)" style="fill: none; stroke-dasharray: 5.55,2.4; stroke-dashoffset: 0; stroke: #ff0000; stroke-width: 1.5"/>
   </g>
   <g id="patch_9">
    <path d="M 34.283053 388.321635 
L 34.283053 222.118365 
" style="fill: none; stroke: #000000; stroke-width: 0.8; stroke-linejoin: miter; stroke-linecap: square"/>
   </g>
   <g id="patch_10">
    <path d="M 1076.99976 388.321635 
L 1076.99976 222.118365 
" style="fill: none; stroke: #000000; stroke-width: 0.8; stroke-linejoin: miter; stroke-linecap: square"/>
   </g>
   <g id="patch_11">
    <path d="M 34.283052 388.321635 
L 1076.99976 388.321635 
" style="fill: none; stroke: #000000; stroke-width: 0.8; stroke-linejoin: miter; stroke-linecap: square"/>
   </g>
   <g id="patch_12">
    <path d="M 34.283052 222.118365 
L 1076.99976 222.118365 
" style="fill: none; stroke: #000000; stroke-width: 0.8; stroke-linejoin: miter; stroke-linecap: square"/>
   </g>
   <g id="text_34">
    <!-- JFK Domestic Passengers Log Diff = 1 -->
    <g transform="translate(442.834844 216.118365) scale(0.12 -0.12)">
     <defs>
      <path id="DejaVuSans-4c" d="M 628 4666 
L 1259 4666 
L 1259 531 
L 3531 531 
L 3531 0 
L 628 0 
L 628 4666 
z
" transform="scale(0.015625)"/>
      <path id="DejaVuSans-66" d="M 2375 4863 
L 2375 4384 
L 1825 4384 
Q 1516 4384 1395 4259 
Q 1275 4134 1275 3809 
L 1275 3500 
L 2222 3500 
L 2222 3053 
L 1275 3053 
L 1275 0 
L 697 0 
L 697 3053 
L 147 3053 
L 147 3500 
L 697 3500 
L 697 3744 
Q 697 4328 969 4595 
Q 1241 4863 1831 4863 
L 2375 4863 
z
" transform="scale(0.015625)"/>
      <path id="DejaVuSans-3d" d="M 678 2906 
L 4684 2906 
L 4684 2381 
L 678 2381 
L 678 2906 
z
M 678 1631 
L 4684 1631 
L 4684 1100 
L 678 1100 
L 678 1631 
z
" transform="scale(0.015625)"/>
     </defs>
     <use xlink:href="#DejaVuSans-4a"/>
     <use xlink:href="#DejaVuSans-46" x="29.492188"/>
     <use xlink:href="#DejaVuSans-4b" x="87.011719"/>
     <use xlink:href="#DejaVuSans-20" x="152.587891"/>
     <use xlink:href="#DejaVuSans-44" x="184.375"/>
     <use xlink:href="#DejaVuSans-6f" x="261.376953"/>
     <use xlink:href="#DejaVuSans-6d" x="322.558594"/>
     <use xlink:href="#DejaVuSans-65" x="419.970703"/>
     <use xlink:href="#DejaVuSans-73" x="481.494141"/>
     <use xlink:href="#DejaVuSans-74" x="533.59375"/>
     <use xlink:href="#DejaVuSans-69" x="572.802734"/>
     <use xlink:href="#DejaVuSans-63" x="600.585938"/>
     <use xlink:href="#DejaVuSans-20" x="655.566406"/>
     <use xlink:href="#DejaVuSans-50" x="687.353516"/>
     <use xlink:href="#DejaVuSans-61" x="743.15625"/>
     <use xlink:href="#DejaVuSans-73" x="804.435547"/>
     <use xlink:href="#DejaVuSans-73" x="856.535156"/>
     <use xlink:href="#DejaVuSans-65" x="908.634766"/>
     <use xlink:href="#DejaVuSans-6e" x="970.158203"/>
     <use xlink:href="#DejaVuSans-67" x="1033.537109"/>
     <use xlink:href="#DejaVuSans-65" x="1097.013672"/>
     <use xlink:href="#DejaVuSans-72" x="1158.537109"/>
     <use xlink:href="#DejaVuSans-73" x="1199.650391"/>
     <use xlink:href="#DejaVuSans-20" x="1251.75"/>
     <use xlink:href="#DejaVuSans-4c" x="1283.537109"/>
     <use xlink:href="#DejaVuSans-6f" x="1337.5"/>
     <use xlink:href="#DejaVuSans-67" x="1398.681641"/>
     <use xlink:href="#DejaVuSans-20" x="1462.158203"/>
     <use xlink:href="#DejaVuSans-44" x="1493.945312"/>
     <use xlink:href="#DejaVuSans-69" x="1570.947266"/>
     <use xlink:href="#DejaVuSans-66" x="1598.730469"/>
     <use xlink:href="#DejaVuSans-66" x="1633.935547"/>
     <use xlink:href="#DejaVuSans-20" x="1669.140625"/>
     <use xlink:href="#DejaVuSans-3d" x="1700.927734"/>
     <use xlink:href="#DejaVuSans-20" x="1784.716797"/>
     <use xlink:href="#DejaVuSans-31" x="1816.503906"/>
    </g>
   </g>
   <g id="legend_2">
    <g id="patch_13">
     <path d="M 41.283053 383.321635 
L 290.579927 383.321635 
Q 292.579927 383.321635 292.579927 381.321635 
L 292.579927 351.34351 
Q 292.579927 349.34351 290.579927 349.34351 
L 41.283053 349.34351 
Q 39.283053 349.34351 39.283053 351.34351 
L 39.283053 381.321635 
Q 39.283053 383.321635 41.283053 383.321635 
z
" style="fill: #ffffff; opacity: 0.8; stroke: #cccccc; stroke-linejoin: miter"/>
    </g>
    <g id="line2d_38">
     <path d="M 43.283053 357.441948 
L 53.283053 357.441948 
L 63.283053 357.441948 
" style="fill: none; stroke: #1f77b4; stroke-width: 1.5; stroke-linecap: square"/>
    </g>
    <g id="text_35">
     <!-- Monthly Difference In Domestic Passengers -->
     <g transform="translate(71.283052 360.941948) scale(0.1 -0.1)">
      <defs>
       <path id="DejaVuSans-4d" d="M 628 4666 
L 1569 4666 
L 2759 1491 
L 3956 4666 
L 4897 4666 
L 4897 0 
L 4281 0 
L 4281 4097 
L 3078 897 
L 2444 897 
L 1241 4097 
L 1241 0 
L 628 0 
L 628 4666 
z
" transform="scale(0.015625)"/>
       <path id="DejaVuSans-68" d="M 3513 2113 
L 3513 0 
L 2938 0 
L 2938 2094 
Q 2938 2591 2744 2837 
Q 2550 3084 2163 3084 
Q 1697 3084 1428 2787 
Q 1159 2491 1159 1978 
L 1159 0 
L 581 0 
L 581 4863 
L 1159 4863 
L 1159 2956 
Q 1366 3272 1645 3428 
Q 1925 3584 2291 3584 
Q 2894 3584 3203 3211 
Q 3513 2838 3513 2113 
z
" transform="scale(0.015625)"/>
       <path id="DejaVuSans-6c" d="M 603 4863 
L 1178 4863 
L 1178 0 
L 603 0 
L 603 4863 
z
" transform="scale(0.015625)"/>
       <path id="DejaVuSans-79" d="M 2059 -325 
Q 1816 -950 1584 -1140 
Q 1353 -1331 966 -1331 
L 506 -1331 
L 506 -850 
L 844 -850 
Q 1081 -850 1212 -737 
Q 1344 -625 1503 -206 
L 1606 56 
L 191 3500 
L 800 3500 
L 1894 763 
L 2988 3500 
L 3597 3500 
L 2059 -325 
z
" transform="scale(0.015625)"/>
       <path id="DejaVuSans-49" d="M 628 4666 
L 1259 4666 
L 1259 0 
L 628 0 
L 628 4666 
z
" transform="scale(0.015625)"/>
      </defs>
      <use xlink:href="#DejaVuSans-4d"/>
      <use xlink:href="#DejaVuSans-6f" x="86.279297"/>
      <use xlink:href="#DejaVuSans-6e" x="147.460938"/>
      <use xlink:href="#DejaVuSans-74" x="210.839844"/>
      <use xlink:href="#DejaVuSans-68" x="250.048828"/>
      <use xlink:href="#DejaVuSans-6c" x="313.427734"/>
      <use xlink:href="#DejaVuSans-79" x="341.210938"/>
      <use xlink:href="#DejaVuSans-20" x="400.390625"/>
      <use xlink:href="#DejaVuSans-44" x="432.177734"/>
      <use xlink:href="#DejaVuSans-69" x="509.179688"/>
      <use xlink:href="#DejaVuSans-66" x="536.962891"/>
      <use xlink:href="#DejaVuSans-66" x="572.167969"/>
      <use xlink:href="#DejaVuSans-65" x="607.373047"/>
      <use xlink:href="#DejaVuSans-72" x="668.896484"/>
      <use xlink:href="#DejaVuSans-65" x="707.759766"/>
      <use xlink:href="#DejaVuSans-6e" x="769.283203"/>
      <use xlink:href="#DejaVuSans-63" x="832.662109"/>
      <use xlink:href="#DejaVuSans-65" x="887.642578"/>
      <use xlink:href="#DejaVuSans-20" x="949.166016"/>
      <use xlink:href="#DejaVuSans-49" x="980.953125"/>
      <use xlink:href="#DejaVuSans-6e" x="1010.445312"/>
      <use xlink:href="#DejaVuSans-20" x="1073.824219"/>
      <use xlink:href="#DejaVuSans-44" x="1105.611328"/>
      <use xlink:href="#DejaVuSans-6f" x="1182.613281"/>
      <use xlink:href="#DejaVuSans-6d" x="1243.794922"/>
      <use xlink:href="#DejaVuSans-65" x="1341.207031"/>
      <use xlink:href="#DejaVuSans-73" x="1402.730469"/>
      <use xlink:href="#DejaVuSans-74" x="1454.830078"/>
      <use xlink:href="#DejaVuSans-69" x="1494.039062"/>
      <use xlink:href="#DejaVuSans-63" x="1521.822266"/>
      <use xlink:href="#DejaVuSans-20" x="1576.802734"/>
      <use xlink:href="#DejaVuSans-50" x="1608.589844"/>
      <use xlink:href="#DejaVuSans-61" x="1664.392578"/>
      <use xlink:href="#DejaVuSans-73" x="1725.671875"/>
      <use xlink:href="#DejaVuSans-73" x="1777.771484"/>
      <use xlink:href="#DejaVuSans-65" x="1829.871094"/>
      <use xlink:href="#DejaVuSans-6e" x="1891.394531"/>
      <use xlink:href="#DejaVuSans-67" x="1954.773438"/>
      <use xlink:href="#DejaVuSans-65" x="2018.25"/>
      <use xlink:href="#DejaVuSans-72" x="2079.773438"/>
      <use xlink:href="#DejaVuSans-73" x="2120.886719"/>
     </g>
    </g>
    <g id="line2d_39">
     <path d="M 43.283053 373.721635 
L 53.283053 373.721635 
L 63.283053 373.721635 
" style="fill: none; stroke-dasharray: 5.55,2.4; stroke-dashoffset: 0; stroke: #ff0000; stroke-width: 1.5"/>
    </g>
    <g id="text_36">
     <!-- Sept 11$^{th}$, 2001 -->
     <g transform="translate(71.283052 377.221635) scale(0.1 -0.1)">
      <use xlink:href="#DejaVuSans-53" transform="translate(0 0.529687)"/>
      <use xlink:href="#DejaVuSans-65" transform="translate(63.476562 0.529687)"/>
      <use xlink:href="#DejaVuSans-70" transform="translate(125 0.529687)"/>
      <use xlink:href="#DejaVuSans-74" transform="translate(188.476562 0.529687)"/>
      <use xlink:href="#DejaVuSans-20" transform="translate(227.685547 0.529687)"/>
      <use xlink:href="#DejaVuSans-31" transform="translate(259.472656 0.529687)"/>
      <use xlink:href="#DejaVuSans-31" transform="translate(323.095703 0.529687)"/>
      <use xlink:href="#DejaVuSans-Oblique-74" transform="translate(387.675781 38.810937) scale(0.7)"/>
      <use xlink:href="#DejaVuSans-Oblique-68" transform="translate(415.12207 38.810937) scale(0.7)"/>
      <use xlink:href="#DejaVuSans-2c" transform="translate(462.22168 0.529687)"/>
      <use xlink:href="#DejaVuSans-20" transform="translate(494.008789 0.529687)"/>
      <use xlink:href="#DejaVuSans-32" transform="translate(525.795898 0.529687)"/>
      <use xlink:href="#DejaVuSans-30" transform="translate(589.418945 0.529687)"/>
      <use xlink:href="#DejaVuSans-30" transform="translate(653.041992 0.529687)"/>
      <use xlink:href="#DejaVuSans-31" transform="translate(716.665039 0.529687)"/>
     </g>
    </g>
   </g>
  </g>
  <g id="axes_3">
   <g id="patch_14">
    <path d="M 34.283053 592.321635 
L 1076.99976 592.321635 
L 1076.99976 426.118365 
L 34.283053 426.118365 
z
" style="fill: #ffffff"/>
   </g>
   <g id="matplotlib.axis_5">
    <g id="xtick_17">
     <g id="line2d_40">
      <g>
       <use xlink:href="#mf6357bae88" x="154.709386" y="592.321635" style="stroke: #000000; stroke-width: 0.8"/>
      </g>
     </g>
     <g id="text_37">
      <!-- 1980 -->
      <g transform="translate(141.984386 606.920072) scale(0.1 -0.1)">
       <use xlink:href="#DejaVuSans-31"/>
       <use xlink:href="#DejaVuSans-39" x="63.623047"/>
       <use xlink:href="#DejaVuSans-38" x="127.246094"/>
       <use xlink:href="#DejaVuSans-30" x="190.869141"/>
      </g>
     </g>
    </g>
    <g id="xtick_18">
     <g id="line2d_41">
      <g>
       <use xlink:href="#mf6357bae88" x="276.55964" y="592.321635" style="stroke: #000000; stroke-width: 0.8"/>
      </g>
     </g>
     <g id="text_38">
      <!-- 1985 -->
      <g transform="translate(263.83464 606.920072) scale(0.1 -0.1)">
       <use xlink:href="#DejaVuSans-31"/>
       <use xlink:href="#DejaVuSans-39" x="63.623047"/>
       <use xlink:href="#DejaVuSans-38" x="127.246094"/>
       <use xlink:href="#DejaVuSans-35" x="190.869141"/>
      </g>
     </g>
    </g>
    <g id="xtick_19">
     <g id="line2d_42">
      <g>
       <use xlink:href="#mf6357bae88" x="398.343199" y="592.321635" style="stroke: #000000; stroke-width: 0.8"/>
      </g>
     </g>
     <g id="text_39">
      <!-- 1990 -->
      <g transform="translate(385.618199 606.920072) scale(0.1 -0.1)">
       <use xlink:href="#DejaVuSans-31"/>
       <use xlink:href="#DejaVuSans-39" x="63.623047"/>
       <use xlink:href="#DejaVuSans-39" x="127.246094"/>
       <use xlink:href="#DejaVuSans-30" x="190.869141"/>
      </g>
     </g>
    </g>
    <g id="xtick_20">
     <g id="line2d_43">
      <g>
       <use xlink:href="#mf6357bae88" x="520.126759" y="592.321635" style="stroke: #000000; stroke-width: 0.8"/>
      </g>
     </g>
     <g id="text_40">
      <!-- 1995 -->
      <g transform="translate(507.401759 606.920072) scale(0.1 -0.1)">
       <use xlink:href="#DejaVuSans-31"/>
       <use xlink:href="#DejaVuSans-39" x="63.623047"/>
       <use xlink:href="#DejaVuSans-39" x="127.246094"/>
       <use xlink:href="#DejaVuSans-35" x="190.869141"/>
      </g>
     </g>
    </g>
    <g id="xtick_21">
     <g id="line2d_44">
      <g>
       <use xlink:href="#mf6357bae88" x="641.910319" y="592.321635" style="stroke: #000000; stroke-width: 0.8"/>
      </g>
     </g>
     <g id="text_41">
      <!-- 2000 -->
      <g transform="translate(629.185319 606.920072) scale(0.1 -0.1)">
       <use xlink:href="#DejaVuSans-32"/>
       <use xlink:href="#DejaVuSans-30" x="63.623047"/>
       <use xlink:href="#DejaVuSans-30" x="127.246094"/>
       <use xlink:href="#DejaVuSans-30" x="190.869141"/>
      </g>
     </g>
    </g>
    <g id="xtick_22">
     <g id="line2d_45">
      <g>
       <use xlink:href="#mf6357bae88" x="763.760573" y="592.321635" style="stroke: #000000; stroke-width: 0.8"/>
      </g>
     </g>
     <g id="text_42">
      <!-- 2005 -->
      <g transform="translate(751.035573 606.920072) scale(0.1 -0.1)">
       <use xlink:href="#DejaVuSans-32"/>
       <use xlink:href="#DejaVuSans-30" x="63.623047"/>
       <use xlink:href="#DejaVuSans-30" x="127.246094"/>
       <use xlink:href="#DejaVuSans-35" x="190.869141"/>
      </g>
     </g>
    </g>
    <g id="xtick_23">
     <g id="line2d_46">
      <g>
       <use xlink:href="#mf6357bae88" x="885.544133" y="592.321635" style="stroke: #000000; stroke-width: 0.8"/>
      </g>
     </g>
     <g id="text_43">
      <!-- 2010 -->
      <g transform="translate(872.819133 606.920072) scale(0.1 -0.1)">
       <use xlink:href="#DejaVuSans-32"/>
       <use xlink:href="#DejaVuSans-30" x="63.623047"/>
       <use xlink:href="#DejaVuSans-31" x="127.246094"/>
       <use xlink:href="#DejaVuSans-30" x="190.869141"/>
      </g>
     </g>
    </g>
    <g id="xtick_24">
     <g id="line2d_47">
      <g>
       <use xlink:href="#mf6357bae88" x="1007.327692" y="592.321635" style="stroke: #000000; stroke-width: 0.8"/>
      </g>
     </g>
     <g id="text_44">
      <!-- 2015 -->
      <g transform="translate(994.602692 606.920072) scale(0.1 -0.1)">
       <use xlink:href="#DejaVuSans-32"/>
       <use xlink:href="#DejaVuSans-30" x="63.623047"/>
       <use xlink:href="#DejaVuSans-31" x="127.246094"/>
       <use xlink:href="#DejaVuSans-35" x="190.869141"/>
      </g>
     </g>
    </g>
   </g>
   <g id="matplotlib.axis_6">
    <g id="ytick_14">
     <g id="line2d_48">
      <g>
       <use xlink:href="#mb6497c7644" x="34.283053" y="581.195904" style="stroke: #000000; stroke-width: 0.8"/>
      </g>
     </g>
     <g id="text_45">
      <!-- −0.4 -->
      <g transform="translate(3.00024 584.995123) scale(0.1 -0.1)">
       <use xlink:href="#DejaVuSans-2212"/>
       <use xlink:href="#DejaVuSans-30" x="83.789062"/>
       <use xlink:href="#DejaVuSans-2e" x="147.412109"/>
       <use xlink:href="#DejaVuSans-34" x="179.199219"/>
      </g>
     </g>
    </g>
    <g id="ytick_15">
     <g id="line2d_49">
      <g>
       <use xlink:href="#mb6497c7644" x="34.283053" y="544.318996" style="stroke: #000000; stroke-width: 0.8"/>
      </g>
     </g>
     <g id="text_46">
      <!-- −0.2 -->
      <g transform="translate(3.00024 548.118215) scale(0.1 -0.1)">
       <use xlink:href="#DejaVuSans-2212"/>
       <use xlink:href="#DejaVuSans-30" x="83.789062"/>
       <use xlink:href="#DejaVuSans-2e" x="147.412109"/>
       <use xlink:href="#DejaVuSans-32" x="179.199219"/>
      </g>
     </g>
    </g>
    <g id="ytick_16">
     <g id="line2d_50">
      <g>
       <use xlink:href="#mb6497c7644" x="34.283053" y="507.442088" style="stroke: #000000; stroke-width: 0.8"/>
      </g>
     </g>
     <g id="text_47">
      <!-- 0.0 -->
      <g transform="translate(11.379928 511.241307) scale(0.1 -0.1)">
       <use xlink:href="#DejaVuSans-30"/>
       <use xlink:href="#DejaVuSans-2e" x="63.623047"/>
       <use xlink:href="#DejaVuSans-30" x="95.410156"/>
      </g>
     </g>
    </g>
    <g id="ytick_17">
     <g id="line2d_51">
      <g>
       <use xlink:href="#mb6497c7644" x="34.283053" y="470.56518" style="stroke: #000000; stroke-width: 0.8"/>
      </g>
     </g>
     <g id="text_48">
      <!-- 0.2 -->
      <g transform="translate(11.379928 474.364398) scale(0.1 -0.1)">
       <use xlink:href="#DejaVuSans-30"/>
       <use xlink:href="#DejaVuSans-2e" x="63.623047"/>
       <use xlink:href="#DejaVuSans-32" x="95.410156"/>
      </g>
     </g>
    </g>
    <g id="ytick_18">
     <g id="line2d_52">
      <g>
       <use xlink:href="#mb6497c7644" x="34.283053" y="433.688272" style="stroke: #000000; stroke-width: 0.8"/>
      </g>
     </g>
     <g id="text_49">
      <!-- 0.4 -->
      <g transform="translate(11.379928 437.48749) scale(0.1 -0.1)">
       <use xlink:href="#DejaVuSans-30"/>
       <use xlink:href="#DejaVuSans-2e" x="63.623047"/>
       <use xlink:href="#DejaVuSans-34" x="95.410156"/>
      </g>
     </g>
    </g>
   </g>
   <g id="line2d_53">
    <path d="M 106.02264 496.033676 
L 108.090159 489.057951 
L 109.957596 469.479316 
L 112.025115 489.929772 
L 114.02594 484.528638 
L 116.09346 482.067132 
L 118.094285 482.801785 
L 120.161804 478.732919 
L 122.229324 488.253488 
L 124.230149 488.357322 
L 126.297668 484.305033 
L 128.298493 490.386388 
L 130.366013 487.116191 
L 132.433532 477.84922 
L 134.300969 486.52503 
L 136.368488 477.153643 
L 138.369313 493.902488 
L 140.436833 478.258748 
L 142.437658 487.450233 
L 144.505177 477.664976 
L 146.572697 485.035339 
L 148.573522 486.256001 
L 150.641041 491.262392 
L 152.641866 502.083495 
L 154.709386 505.475588 
L 156.776905 501.795356 
L 158.711036 509.19746 
L 160.778556 521.141425 
L 162.779381 513.775225 
L 164.8469 505.572359 
L 166.847725 512.144701 
L 168.915245 507.903499 
L 170.982764 522.913188 
L 172.983589 515.131329 
L 175.051109 505.94638 
L 177.051934 483.554298 
L 179.119453 490.895403 
L 181.186972 505.233922 
L 183.054409 513.030146 
L 185.121929 492.0609 
L 187.122754 491.87782 
L 189.190273 521.463866 
L 191.191098 519.786213 
L 193.258618 540.612069 
L 195.326137 505.428709 
L 197.326962 504.057813 
L 199.394482 506.070551 
L 201.395307 530.145757 
L 203.462826 518.737742 
L 205.530346 499.225611 
L 207.397782 493.601447 
L 209.465302 497.876731 
L 211.466127 504.634321 
L 213.533646 496.410794 
L 215.534472 496.771125 
L 217.601991 491.735068 
L 219.66951 508.865269 
L 221.670335 513.465773 
L 223.737855 510.04241 
L 225.73868 495.9763 
L 227.806199 477.638535 
L 229.873719 504.521408 
L 231.741156 495.89377 
L 233.808675 522.393924 
L 235.8095 510.061534 
L 237.877019 508.179909 
L 239.877845 507.66474 
L 241.945364 503.830154 
L 244.012883 499.362762 
L 246.013709 498.773288 
L 248.081228 504.250617 
L 250.082053 518.227947 
L 252.149572 539.220917 
L 254.217092 513.583851 
L 256.151223 516.691568 
L 258.218742 493.475478 
L 260.219567 486.584907 
L 262.287087 500.00376 
L 264.287912 506.690245 
L 266.355431 502.446767 
L 268.422951 497.864724 
L 270.423776 503.092242 
L 272.491295 494.672202 
L 274.49212 500.07186 
L 276.55964 482.949717 
L 278.627159 497.716317 
L 280.494596 520.095213 
L 282.562115 517.287105 
L 284.56294 517.879455 
L 286.63046 519.760015 
L 288.631285 522.462354 
L 290.698804 527.917635 
L 292.766324 545.832277 
L 294.767149 536.444968 
L 296.834668 542.283482 
L 298.835493 516.044398 
L 300.903013 537.44619 
L 302.970532 530.821136 
L 304.837969 504.901339 
L 306.905488 517.098953 
L 308.906314 550.732795 
L 310.973833 533.909941 
L 312.974658 513.488347 
L 315.042177 498.041504 
L 317.109697 504.406157 
L 319.110522 507.506628 
L 321.178041 499.982566 
L 323.178867 517.197367 
L 325.246386 512.624826 
L 327.313905 496.99354 
L 329.181342 492.662209 
L 331.248862 487.295194 
L 333.249687 469.247552 
L 335.317206 484.860886 
L 337.318031 495.796499 
L 339.385551 503.267021 
L 341.45307 491.520474 
L 343.453895 491.150424 
L 345.521415 499.650754 
L 347.52224 494.927867 
L 349.589759 494.883376 
L 351.657278 505.59187 
L 353.591409 513.359013 
L 355.658929 512.674038 
L 357.659754 503.222241 
L 359.727273 497.918654 
L 361.728099 494.808201 
L 363.795618 516.713888 
L 365.863137 520.710726 
L 367.863962 522.719478 
L 369.931482 525.803805 
L 371.932307 536.924516 
L 373.999826 533.634929 
L 376.067346 547.822735 
L 377.934783 531.392449 
L 380.002302 530.547161 
L 382.003127 527.419967 
L 384.070646 528.833021 
L 386.071472 537.810381 
L 388.138991 515.826519 
L 390.20651 507.589413 
L 392.207336 502.886298 
L 394.274855 497.205673 
L 396.27568 500.566348 
L 398.343199 504.341926 
L 400.410719 495.432845 
L 402.278156 519.581113 
L 404.345675 514.455039 
L 406.3465 516.060768 
L 408.41402 507.143217 
L 410.414845 503.046851 
L 412.482364 505.256475 
L 414.549883 508.652347 
L 416.550709 516.858109 
L 418.618228 526.929867 
L 420.619053 522.862733 
L 422.686573 523.83989 
L 424.754092 538.026047 
L 426.621529 528.764024 
L 428.689048 519.39123 
L 430.689873 523.045051 
L 432.757393 523.616683 
L 434.758218 523.716999 
L 436.825737 520.522259 
L 438.893257 539.872387 
L 440.894082 522.979138 
L 442.961601 535.004922 
L 444.962426 509.496235 
L 447.029946 514.007282 
L 449.097465 489.866373 
L 451.031596 484.065381 
L 453.099115 495.243691 
L 455.099941 490.097379 
L 457.16746 479.721351 
L 459.168285 474.478734 
L 461.235804 477.432476 
L 463.303324 466.59453 
L 465.304149 482.316862 
L 467.371668 470.375018 
L 469.372494 494.253547 
L 471.440013 493.290281 
L 473.507532 510.536478 
L 475.374969 521.073229 
L 477.442489 520.645228 
L 479.443314 526.184586 
L 481.510833 539.529606 
L 483.511658 535.699268 
L 485.579178 532.645357 
L 487.646697 524.746076 
L 489.647522 516.386634 
L 491.715042 504.482856 
L 493.715867 502.5586 
L 495.783386 509.757989 
L 497.850905 512.254428 
L 499.718342 487.126311 
L 501.785862 497.751628 
L 503.786687 491.304215 
L 505.854206 480.258205 
L 507.855031 480.198754 
L 509.922551 484.448647 
L 511.99007 481.987181 
L 513.990895 487.106057 
L 516.058415 487.527885 
L 518.05924 498.072672 
L 520.126759 488.064218 
L 522.194279 489.204507 
L 524.061715 502.80215 
L 526.129235 487.847352 
L 528.13006 501.42768 
L 530.197579 509.521319 
L 532.198404 511.390815 
L 534.265924 509.84691 
L 536.333443 504.544428 
L 538.334268 500.578087 
L 540.401788 502.905499 
L 542.402613 503.942676 
L 544.470132 514.218179 
L 546.537652 488.635516 
L 548.471783 491.556012 
L 550.539302 505.943338 
L 552.540127 494.326437 
L 554.607647 499.488046 
L 556.608472 502.141529 
L 558.675991 503.78526 
L 560.74351 515.982241 
L 562.744336 511.157831 
L 564.811855 512.489905 
L 566.81268 485.547105 
L 568.8802 492.41468 
L 570.947719 508.7103 
L 572.815156 503.51883 
L 574.882675 504.399216 
L 576.8835 509.970619 
L 578.95102 507.072756 
L 580.951845 503.957321 
L 583.019364 503.450071 
L 585.086884 504.317254 
L 587.087709 503.95648 
L 589.155228 500.524141 
L 591.156053 512.278096 
L 593.223573 503.008359 
L 595.291092 499.776306 
L 597.158529 523.372351 
L 599.226048 511.194727 
L 601.226873 506.462145 
L 603.294393 513.185765 
L 605.295218 527.176295 
L 607.362737 526.917847 
L 609.430257 511.750429 
L 611.431082 531.356082 
L 613.498601 523.857156 
L 615.499426 518.726397 
L 617.566946 523.998028 
L 619.634465 527.396342 
L 621.501902 498.222434 
L 623.569421 505.470741 
L 625.570247 516.657029 
L 627.637766 501.031943 
L 629.638591 493.899621 
L 631.70611 497.028072 
L 633.77363 504.694597 
L 635.774455 481.422778 
L 637.841974 486.824093 
L 639.8428 512.473522 
L 641.910319 507.093693 
L 643.977838 493.168096 
L 645.911969 501.137224 
L 647.979489 496.586226 
L 649.980314 492.661515 
L 652.047833 507.592969 
L 654.048658 508.092665 
L 656.116178 501.758793 
L 658.183697 495.988666 
L 660.184522 498.025915 
L 664.252867 486.130864 
L 666.320386 492.629405 
L 668.387906 506.254307 
L 670.255342 506.21649 
L 672.322862 501.152949 
L 674.323687 505.004215 
L 676.391206 501.620737 
L 678.392031 498.842073 
L 680.459551 500.111056 
L 682.52707 584.766941 
L 684.527895 567.653373 
L 686.595415 551.512004 
L 688.59624 537.511229 
L 690.663759 521.844559 
L 692.731279 510.335371 
L 694.598716 500.591219 
L 696.666235 514.379485 
L 698.66706 509.424321 
L 700.734579 508.774081 
L 702.735405 510.46668 
L 704.802924 506.419895 
L 706.870443 433.673059 
L 708.871269 438.914876 
L 710.938788 461.715046 
L 712.939613 445.932882 
L 715.007132 461.917272 
L 717.074652 471.481682 
L 718.942089 483.228257 
L 721.009608 482.186766 
L 723.010433 489.169322 
L 725.077953 492.72467 
L 727.078778 487.592559 
L 729.146297 500.717476 
L 731.213816 493.967953 
L 733.214642 489.21107 
L 735.282161 482.562541 
L 737.282986 483.133677 
L 739.350506 483.010806 
L 741.418025 469.18538 
L 743.352156 475.502054 
L 745.419675 461.699299 
L 747.4205 465.479957 
L 749.48802 464.512456 
L 751.488845 468.641896 
L 753.556364 463.518119 
L 755.623884 467.907646 
L 757.624709 468.744575 
L 759.692228 466.339381 
L 761.693053 492.157986 
L 763.760573 478.330837 
L 765.828092 488.726976 
L 767.695529 473.685787 
L 769.763048 489.310256 
L 771.763874 483.34509 
L 773.831393 489.202942 
L 775.832218 487.429254 
L 777.899737 495.284509 
L 779.967257 494.676346 
L 781.968082 510.314763 
L 784.035601 492.962183 
L 786.036427 494.960114 
L 788.103946 500.581493 
L 790.171465 507.506446 
L 792.038902 509.788128 
L 794.106421 505.100083 
L 796.107247 517.096989 
L 798.174766 508.872528 
L 800.175591 508.266906 
L 802.243111 504.806851 
L 804.31063 493.904526 
L 806.311455 475.160008 
L 808.378974 486.977145 
L 810.3798 480.714803 
L 812.447319 484.093002 
L 814.514838 485.54316 
L 816.382275 478.924444 
L 818.449795 474.921605 
L 820.45062 460.860968 
L 822.518139 466.062874 
L 824.518964 485.79596 
L 826.586484 483.869101 
L 828.654003 483.078613 
L 830.654828 493.504463 
L 832.722348 498.553081 
L 834.723173 508.464069 
L 836.790692 510.593587 
L 838.858212 501.118591 
L 840.792343 511.376848 
L 842.859862 518.040501 
L 844.860687 516.635475 
L 846.928206 515.758133 
L 848.929032 505.794159 
L 850.996551 510.503787 
L 853.06407 518.822065 
L 855.064896 521.07141 
L 857.132415 529.482342 
L 859.13324 513.947238 
L 861.200759 520.759113 
L 863.268279 520.339751 
L 865.135716 521.581936 
L 867.203235 516.791529 
L 869.20406 514.81331 
L 871.27158 517.154626 
L 873.272405 516.163807 
L 875.339924 514.110997 
L 877.407443 509.722471 
L 879.408269 512.039602 
L 881.475788 515.611408 
L 883.476613 517.115365 
L 885.544133 513.110447 
L 887.611652 526.692003 
L 889.479089 517.387818 
L 891.546608 523.136606 
L 893.547433 523.624471 
L 895.614953 512.647655 
L 897.615778 516.402826 
L 899.683297 515.359436 
L 901.750817 502.185078 
L 903.751642 498.3094 
L 905.819161 487.212 
L 907.819986 511.230395 
L 909.887506 509.771289 
L 911.955025 497.280556 
L 913.822462 495.885078 
L 915.889981 499.689226 
L 917.890806 492.798704 
L 919.958326 505.852213 
L 921.959151 501.657398 
L 924.02667 517.303997 
L 926.09419 503.945595 
L 928.095015 511.222724 
L 930.162534 514.142593 
L 932.163359 504.483221 
L 936.298398 492.828371 
L 938.232529 498.982932 
L 940.300048 499.008461 
L 942.300874 509.401521 
L 944.368393 504.976366 
L 946.369218 509.237994 
L 948.436738 493.765205 
L 950.504257 508.978242 
L 952.505082 516.020577 
L 954.572602 512.058551 
L 956.573427 501.366872 
L 958.640946 501.128108 
L 960.708465 516.570814 
L 962.575902 513.499925 
L 964.643422 519.520198 
L 966.644247 508.294042 
L 968.711766 511.235414 
L 970.712591 510.503201 
L 972.780111 510.18362 
L 974.84763 510.456681 
L 976.848455 499.597305 
L 978.915975 516.233051 
L 980.9168 500.544242 
L 982.984319 518.232857 
L 985.051839 511.536368 
L 986.919275 510.191203 
L 988.986795 492.017914 
L 990.98762 495.720815 
L 993.055139 498.611125 
L 995.055964 499.203626 
L 997.123484 496.197937 
L 999.191003 489.939734 
L 1001.191828 492.104432 
L 1003.259348 492.321323 
L 1005.260173 497.38731 
L 1009.395212 485.089521 
L 1011.262648 493.736698 
L 1015.330993 494.079833 
L 1019.399338 493.3772 
L 1021.466857 498.117102 
L 1023.534376 503.915982 
L 1025.535201 493.983656 
L 1027.602721 492.2561 
L 1029.603546 500.393472 
L 1029.603546 500.393472 
" clip-path="url(#pff1474a62d)" style="fill: none; stroke: #1f77b4; stroke-width: 1.5; stroke-linecap: square"/>
   </g>
   <g id="LineCollection_2">
    <path d="M 81.679266 507.442088 
L 1029.603546 507.442088 
" clip-path="url(#pff1474a62d)" style="fill: none; stroke: #008000; stroke-width: 1.5"/>
   </g>
   <g id="line2d_54">
    <path d="M 678.392031 592.321635 
L 678.392031 -1 
" clip-path="url(#pff1474a62d)" style="fill: none; stroke-dasharray: 5.55,2.4; stroke-dashoffset: 0; stroke: #ff0000; stroke-width: 1.5"/>
   </g>
   <g id="line2d_55">
    <path d="M 686.595415 592.321635 
L 686.595415 -1 
" clip-path="url(#pff1474a62d)" style="fill: none; stroke-dasharray: 5.55,2.4; stroke-dashoffset: 0; stroke: #ff0000; stroke-width: 1.5"/>
   </g>
   <g id="patch_15">
    <path d="M 34.283053 592.321635 
L 34.283053 426.118365 
" style="fill: none; stroke: #000000; stroke-width: 0.8; stroke-linejoin: miter; stroke-linecap: square"/>
   </g>
   <g id="patch_16">
    <path d="M 1076.99976 592.321635 
L 1076.99976 426.118365 
" style="fill: none; stroke: #000000; stroke-width: 0.8; stroke-linejoin: miter; stroke-linecap: square"/>
   </g>
   <g id="patch_17">
    <path d="M 34.283052 592.321635 
L 1076.99976 592.321635 
" style="fill: none; stroke: #000000; stroke-width: 0.8; stroke-linejoin: miter; stroke-linecap: square"/>
   </g>
   <g id="patch_18">
    <path d="M 34.283052 426.118365 
L 1076.99976 426.118365 
" style="fill: none; stroke: #000000; stroke-width: 0.8; stroke-linejoin: miter; stroke-linecap: square"/>
   </g>
   <g id="text_50">
    <!-- JFK Domestic Passengers Log Diff = 12 -->
    <g transform="translate(439.017344 420.118365) scale(0.12 -0.12)">
     <use xlink:href="#DejaVuSans-4a"/>
     <use xlink:href="#DejaVuSans-46" x="29.492188"/>
     <use xlink:href="#DejaVuSans-4b" x="87.011719"/>
     <use xlink:href="#DejaVuSans-20" x="152.587891"/>
     <use xlink:href="#DejaVuSans-44" x="184.375"/>
     <use xlink:href="#DejaVuSans-6f" x="261.376953"/>
     <use xlink:href="#DejaVuSans-6d" x="322.558594"/>
     <use xlink:href="#DejaVuSans-65" x="419.970703"/>
     <use xlink:href="#DejaVuSans-73" x="481.494141"/>
     <use xlink:href="#DejaVuSans-74" x="533.59375"/>
     <use xlink:href="#DejaVuSans-69" x="572.802734"/>
     <use xlink:href="#DejaVuSans-63" x="600.585938"/>
     <use xlink:href="#DejaVuSans-20" x="655.566406"/>
     <use xlink:href="#DejaVuSans-50" x="687.353516"/>
     <use xlink:href="#DejaVuSans-61" x="743.15625"/>
     <use xlink:href="#DejaVuSans-73" x="804.435547"/>
     <use xlink:href="#DejaVuSans-73" x="856.535156"/>
     <use xlink:href="#DejaVuSans-65" x="908.634766"/>
     <use xlink:href="#DejaVuSans-6e" x="970.158203"/>
     <use xlink:href="#DejaVuSans-67" x="1033.537109"/>
     <use xlink:href="#DejaVuSans-65" x="1097.013672"/>
     <use xlink:href="#DejaVuSans-72" x="1158.537109"/>
     <use xlink:href="#DejaVuSans-73" x="1199.650391"/>
     <use xlink:href="#DejaVuSans-20" x="1251.75"/>
     <use xlink:href="#DejaVuSans-4c" x="1283.537109"/>
     <use xlink:href="#DejaVuSans-6f" x="1337.5"/>
     <use xlink:href="#DejaVuSans-67" x="1398.681641"/>
     <use xlink:href="#DejaVuSans-20" x="1462.158203"/>
     <use xlink:href="#DejaVuSans-44" x="1493.945312"/>
     <use xlink:href="#DejaVuSans-69" x="1570.947266"/>
     <use xlink:href="#DejaVuSans-66" x="1598.730469"/>
     <use xlink:href="#DejaVuSans-66" x="1633.935547"/>
     <use xlink:href="#DejaVuSans-20" x="1669.140625"/>
     <use xlink:href="#DejaVuSans-3d" x="1700.927734"/>
     <use xlink:href="#DejaVuSans-20" x="1784.716797"/>
     <use xlink:href="#DejaVuSans-31" x="1816.503906"/>
     <use xlink:href="#DejaVuSans-32" x="1880.126953"/>
    </g>
   </g>
   <g id="legend_3">
    <g id="patch_19">
     <path d="M 41.283053 587.321635 
L 280.41274 587.321635 
Q 282.41274 587.321635 282.41274 585.321635 
L 282.41274 555.34351 
Q 282.41274 553.34351 280.41274 553.34351 
L 41.283053 553.34351 
Q 39.283053 553.34351 39.283053 555.34351 
L 39.283053 585.321635 
Q 39.283053 587.321635 41.283053 587.321635 
z
" style="fill: #ffffff; opacity: 0.8; stroke: #cccccc; stroke-linejoin: miter"/>
    </g>
    <g id="line2d_56">
     <path d="M 43.283053 561.441947 
L 53.283053 561.441947 
L 63.283053 561.441947 
" style="fill: none; stroke: #1f77b4; stroke-width: 1.5; stroke-linecap: square"/>
    </g>
    <g id="text_51">
     <!-- Yearly Difference In Domestic Passengers -->
     <g transform="translate(71.283052 564.941947) scale(0.1 -0.1)">
      <defs>
       <path id="DejaVuSans-59" d="M -13 4666 
L 666 4666 
L 1959 2747 
L 3244 4666 
L 3922 4666 
L 2272 2222 
L 2272 0 
L 1638 0 
L 1638 2222 
L -13 4666 
z
" transform="scale(0.015625)"/>
      </defs>
      <use xlink:href="#DejaVuSans-59"/>
      <use xlink:href="#DejaVuSans-65" x="47.833984"/>
      <use xlink:href="#DejaVuSans-61" x="109.357422"/>
      <use xlink:href="#DejaVuSans-72" x="170.636719"/>
      <use xlink:href="#DejaVuSans-6c" x="211.75"/>
      <use xlink:href="#DejaVuSans-79" x="239.533203"/>
      <use xlink:href="#DejaVuSans-20" x="298.712891"/>
      <use xlink:href="#DejaVuSans-44" x="330.5"/>
      <use xlink:href="#DejaVuSans-69" x="407.501953"/>
      <use xlink:href="#DejaVuSans-66" x="435.285156"/>
      <use xlink:href="#DejaVuSans-66" x="470.490234"/>
      <use xlink:href="#DejaVuSans-65" x="505.695312"/>
      <use xlink:href="#DejaVuSans-72" x="567.21875"/>
      <use xlink:href="#DejaVuSans-65" x="606.082031"/>
      <use xlink:href="#DejaVuSans-6e" x="667.605469"/>
      <use xlink:href="#DejaVuSans-63" x="730.984375"/>
      <use xlink:href="#DejaVuSans-65" x="785.964844"/>
      <use xlink:href="#DejaVuSans-20" x="847.488281"/>
      <use xlink:href="#DejaVuSans-49" x="879.275391"/>
      <use xlink:href="#DejaVuSans-6e" x="908.767578"/>
      <use xlink:href="#DejaVuSans-20" x="972.146484"/>
      <use xlink:href="#DejaVuSans-44" x="1003.933594"/>
      <use xlink:href="#DejaVuSans-6f" x="1080.935547"/>
      <use xlink:href="#DejaVuSans-6d" x="1142.117188"/>
      <use xlink:href="#DejaVuSans-65" x="1239.529297"/>
      <use xlink:href="#DejaVuSans-73" x="1301.052734"/>
      <use xlink:href="#DejaVuSans-74" x="1353.152344"/>
      <use xlink:href="#DejaVuSans-69" x="1392.361328"/>
      <use xlink:href="#DejaVuSans-63" x="1420.144531"/>
      <use xlink:href="#DejaVuSans-20" x="1475.125"/>
      <use xlink:href="#DejaVuSans-50" x="1506.912109"/>
      <use xlink:href="#DejaVuSans-61" x="1562.714844"/>
      <use xlink:href="#DejaVuSans-73" x="1623.994141"/>
      <use xlink:href="#DejaVuSans-73" x="1676.09375"/>
      <use xlink:href="#DejaVuSans-65" x="1728.193359"/>
      <use xlink:href="#DejaVuSans-6e" x="1789.716797"/>
      <use xlink:href="#DejaVuSans-67" x="1853.095703"/>
      <use xlink:href="#DejaVuSans-65" x="1916.572266"/>
      <use xlink:href="#DejaVuSans-72" x="1978.095703"/>
      <use xlink:href="#DejaVuSans-73" x="2019.208984"/>
     </g>
    </g>
    <g id="line2d_57">
     <path d="M 43.283053 577.721635 
L 53.283053 577.721635 
L 63.283053 577.721635 
" style="fill: none; stroke-dasharray: 5.55,2.4; stroke-dashoffset: 0; stroke: #ff0000; stroke-width: 1.5"/>
    </g>
    <g id="text_52">
     <!-- Sept 11$^{th}$, 2001 -->
     <g transform="translate(71.283052 581.221635) scale(0.1 -0.1)">
      <use xlink:href="#DejaVuSans-53" transform="translate(0 0.529687)"/>
      <use xlink:href="#DejaVuSans-65" transform="translate(63.476562 0.529687)"/>
      <use xlink:href="#DejaVuSans-70" transform="translate(125 0.529687)"/>
      <use xlink:href="#DejaVuSans-74" transform="translate(188.476562 0.529687)"/>
      <use xlink:href="#DejaVuSans-20" transform="translate(227.685547 0.529687)"/>
      <use xlink:href="#DejaVuSans-31" transform="translate(259.472656 0.529687)"/>
      <use xlink:href="#DejaVuSans-31" transform="translate(323.095703 0.529687)"/>
      <use xlink:href="#DejaVuSans-Oblique-74" transform="translate(387.675781 38.810937) scale(0.7)"/>
      <use xlink:href="#DejaVuSans-Oblique-68" transform="translate(415.12207 38.810937) scale(0.7)"/>
      <use xlink:href="#DejaVuSans-2c" transform="translate(462.22168 0.529687)"/>
      <use xlink:href="#DejaVuSans-20" transform="translate(494.008789 0.529687)"/>
      <use xlink:href="#DejaVuSans-32" transform="translate(525.795898 0.529687)"/>
      <use xlink:href="#DejaVuSans-30" transform="translate(589.418945 0.529687)"/>
      <use xlink:href="#DejaVuSans-30" transform="translate(653.041992 0.529687)"/>
      <use xlink:href="#DejaVuSans-31" transform="translate(716.665039 0.529687)"/>
     </g>
    </g>
   </g>
  </g>
 </g>
 <defs>
  <clipPath id="p1a2d5fb343">
   <rect x="34.283053" y="18.118365" width="1042.716707" height="166.20327"/>
  </clipPath>
  <clipPath id="pef8b24ccc7">
   <rect x="34.283053" y="222.118365" width="1042.716707" height="166.20327"/>
  </clipPath>
  <clipPath id="pff1474a62d">
   <rect x="34.283053" y="426.118365" width="1042.716707" height="166.20327"/>
  </clipPath>
 </defs>
</svg>
